<svg width="540" height="147" viewBox="0 0 540 147" fill="none" xmlns="http://www.w3.org/2000/svg">
<rect x="11" y="93" width="347" height="47" fill="#FDC500"/>
<g filter="url(#filter0_d_2_3)">
<path d="M26.77 33.12H32.56C33.07 33.12 34.48 33.15 35.17 33.57C35.65 33.84 36.22 34.47 36.22 35.61C36.22 36.69 35.68 37.35 35.17 37.65C35.08 37.71 34.42 38.1 32.65 38.1H26.77V33.12ZM26.77 24.9H32.02C32.98 24.9 33.91 24.93 34.54 25.35C34.96 25.65 35.38 26.16 35.38 27.03C35.38 27.9 35.02 28.44 34.69 28.71C34.03 29.28 33.01 29.34 31.72 29.34H26.77V24.9ZM21.25 21V42H33.58C35.86 42 38.95 41.88 40.6 40.35C41.47 39.54 42.16 38.13 42.16 36.24C42.16 35.19 41.98 33.78 40.87 32.67C39.91 31.71 38.26 31.14 36.91 31.02V30.9C37.06 30.87 38.71 30.66 39.79 29.61C40.39 29.04 41.05 27.96 41.05 26.31C41.05 23.64 39.49 22.41 39.01 22.08C37.54 21.09 35.47 21 33.37 21H21.25ZM57.4799 42H62.3999V26.76H57.1199V34.11C57.1199 35.37 57.0299 36.87 56.0699 37.92C55.2599 38.79 54.1799 38.94 53.3999 38.94C52.1699 38.94 51.4499 38.55 51.0599 38.16C50.2199 37.35 50.1899 36.06 50.1899 35.19V26.76H44.9099V36.15C44.9099 37.41 44.9999 39.6 46.4999 41.01C47.8799 42.3 50.1599 42.48 51.5099 42.48C53.2199 42.48 54.3299 42.27 55.0799 41.94C56.3699 41.4 57.1499 40.38 57.3599 40.11H57.4799V42ZM66.6489 47.31C67.7589 47.67 68.5389 47.73 69.6789 47.73C71.1789 47.73 72.7089 47.61 74.0589 46.32C75.0789 45.36 75.7089 43.83 76.3689 42.27L82.8489 26.76H77.8989L74.3589 36.93L70.3089 26.76H64.9989L71.4789 41.07L71.1789 41.97C70.9689 42.57 70.5189 43.41 70.0389 43.8C69.5889 44.16 68.8989 44.31 68.2389 44.31C68.0289 44.31 67.3989 44.28 66.6489 44.04V47.31ZM103.55 35.22C103.55 36.84 103.1 37.77 102.47 38.4C101.54 39.33 100.46 39.45 99.4998 39.45C98.8698 39.45 98.0598 39.42 97.4898 38.97C97.1298 38.7 96.8598 38.22 96.8598 37.68C96.8598 36.96 97.3098 36.57 97.5798 36.39C98.0898 36.06 98.8398 35.94 99.7098 35.85L100.82 35.73C102.32 35.58 102.95 35.49 103.55 34.98V35.22ZM97.3098 31.68C97.3398 30.75 97.9098 30.24 98.1798 30.03C98.8998 29.52 100.1 29.49 100.46 29.49C101.15 29.49 101.99 29.61 102.56 29.91C103.34 30.33 103.52 30.93 103.52 31.41C103.52 31.77 103.4 32.16 103.16 32.4C102.71 32.88 101.78 32.94 100.37 33.06L97.9698 33.27C96.3798 33.42 93.8298 33.6 92.3898 34.98C91.5498 35.79 91.2498 36.84 91.2498 37.98C91.2498 39.96 92.2098 41.04 93.0198 41.61C94.3098 42.48 96.2598 42.57 97.7598 42.57C98.8998 42.57 100.19 42.51 101.39 42.12C102.38 41.79 103.13 41.31 103.76 40.5H103.88L104.21 42H109.97V41.58C109.46 41.49 109.22 41.13 109.13 40.98C109.1 40.89 108.89 40.5 108.89 39.15V32.37C108.89 31.11 108.86 29.52 107.6 28.2C105.89 26.4 102.5 26.19 100.37 26.19C97.6398 26.19 95.1498 26.43 93.4398 28.11C92.5398 29.01 91.9698 30.18 91.9698 31.68H97.3098ZM119.912 26.76V42H125.192V35.01C125.192 33.21 125.642 31.71 126.422 30.87C126.902 30.36 127.772 29.79 129.182 29.79C130.232 29.79 130.922 30.12 131.312 30.51C132.092 31.26 132.212 32.52 132.212 33.75V42H137.492V32.58C137.492 30.75 137.252 28.65 135.272 27.36C134.882 27.09 133.382 26.25 130.502 26.25C129.602 26.25 128.312 26.34 127.112 26.94C126.272 27.36 125.522 27.99 124.982 28.62V26.76H119.912ZM152.222 26.76H148.232V26.04C148.232 25.65 148.292 24.84 148.862 24.36C149.282 24 149.972 23.85 150.662 23.85C151.112 23.85 151.712 23.91 152.192 24.03V20.94C151.022 20.7 150.062 20.61 148.862 20.61C147.602 20.61 145.562 20.7 144.272 21.96C143.612 22.59 142.952 23.7 142.952 25.56V26.76H139.742V30H142.952V42H148.232V30H152.222V26.76ZM153.042 30H156.282V37.98C156.282 38.91 156.312 40.26 157.392 41.28C158.562 42.39 160.482 42.45 161.562 42.45C162.852 42.45 163.872 42.36 165.162 41.97V38.67C164.592 38.85 164.082 38.91 163.602 38.91C162.492 38.91 162.072 38.49 161.982 38.4C161.562 37.95 161.562 37.23 161.562 36.66V30H165.102V26.76H161.562V22.23H156.282V26.76H153.042V30ZM183.879 29.61C184.839 29.61 186.159 29.79 187.119 30.75C187.899 31.56 188.379 32.88 188.379 34.38C188.379 35.88 187.899 37.2 187.119 38.01C186.159 38.97 184.839 39.15 183.879 39.15C182.919 39.15 181.599 38.97 180.639 38.01C179.859 37.2 179.379 35.88 179.379 34.38C179.379 32.88 179.859 31.56 180.639 30.75C181.599 29.79 182.919 29.61 183.879 29.61ZM193.839 34.38C193.839 32.37 193.389 29.97 191.199 28.2C188.979 26.4 185.859 26.19 183.879 26.19C181.899 26.19 178.779 26.4 176.559 28.2C174.369 29.97 173.919 32.37 173.919 34.38C173.919 36.39 174.369 38.79 176.559 40.56C178.779 42.36 181.899 42.57 183.879 42.57C185.859 42.57 188.979 42.36 191.199 40.56C193.389 38.79 193.839 36.39 193.839 34.38ZM207.886 26.76H203.896V26.04C203.896 25.65 203.956 24.84 204.526 24.36C204.946 24 205.636 23.85 206.326 23.85C206.776 23.85 207.376 23.91 207.856 24.03V20.94C206.686 20.7 205.726 20.61 204.526 20.61C203.266 20.61 201.226 20.7 199.936 21.96C199.276 22.59 198.616 23.7 198.616 25.56V26.76H195.406V30H198.616V42H203.896V30H207.886V26.76ZM229.028 35.22C229.028 36.84 228.578 37.77 227.948 38.4C227.018 39.33 225.938 39.45 224.978 39.45C224.348 39.45 223.538 39.42 222.968 38.97C222.608 38.7 222.338 38.22 222.338 37.68C222.338 36.96 222.788 36.57 223.058 36.39C223.568 36.06 224.318 35.94 225.188 35.85L226.298 35.73C227.798 35.58 228.428 35.49 229.028 34.98V35.22ZM222.788 31.68C222.818 30.75 223.388 30.24 223.658 30.03C224.378 29.52 225.578 29.49 225.938 29.49C226.628 29.49 227.468 29.61 228.038 29.91C228.818 30.33 228.998 30.93 228.998 31.41C228.998 31.77 228.878 32.16 228.638 32.4C228.188 32.88 227.258 32.94 225.848 33.06L223.448 33.27C221.858 33.42 219.308 33.6 217.868 34.98C217.028 35.79 216.728 36.84 216.728 37.98C216.728 39.96 217.688 41.04 218.498 41.61C219.788 42.48 221.738 42.57 223.238 42.57C224.378 42.57 225.668 42.51 226.868 42.12C227.858 41.79 228.608 41.31 229.238 40.5H229.358L229.688 42H235.448V41.58C234.938 41.49 234.698 41.13 234.608 40.98C234.578 40.89 234.368 40.5 234.368 39.15V32.37C234.368 31.11 234.338 29.52 233.078 28.2C231.368 26.4 227.978 26.19 225.848 26.19C223.118 26.19 220.628 26.43 218.918 28.11C218.018 29.01 217.448 30.18 217.448 31.68H222.788ZM254.361 29.64C255.231 29.64 256.641 29.82 257.631 31.05C258.321 31.92 258.651 33.24 258.651 34.35C258.651 35.67 258.231 37.14 257.301 38.07C256.431 38.94 255.441 39.12 254.421 39.12C253.341 39.12 252.291 38.91 251.421 37.98C250.581 37.08 250.191 35.67 250.191 34.38C250.191 33.06 250.491 31.8 251.241 30.93C252.141 29.88 253.341 29.64 254.361 29.64ZM258.741 40.2V42H263.781V21H258.501V28.5C258.021 27.78 257.481 27.33 256.581 26.94C255.381 26.4 254.421 26.28 253.041 26.28C251.331 26.28 248.991 26.43 247.041 28.26C245.871 29.37 244.671 31.29 244.671 34.44C244.671 37.08 245.481 39.12 246.711 40.41C248.541 42.33 250.821 42.48 252.861 42.48C254.241 42.48 255.501 42.42 256.611 41.94C257.661 41.49 258.231 40.86 258.621 40.2H258.741ZM272.338 32.67C272.428 31.53 272.998 30.75 273.598 30.27C274.498 29.55 275.488 29.43 276.568 29.43C277.558 29.43 278.788 29.52 279.688 30.33C280.108 30.69 280.708 31.44 280.768 32.67H272.338ZM280.678 37.02C280.468 38.01 279.898 38.52 279.328 38.79C278.578 39.15 277.378 39.21 276.598 39.21C275.578 39.21 274.138 39.09 273.238 38.19C272.728 37.68 272.248 36.78 272.248 35.46V35.37H286.198V34.83C286.198 33 286.018 30.54 284.128 28.65C282.058 26.58 278.908 26.19 276.538 26.19C274.138 26.19 271.228 26.52 269.128 28.56C267.118 30.51 266.848 33.06 266.848 34.62C266.848 36.51 267.208 38.58 268.948 40.32C270.898 42.27 273.508 42.57 276.958 42.57C279.418 42.57 281.248 42.39 282.688 41.76C284.758 40.83 285.808 38.97 285.988 37.02H280.678ZM289.189 21V42H294.469V35.1C294.469 33.78 294.559 32.04 295.609 30.87C296.359 30.03 297.289 29.79 298.309 29.79C299.509 29.79 300.259 30.18 300.679 30.63C301.489 31.5 301.489 32.97 301.489 33.75V42H306.769V32.82C306.769 31.14 306.739 28.68 304.489 27.27C303.379 26.58 301.729 26.25 300.019 26.25C299.239 26.25 297.709 26.31 296.479 26.85C295.579 27.24 294.949 27.78 294.469 28.41V21H289.189ZM309.872 47.31C310.982 47.67 311.762 47.73 312.902 47.73C314.402 47.73 315.932 47.61 317.282 46.32C318.302 45.36 318.932 43.83 319.592 42.27L326.072 26.76H321.122L317.582 36.93L313.532 26.76H308.222L314.702 41.07L314.402 41.97C314.192 42.57 313.742 43.41 313.262 43.8C312.812 44.16 312.122 44.31 311.462 44.31C311.252 44.31 310.622 44.28 309.872 44.04V47.31ZM327.183 30H330.423V37.98C330.423 38.91 330.453 40.26 331.533 41.28C332.703 42.39 334.623 42.45 335.703 42.45C336.993 42.45 338.013 42.36 339.303 41.97V38.67C338.733 38.85 338.223 38.91 337.743 38.91C336.633 38.91 336.213 38.49 336.123 38.4C335.703 37.95 335.703 37.23 335.703 36.66V30H339.243V26.76H335.703V22.23H330.423V26.76H327.183V30ZM353.687 26.52C353.207 26.43 352.787 26.4 352.307 26.4C351.197 26.4 350.147 26.58 349.157 27.09C347.957 27.72 347.237 28.59 346.847 29.25V26.76H341.777V42H347.057V36.27C347.057 35.13 347.237 32.28 349.217 30.93C349.997 30.39 351.107 30.09 352.577 30.09C352.967 30.09 353.417 30.12 353.687 30.15V26.52ZM367.28 35.22C367.28 36.84 366.83 37.77 366.2 38.4C365.27 39.33 364.19 39.45 363.23 39.45C362.6 39.45 361.79 39.42 361.22 38.97C360.86 38.7 360.59 38.22 360.59 37.68C360.59 36.96 361.04 36.57 361.31 36.39C361.82 36.06 362.57 35.94 363.44 35.85L364.55 35.73C366.05 35.58 366.68 35.49 367.28 34.98V35.22ZM361.04 31.68C361.07 30.75 361.64 30.24 361.91 30.03C362.63 29.52 363.83 29.49 364.19 29.49C364.88 29.49 365.72 29.61 366.29 29.91C367.07 30.33 367.25 30.93 367.25 31.41C367.25 31.77 367.13 32.16 366.89 32.4C366.44 32.88 365.51 32.94 364.1 33.06L361.7 33.27C360.11 33.42 357.56 33.6 356.12 34.98C355.28 35.79 354.98 36.84 354.98 37.98C354.98 39.96 355.94 41.04 356.75 41.61C358.04 42.48 359.99 42.57 361.49 42.57C362.63 42.57 363.92 42.51 365.12 42.12C366.11 41.79 366.86 41.31 367.49 40.5H367.61L367.94 42H373.7V41.58C373.19 41.49 372.95 41.13 372.86 40.98C372.83 40.89 372.62 40.5 372.62 39.15V32.37C372.62 31.11 372.59 29.52 371.33 28.2C369.62 26.4 366.23 26.19 364.1 26.19C361.37 26.19 358.88 26.43 357.17 28.11C356.27 29.01 355.7 30.18 355.7 31.68H361.04ZM375.201 30H378.441V37.98C378.441 38.91 378.471 40.26 379.551 41.28C380.721 42.39 382.641 42.45 383.721 42.45C385.011 42.45 386.031 42.36 387.321 41.97V38.67C386.751 38.85 386.241 38.91 385.761 38.91C384.651 38.91 384.231 38.49 384.141 38.4C383.721 37.95 383.721 37.23 383.721 36.66V30H387.261V26.76H383.721V22.23H378.441V26.76H375.201V30ZM394.565 32.67C394.655 31.53 395.225 30.75 395.825 30.27C396.725 29.55 397.715 29.43 398.795 29.43C399.785 29.43 401.015 29.52 401.915 30.33C402.335 30.69 402.935 31.44 402.995 32.67H394.565ZM402.905 37.02C402.695 38.01 402.125 38.52 401.555 38.79C400.805 39.15 399.605 39.21 398.825 39.21C397.805 39.21 396.365 39.09 395.465 38.19C394.955 37.68 394.475 36.78 394.475 35.46V35.37H408.425V34.83C408.425 33 408.245 30.54 406.355 28.65C404.285 26.58 401.135 26.19 398.765 26.19C396.365 26.19 393.455 26.52 391.355 28.56C389.345 30.51 389.075 33.06 389.075 34.62C389.075 36.51 389.435 38.58 391.175 40.32C393.125 42.27 395.735 42.57 399.185 42.57C401.645 42.57 403.475 42.39 404.915 41.76C406.985 40.83 408.035 38.97 408.215 37.02H402.905ZM420.386 29.64C421.256 29.64 422.666 29.82 423.656 31.05C424.346 31.92 424.676 33.24 424.676 34.35C424.676 35.67 424.256 37.14 423.326 38.07C422.456 38.94 421.466 39.12 420.446 39.12C419.366 39.12 418.316 38.91 417.446 37.98C416.606 37.08 416.216 35.67 416.216 34.38C416.216 33.06 416.516 31.8 417.266 30.93C418.166 29.88 419.366 29.64 420.386 29.64ZM424.766 40.2V42H429.806V21H424.526V28.5C424.046 27.78 423.506 27.33 422.606 26.94C421.406 26.4 420.446 26.28 419.066 26.28C417.356 26.28 415.016 26.43 413.066 28.26C411.896 29.37 410.696 31.29 410.696 34.44C410.696 37.08 411.506 39.12 412.736 40.41C414.566 42.33 416.846 42.48 418.886 42.48C420.266 42.48 421.526 42.42 422.636 41.94C423.686 41.49 424.256 40.86 424.646 40.2H424.766ZM458.326 32.16C458.296 30.84 457.936 28.86 455.566 27.48C454.696 26.97 452.866 26.19 449.296 26.19C446.986 26.19 443.956 26.55 441.916 28.71C440.926 29.76 439.876 31.59 439.876 34.62C439.876 37.95 441.196 39.66 441.946 40.41C443.956 42.42 446.986 42.57 449.446 42.57C452.206 42.57 454.936 42.42 456.766 40.53C457.516 39.75 458.386 38.37 458.386 36.36V36.27H453.286C453.256 37.29 452.776 38.1 452.146 38.55C451.396 39.09 450.346 39.15 449.656 39.15C448.666 39.15 447.466 39.03 446.566 38.13C445.876 37.44 445.336 36.24 445.336 34.53C445.336 33.99 445.366 32.1 446.476 30.84C447.316 29.88 448.456 29.61 449.626 29.61C450.466 29.61 451.426 29.76 452.116 30.18C453.106 30.81 453.226 31.71 453.256 32.16H458.326ZM461.309 21V42H466.589V35.1C466.589 33.78 466.679 32.04 467.729 30.87C468.479 30.03 469.409 29.79 470.429 29.79C471.629 29.79 472.379 30.18 472.799 30.63C473.609 31.5 473.609 32.97 473.609 33.75V42H478.889V32.82C478.889 31.14 478.859 28.68 476.609 27.27C475.499 26.58 473.849 26.25 472.139 26.25C471.359 26.25 469.829 26.31 468.599 26.85C467.699 27.24 467.069 27.78 466.589 28.41V21H461.309ZM482.578 24.33H487.858V20.79H482.578V24.33ZM482.578 26.76V42H487.858V26.76H482.578ZM491.631 21V42H496.911V21H491.631ZM509.654 29.64C510.524 29.64 511.934 29.82 512.924 31.05C513.614 31.92 513.944 33.24 513.944 34.35C513.944 35.67 513.524 37.14 512.594 38.07C511.724 38.94 510.734 39.12 509.714 39.12C508.634 39.12 507.584 38.91 506.714 37.98C505.874 37.08 505.484 35.67 505.484 34.38C505.484 33.06 505.784 31.8 506.534 30.93C507.434 29.88 508.634 29.64 509.654 29.64ZM514.034 40.2V42H519.074V21H513.794V28.5C513.314 27.78 512.774 27.33 511.874 26.94C510.674 26.4 509.714 26.28 508.334 26.28C506.624 26.28 504.284 26.43 502.334 28.26C501.164 29.37 499.964 31.29 499.964 34.44C499.964 37.08 500.774 39.12 502.004 40.41C503.834 42.33 506.114 42.48 508.154 42.48C509.534 42.48 510.794 42.42 511.904 41.94C512.954 41.49 513.524 40.86 513.914 40.2H514.034ZM32.71 77.22C32.71 78.84 32.26 79.77 31.63 80.4C30.7 81.33 29.62 81.45 28.66 81.45C28.03 81.45 27.22 81.42 26.65 80.97C26.29 80.7 26.02 80.22 26.02 79.68C26.02 78.96 26.47 78.57 26.74 78.39C27.25 78.06 28 77.94 28.87 77.85L29.98 77.73C31.48 77.58 32.11 77.49 32.71 76.98V77.22ZM26.47 73.68C26.5 72.75 27.07 72.24 27.34 72.03C28.06 71.52 29.26 71.49 29.62 71.49C30.31 71.49 31.15 71.61 31.72 71.91C32.5 72.33 32.68 72.93 32.68 73.41C32.68 73.77 32.56 74.16 32.32 74.4C31.87 74.88 30.94 74.94 29.53 75.06L27.13 75.27C25.54 75.42 22.99 75.6 21.55 76.98C20.71 77.79 20.41 78.84 20.41 79.98C20.41 81.96 21.37 83.04 22.18 83.61C23.47 84.48 25.42 84.57 26.92 84.57C28.06 84.57 29.35 84.51 30.55 84.12C31.54 83.79 32.29 83.31 32.92 82.5H33.04L33.37 84H39.13V83.58C38.62 83.49 38.38 83.13 38.29 82.98C38.26 82.89 38.05 82.5 38.05 81.15V74.37C38.05 73.11 38.02 71.52 36.76 70.2C35.05 68.4 31.66 68.19 29.53 68.19C26.8 68.19 24.31 68.43 22.6 70.11C21.7 71.01 21.13 72.18 21.13 73.68H26.47ZM42.0702 68.76V84H47.3502V77.01C47.3502 75.21 47.8002 73.71 48.5802 72.87C49.0602 72.36 49.9302 71.79 51.3402 71.79C52.3902 71.79 53.0802 72.12 53.4702 72.51C54.2502 73.26 54.3702 74.52 54.3702 75.75V84H59.6502V74.58C59.6502 72.75 59.4102 70.65 57.4302 69.36C57.0402 69.09 55.5402 68.25 52.6602 68.25C51.7602 68.25 50.4702 68.34 49.2702 68.94C48.4302 69.36 47.6802 69.99 47.1402 70.62V68.76H42.0702ZM72.3098 71.64C73.1798 71.64 74.5898 71.82 75.5798 73.05C76.2698 73.92 76.5998 75.24 76.5998 76.35C76.5998 77.67 76.1798 79.14 75.2498 80.07C74.3798 80.94 73.3898 81.12 72.3698 81.12C71.2898 81.12 70.2398 80.91 69.3698 79.98C68.5298 79.08 68.1398 77.67 68.1398 76.38C68.1398 75.06 68.4398 73.8 69.1898 72.93C70.0898 71.88 71.2898 71.64 72.3098 71.64ZM76.6898 82.2V84H81.7298V63H76.4498V70.5C75.9698 69.78 75.4298 69.33 74.5298 68.94C73.3298 68.4 72.3698 68.28 70.9898 68.28C69.2798 68.28 66.9398 68.43 64.9898 70.26C63.8198 71.37 62.6198 73.29 62.6198 76.44C62.6198 79.08 63.4298 81.12 64.6598 82.41C66.4898 84.33 68.7698 84.48 70.8098 84.48C72.1898 84.48 73.4498 84.42 74.5598 83.94C75.6098 83.49 76.1798 82.86 76.5698 82.2H76.6898ZM104.399 77.22C104.399 78.84 103.949 79.77 103.319 80.4C102.389 81.33 101.309 81.45 100.349 81.45C99.7195 81.45 98.9095 81.42 98.3395 80.97C97.9795 80.7 97.7095 80.22 97.7095 79.68C97.7095 78.96 98.1595 78.57 98.4295 78.39C98.9395 78.06 99.6895 77.94 100.559 77.85L101.669 77.73C103.169 77.58 103.799 77.49 104.399 76.98V77.22ZM98.1595 73.68C98.1895 72.75 98.7595 72.24 99.0295 72.03C99.7495 71.52 100.949 71.49 101.309 71.49C101.999 71.49 102.839 71.61 103.409 71.91C104.189 72.33 104.369 72.93 104.369 73.41C104.369 73.77 104.249 74.16 104.009 74.4C103.559 74.88 102.629 74.94 101.219 75.06L98.8195 75.27C97.2295 75.42 94.6795 75.6 93.2395 76.98C92.3995 77.79 92.0995 78.84 92.0995 79.98C92.0995 81.96 93.0595 83.04 93.8695 83.61C95.1595 84.48 97.1095 84.57 98.6095 84.57C99.7495 84.57 101.039 84.51 102.239 84.12C103.229 83.79 103.979 83.31 104.609 82.5H104.729L105.059 84H110.819V83.58C110.309 83.49 110.069 83.13 109.979 82.98C109.949 82.89 109.739 82.5 109.739 81.15V74.37C109.739 73.11 109.709 71.52 108.449 70.2C106.739 68.4 103.349 68.19 101.219 68.19C98.4895 68.19 95.9995 68.43 94.2895 70.11C93.3895 71.01 92.8195 72.18 92.8195 73.68H98.1595ZM126.24 84H131.16V68.76H125.88V76.11C125.88 77.37 125.79 78.87 124.83 79.92C124.02 80.79 122.94 80.94 122.16 80.94C120.93 80.94 120.21 80.55 119.82 80.16C118.98 79.35 118.95 78.06 118.95 77.19V68.76H113.67V78.15C113.67 79.41 113.76 81.6 115.26 83.01C116.64 84.3 118.92 84.48 120.27 84.48C121.98 84.48 123.09 84.27 123.84 83.94C125.13 83.4 125.91 82.38 126.12 82.11H126.24V84ZM133.501 72H136.741V79.98C136.741 80.91 136.771 82.26 137.851 83.28C139.021 84.39 140.941 84.45 142.021 84.45C143.311 84.45 144.331 84.36 145.621 83.97V80.67C145.051 80.85 144.541 80.91 144.061 80.91C142.951 80.91 142.531 80.49 142.441 80.4C142.021 79.95 142.021 79.23 142.021 78.66V72H145.561V68.76H142.021V64.23H136.741V68.76H133.501V72ZM157.336 71.61C158.296 71.61 159.616 71.79 160.576 72.75C161.356 73.56 161.836 74.88 161.836 76.38C161.836 77.88 161.356 79.2 160.576 80.01C159.616 80.97 158.296 81.15 157.336 81.15C156.376 81.15 155.056 80.97 154.096 80.01C153.316 79.2 152.836 77.88 152.836 76.38C152.836 74.88 153.316 73.56 154.096 72.75C155.056 71.79 156.376 71.61 157.336 71.61ZM167.296 76.38C167.296 74.37 166.846 71.97 164.656 70.2C162.436 68.4 159.316 68.19 157.336 68.19C155.356 68.19 152.236 68.4 150.016 70.2C147.826 71.97 147.376 74.37 147.376 76.38C147.376 78.39 147.826 80.79 150.016 82.56C152.236 84.36 155.356 84.57 157.336 84.57C159.316 84.57 162.436 84.36 164.656 82.56C166.846 80.79 167.296 78.39 167.296 76.38ZM170.303 68.76V84H175.583V76.53C175.583 75.39 175.673 73.65 176.843 72.57C177.503 71.97 178.253 71.76 179.063 71.76C179.663 71.76 180.413 71.88 180.983 72.42C181.823 73.2 181.883 74.34 181.883 75.09V84H187.163V76.11C187.163 75.15 187.343 73.59 188.273 72.66C188.723 72.21 189.443 71.76 190.583 71.76C191.633 71.76 192.263 72.18 192.593 72.48C193.223 73.08 193.463 74.04 193.463 75.21V84H198.743V75.27C198.743 73.68 198.653 71.31 197.093 69.78C195.653 68.37 193.433 68.22 192.203 68.22C190.823 68.22 189.503 68.4 188.243 69.09C187.523 69.48 186.683 70.11 185.993 71.16C185.723 70.47 185.243 69.57 184.133 68.94C183.173 68.37 182.123 68.22 180.983 68.22C179.633 68.22 178.493 68.37 177.323 69C176.363 69.51 175.703 70.2 175.223 70.89V68.76H170.303ZM214.321 77.22C214.321 78.84 213.871 79.77 213.241 80.4C212.311 81.33 211.231 81.45 210.271 81.45C209.641 81.45 208.831 81.42 208.261 80.97C207.901 80.7 207.631 80.22 207.631 79.68C207.631 78.96 208.081 78.57 208.351 78.39C208.861 78.06 209.611 77.94 210.481 77.85L211.591 77.73C213.091 77.58 213.721 77.49 214.321 76.98V77.22ZM208.081 73.68C208.111 72.75 208.681 72.24 208.951 72.03C209.671 71.52 210.871 71.49 211.231 71.49C211.921 71.49 212.761 71.61 213.331 71.91C214.111 72.33 214.291 72.93 214.291 73.41C214.291 73.77 214.171 74.16 213.931 74.4C213.481 74.88 212.551 74.94 211.141 75.06L208.741 75.27C207.151 75.42 204.601 75.6 203.161 76.98C202.321 77.79 202.021 78.84 202.021 79.98C202.021 81.96 202.981 83.04 203.791 83.61C205.081 84.48 207.031 84.57 208.531 84.57C209.671 84.57 210.961 84.51 212.161 84.12C213.151 83.79 213.901 83.31 214.531 82.5H214.651L214.981 84H220.741V83.58C220.231 83.49 219.991 83.13 219.901 82.98C219.871 82.89 219.661 82.5 219.661 81.15V74.37C219.661 73.11 219.631 71.52 218.371 70.2C216.661 68.4 213.271 68.19 211.141 68.19C208.411 68.19 205.921 68.43 204.211 70.11C203.311 71.01 202.741 72.18 202.741 73.68H208.081ZM222.242 72H225.482V79.98C225.482 80.91 225.512 82.26 226.592 83.28C227.762 84.39 229.682 84.45 230.762 84.45C232.052 84.45 233.072 84.36 234.362 83.97V80.67C233.792 80.85 233.282 80.91 232.802 80.91C231.692 80.91 231.272 80.49 231.182 80.4C230.762 79.95 230.762 79.23 230.762 78.66V72H234.302V68.76H230.762V64.23H225.482V68.76H222.242V72ZM236.836 66.33H242.116V62.79H236.836V66.33ZM236.836 68.76V84H242.116V68.76H236.836ZM263.619 74.16C263.589 72.84 263.229 70.86 260.859 69.48C259.989 68.97 258.159 68.19 254.589 68.19C252.279 68.19 249.249 68.55 247.209 70.71C246.219 71.76 245.169 73.59 245.169 76.62C245.169 79.95 246.489 81.66 247.239 82.41C249.249 84.42 252.279 84.57 254.739 84.57C257.499 84.57 260.229 84.42 262.059 82.53C262.809 81.75 263.679 80.37 263.679 78.36V78.27H258.579C258.549 79.29 258.069 80.1 257.439 80.55C256.689 81.09 255.639 81.15 254.949 81.15C253.959 81.15 252.759 81.03 251.859 80.13C251.169 79.44 250.629 78.24 250.629 76.53C250.629 75.99 250.659 74.1 251.769 72.84C252.609 71.88 253.749 71.61 254.919 71.61C255.759 71.61 256.719 71.76 257.409 72.18C258.399 72.81 258.519 73.71 258.549 74.16H263.619ZM278.306 77.22C278.306 78.84 277.856 79.77 277.226 80.4C276.296 81.33 275.216 81.45 274.256 81.45C273.626 81.45 272.816 81.42 272.246 80.97C271.886 80.7 271.616 80.22 271.616 79.68C271.616 78.96 272.066 78.57 272.336 78.39C272.846 78.06 273.596 77.94 274.466 77.85L275.576 77.73C277.076 77.58 277.706 77.49 278.306 76.98V77.22ZM272.066 73.68C272.096 72.75 272.666 72.24 272.936 72.03C273.656 71.52 274.856 71.49 275.216 71.49C275.906 71.49 276.746 71.61 277.316 71.91C278.096 72.33 278.276 72.93 278.276 73.41C278.276 73.77 278.156 74.16 277.916 74.4C277.466 74.88 276.536 74.94 275.126 75.06L272.726 75.27C271.136 75.42 268.586 75.6 267.146 76.98C266.306 77.79 266.006 78.84 266.006 79.98C266.006 81.96 266.966 83.04 267.776 83.61C269.066 84.48 271.016 84.57 272.516 84.57C273.656 84.57 274.946 84.51 276.146 84.12C277.136 83.79 277.886 83.31 278.516 82.5H278.636L278.966 84H284.726V83.58C284.216 83.49 283.976 83.13 283.886 82.98C283.856 82.89 283.646 82.5 283.646 81.15V74.37C283.646 73.11 283.616 71.52 282.356 70.2C280.646 68.4 277.256 68.19 275.126 68.19C272.396 68.19 269.906 68.43 268.196 70.11C267.296 71.01 266.726 72.18 266.726 73.68H272.066ZM287.666 63V84H292.946V63H287.666ZM296.719 63V84H301.999V63H296.719ZM305.711 89.31C306.821 89.67 307.601 89.73 308.741 89.73C310.241 89.73 311.771 89.61 313.121 88.32C314.141 87.36 314.771 85.83 315.431 84.27L321.911 68.76H316.961L313.421 78.93L309.371 68.76H304.061L310.541 83.07L310.241 83.97C310.031 84.57 309.581 85.41 309.101 85.8C308.651 86.16 307.961 86.31 307.301 86.31C307.091 86.31 306.461 86.28 305.711 86.04V89.31ZM339.702 71.64C340.572 71.64 341.982 71.82 342.972 73.05C343.662 73.92 343.992 75.24 343.992 76.35C343.992 77.67 343.572 79.14 342.642 80.07C341.772 80.94 340.782 81.12 339.762 81.12C338.682 81.12 337.632 80.91 336.762 79.98C335.922 79.08 335.532 77.67 335.532 76.38C335.532 75.06 335.832 73.8 336.582 72.93C337.482 71.88 338.682 71.64 339.702 71.64ZM344.082 82.2V84H349.122V63H343.842V70.5C343.362 69.78 342.822 69.33 341.922 68.94C340.722 68.4 339.762 68.28 338.382 68.28C336.672 68.28 334.332 68.43 332.382 70.26C331.212 71.37 330.012 73.29 330.012 76.44C330.012 79.08 330.822 81.12 332.052 82.41C333.882 84.33 336.162 84.48 338.202 84.48C339.582 84.48 340.842 84.42 341.952 83.94C343.002 83.49 343.572 82.86 343.962 82.2H344.082ZM362.15 71.61C363.11 71.61 364.43 71.79 365.39 72.75C366.17 73.56 366.65 74.88 366.65 76.38C366.65 77.88 366.17 79.2 365.39 80.01C364.43 80.97 363.11 81.15 362.15 81.15C361.19 81.15 359.87 80.97 358.91 80.01C358.13 79.2 357.65 77.88 357.65 76.38C357.65 74.88 358.13 73.56 358.91 72.75C359.87 71.79 361.19 71.61 362.15 71.61ZM372.11 76.38C372.11 74.37 371.66 71.97 369.47 70.2C367.25 68.4 364.13 68.19 362.15 68.19C360.17 68.19 357.05 68.4 354.83 70.2C352.64 71.97 352.19 74.37 352.19 76.38C352.19 78.39 352.64 80.79 354.83 82.56C357.05 84.36 360.17 84.57 362.15 84.57C364.13 84.57 367.25 84.36 369.47 82.56C371.66 80.79 372.11 78.39 372.11 76.38ZM375.117 68.76V84H380.397V77.01C380.397 75.21 380.847 73.71 381.627 72.87C382.107 72.36 382.977 71.79 384.387 71.79C385.437 71.79 386.127 72.12 386.517 72.51C387.297 73.26 387.417 74.52 387.417 75.75V84H392.697V74.58C392.697 72.75 392.457 70.65 390.477 69.36C390.087 69.09 388.587 68.25 385.707 68.25C384.807 68.25 383.517 68.34 382.317 68.94C381.477 69.36 380.727 69.99 380.187 70.62V68.76H375.117ZM408.267 77.22C408.267 78.84 407.817 79.77 407.187 80.4C406.257 81.33 405.177 81.45 404.217 81.45C403.587 81.45 402.777 81.42 402.207 80.97C401.847 80.7 401.577 80.22 401.577 79.68C401.577 78.96 402.027 78.57 402.297 78.39C402.807 78.06 403.557 77.94 404.427 77.85L405.537 77.73C407.037 77.58 407.667 77.49 408.267 76.98V77.22ZM402.027 73.68C402.057 72.75 402.627 72.24 402.897 72.03C403.617 71.52 404.817 71.49 405.177 71.49C405.867 71.49 406.707 71.61 407.277 71.91C408.057 72.33 408.237 72.93 408.237 73.41C408.237 73.77 408.117 74.16 407.877 74.4C407.427 74.88 406.497 74.94 405.087 75.06L402.687 75.27C401.097 75.42 398.547 75.6 397.107 76.98C396.267 77.79 395.967 78.84 395.967 79.98C395.967 81.96 396.927 83.04 397.737 83.61C399.027 84.48 400.977 84.57 402.477 84.57C403.617 84.57 404.907 84.51 406.107 84.12C407.097 83.79 407.847 83.31 408.477 82.5H408.597L408.927 84H414.687V83.58C414.177 83.49 413.937 83.13 413.847 82.98C413.817 82.89 413.607 82.5 413.607 81.15V74.37C413.607 73.11 413.577 71.52 412.317 70.2C410.607 68.4 407.217 68.19 405.087 68.19C402.357 68.19 399.867 68.43 398.157 70.11C397.257 71.01 396.687 72.18 396.687 73.68H402.027ZM416.187 72H419.427V79.98C419.427 80.91 419.457 82.26 420.537 83.28C421.707 84.39 423.627 84.45 424.707 84.45C425.997 84.45 427.017 84.36 428.307 83.97V80.67C427.737 80.85 427.227 80.91 426.747 80.91C425.637 80.91 425.217 80.49 425.127 80.4C424.707 79.95 424.707 79.23 424.707 78.66V72H428.247V68.76H424.707V64.23H419.427V68.76H416.187V72ZM435.551 74.67C435.641 73.53 436.211 72.75 436.811 72.27C437.711 71.55 438.701 71.43 439.781 71.43C440.771 71.43 442.001 71.52 442.901 72.33C443.321 72.69 443.921 73.44 443.981 74.67H435.551ZM443.891 79.02C443.681 80.01 443.111 80.52 442.541 80.79C441.791 81.15 440.591 81.21 439.811 81.21C438.791 81.21 437.351 81.09 436.451 80.19C435.941 79.68 435.461 78.78 435.461 77.46V77.37H449.411V76.83C449.411 75 449.231 72.54 447.341 70.65C445.271 68.58 442.121 68.19 439.751 68.19C437.351 68.19 434.441 68.52 432.341 70.56C430.331 72.51 430.061 75.06 430.061 76.62C430.061 78.51 430.421 80.58 432.161 82.32C434.111 84.27 436.721 84.57 440.171 84.57C442.631 84.57 444.461 84.39 445.901 83.76C447.971 82.83 449.021 80.97 449.201 79.02H443.891ZM471.284 77.22C471.284 78.84 470.834 79.77 470.204 80.4C469.274 81.33 468.194 81.45 467.234 81.45C466.604 81.45 465.794 81.42 465.224 80.97C464.864 80.7 464.594 80.22 464.594 79.68C464.594 78.96 465.044 78.57 465.314 78.39C465.824 78.06 466.574 77.94 467.444 77.85L468.554 77.73C470.054 77.58 470.684 77.49 471.284 76.98V77.22ZM465.044 73.68C465.074 72.75 465.644 72.24 465.914 72.03C466.634 71.52 467.834 71.49 468.194 71.49C468.884 71.49 469.724 71.61 470.294 71.91C471.074 72.33 471.254 72.93 471.254 73.41C471.254 73.77 471.134 74.16 470.894 74.4C470.444 74.88 469.514 74.94 468.104 75.06L465.704 75.27C464.114 75.42 461.564 75.6 460.124 76.98C459.284 77.79 458.984 78.84 458.984 79.98C458.984 81.96 459.944 83.04 460.754 83.61C462.044 84.48 463.994 84.57 465.494 84.57C466.634 84.57 467.924 84.51 469.124 84.12C470.114 83.79 470.864 83.31 471.494 82.5H471.614L471.944 84H477.704V83.58C477.194 83.49 476.954 83.13 476.864 82.98C476.834 82.89 476.624 82.5 476.624 81.15V74.37C476.624 73.11 476.594 71.52 475.334 70.2C473.624 68.4 470.234 68.19 468.104 68.19C465.374 68.19 462.884 68.43 461.174 70.11C460.274 71.01 459.704 72.18 459.704 73.68H465.044ZM480.644 68.76V84H485.924V77.01C485.924 75.21 486.374 73.71 487.154 72.87C487.634 72.36 488.504 71.79 489.914 71.79C490.964 71.79 491.654 72.12 492.044 72.51C492.824 73.26 492.944 74.52 492.944 75.75V84H498.224V74.58C498.224 72.75 497.984 70.65 496.004 69.36C495.614 69.09 494.114 68.25 491.234 68.25C490.334 68.25 489.044 68.34 487.844 68.94C487.004 69.36 486.254 69.99 485.714 70.62V68.76H480.644Z" fill="white"/>
<path d="M20.83 110.76V126H26.11V119.01C26.11 117.21 26.56 115.71 27.34 114.87C27.82 114.36 28.69 113.79 30.1 113.79C31.15 113.79 31.84 114.12 32.23 114.51C33.01 115.26 33.13 116.52 33.13 117.75V126H38.41V116.58C38.41 114.75 38.17 112.65 36.19 111.36C35.8 111.09 34.3 110.25 31.42 110.25C30.52 110.25 29.23 110.34 28.03 110.94C27.19 111.36 26.44 111.99 25.9 112.62V110.76H20.83ZM53.1395 110.76H49.1495V110.04C49.1495 109.65 49.2095 108.84 49.7795 108.36C50.1995 108 50.8895 107.85 51.5795 107.85C52.0295 107.85 52.6295 107.91 53.1095 108.03V104.94C51.9395 104.7 50.9795 104.61 49.7795 104.61C48.5195 104.61 46.4795 104.7 45.1895 105.96C44.5295 106.59 43.8695 107.7 43.8695 109.56V110.76H40.6595V114H43.8695V126H49.1495V114H53.1395V110.76ZM53.9603 114H57.2003V121.98C57.2003 122.91 57.2303 124.26 58.3103 125.28C59.4803 126.39 61.4003 126.45 62.4803 126.45C63.7703 126.45 64.7903 126.36 66.0803 125.97V122.67C65.5103 122.85 65.0003 122.91 64.5203 122.91C63.4103 122.91 62.9903 122.49 62.9003 122.4C62.4803 121.95 62.4803 121.23 62.4803 120.66V114H66.0203V110.76H62.4803V106.23H57.2003V110.76H53.9603V114ZM84.7966 113.61C85.7566 113.61 87.0766 113.79 88.0366 114.75C88.8166 115.56 89.2966 116.88 89.2966 118.38C89.2966 119.88 88.8166 121.2 88.0366 122.01C87.0766 122.97 85.7566 123.15 84.7966 123.15C83.8366 123.15 82.5166 122.97 81.5566 122.01C80.7766 121.2 80.2966 119.88 80.2966 118.38C80.2966 116.88 80.7766 115.56 81.5566 114.75C82.5166 113.79 83.8366 113.61 84.7966 113.61ZM94.7566 118.38C94.7566 116.37 94.3066 113.97 92.1166 112.2C89.8966 110.4 86.7766 110.19 84.7966 110.19C82.8166 110.19 79.6966 110.4 77.4766 112.2C75.2866 113.97 74.8366 116.37 74.8366 118.38C74.8366 120.39 75.2866 122.79 77.4766 124.56C79.6966 126.36 82.8166 126.57 84.7966 126.57C86.7766 126.57 89.8966 126.36 92.1166 124.56C94.3066 122.79 94.7566 120.39 94.7566 118.38ZM108.804 110.76H104.814V110.04C104.814 109.65 104.874 108.84 105.444 108.36C105.864 108 106.554 107.85 107.244 107.85C107.694 107.85 108.294 107.91 108.774 108.03V104.94C107.604 104.7 106.644 104.61 105.444 104.61C104.184 104.61 102.144 104.7 100.854 105.96C100.194 106.59 99.5336 107.7 99.5336 109.56V110.76H96.3236V114H99.5336V126H104.814V114H108.804V110.76ZM129.946 119.22C129.946 120.84 129.496 121.77 128.866 122.4C127.936 123.33 126.856 123.45 125.896 123.45C125.266 123.45 124.456 123.42 123.886 122.97C123.526 122.7 123.256 122.22 123.256 121.68C123.256 120.96 123.706 120.57 123.976 120.39C124.486 120.06 125.236 119.94 126.106 119.85L127.216 119.73C128.716 119.58 129.346 119.49 129.946 118.98V119.22ZM123.706 115.68C123.736 114.75 124.306 114.24 124.576 114.03C125.296 113.52 126.496 113.49 126.856 113.49C127.546 113.49 128.386 113.61 128.956 113.91C129.736 114.33 129.916 114.93 129.916 115.41C129.916 115.77 129.796 116.16 129.556 116.4C129.106 116.88 128.176 116.94 126.766 117.06L124.366 117.27C122.776 117.42 120.226 117.6 118.786 118.98C117.946 119.79 117.646 120.84 117.646 121.98C117.646 123.96 118.606 125.04 119.416 125.61C120.706 126.48 122.656 126.57 124.156 126.57C125.296 126.57 126.586 126.51 127.786 126.12C128.776 125.79 129.526 125.31 130.156 124.5H130.276L130.606 126H136.366V125.58C135.856 125.49 135.616 125.13 135.526 124.98C135.496 124.89 135.286 124.5 135.286 123.15V116.37C135.286 115.11 135.256 113.52 133.996 112.2C132.286 110.4 128.896 110.19 126.766 110.19C124.036 110.19 121.546 110.43 119.836 112.11C118.936 113.01 118.366 114.18 118.366 115.68H123.706ZM157.919 115.68L161.609 126H166.289L171.569 110.76H166.469L163.469 121.05L160.079 110.76H155.729L152.339 121.05L149.339 110.76H144.209L149.489 126H154.199L157.919 115.68ZM184.439 119.22C184.439 120.84 183.989 121.77 183.359 122.4C182.429 123.33 181.349 123.45 180.389 123.45C179.759 123.45 178.949 123.42 178.379 122.97C178.019 122.7 177.749 122.22 177.749 121.68C177.749 120.96 178.199 120.57 178.469 120.39C178.979 120.06 179.729 119.94 180.599 119.85L181.709 119.73C183.209 119.58 183.839 119.49 184.439 118.98V119.22ZM178.199 115.68C178.229 114.75 178.799 114.24 179.069 114.03C179.789 113.52 180.989 113.49 181.349 113.49C182.039 113.49 182.879 113.61 183.449 113.91C184.229 114.33 184.409 114.93 184.409 115.41C184.409 115.77 184.289 116.16 184.049 116.4C183.599 116.88 182.669 116.94 181.259 117.06L178.859 117.27C177.269 117.42 174.719 117.6 173.279 118.98C172.439 119.79 172.139 120.84 172.139 121.98C172.139 123.96 173.099 125.04 173.909 125.61C175.199 126.48 177.149 126.57 178.649 126.57C179.789 126.57 181.079 126.51 182.279 126.12C183.269 125.79 184.019 125.31 184.649 124.5H184.769L185.099 126H190.859V125.58C190.349 125.49 190.109 125.13 190.019 124.98C189.989 124.89 189.779 124.5 189.779 123.15V116.37C189.779 115.11 189.749 113.52 188.489 112.2C186.779 110.4 183.389 110.19 181.259 110.19C178.529 110.19 176.039 110.43 174.329 112.11C173.429 113.01 172.859 114.18 172.859 115.68H178.199ZM192.359 114H195.599V121.98C195.599 122.91 195.629 124.26 196.709 125.28C197.879 126.39 199.799 126.45 200.879 126.45C202.169 126.45 203.189 126.36 204.479 125.97V122.67C203.909 122.85 203.399 122.91 202.919 122.91C201.809 122.91 201.389 122.49 201.299 122.4C200.879 121.95 200.879 121.23 200.879 120.66V114H204.419V110.76H200.879V106.23H195.599V110.76H192.359V114ZM211.723 116.67C211.813 115.53 212.383 114.75 212.983 114.27C213.883 113.55 214.873 113.43 215.953 113.43C216.943 113.43 218.173 113.52 219.073 114.33C219.493 114.69 220.093 115.44 220.153 116.67H211.723ZM220.063 121.02C219.853 122.01 219.283 122.52 218.713 122.79C217.963 123.15 216.763 123.21 215.983 123.21C214.963 123.21 213.523 123.09 212.623 122.19C212.113 121.68 211.633 120.78 211.633 119.46V119.37H225.583V118.83C225.583 117 225.403 114.54 223.513 112.65C221.443 110.58 218.293 110.19 215.923 110.19C213.523 110.19 210.613 110.52 208.513 112.56C206.503 114.51 206.233 117.06 206.233 118.62C206.233 120.51 206.593 122.58 208.333 124.32C210.283 126.27 212.893 126.57 216.343 126.57C218.803 126.57 220.633 126.39 222.073 125.76C224.143 124.83 225.193 122.97 225.373 121.02H220.063ZM240.484 110.52C240.004 110.43 239.584 110.4 239.104 110.4C237.994 110.4 236.944 110.58 235.954 111.09C234.754 111.72 234.034 112.59 233.644 113.25V110.76H228.574V126H233.854V120.27C233.854 119.13 234.034 116.28 236.014 114.93C236.794 114.39 237.904 114.09 239.374 114.09C239.764 114.09 240.214 114.12 240.484 114.15V110.52ZM259.116 113.64C260.826 113.64 261.786 114.36 262.266 114.93C263.076 115.89 263.316 117.3 263.316 118.38C263.316 119.49 262.986 121.02 262.086 121.98C261.546 122.55 260.616 123.12 259.086 123.12C257.916 123.12 256.986 122.76 256.206 122.04C255.066 120.96 254.856 119.58 254.856 118.44C254.856 116.7 255.486 115.41 256.266 114.69C256.746 114.24 257.616 113.64 259.116 113.64ZM254.766 124.2H254.886C255.276 124.8 255.846 125.4 256.506 125.76C257.646 126.39 259.116 126.48 260.526 126.48C262.566 126.48 264.936 126.36 266.766 124.44C268.056 123.09 268.836 120.9 268.836 118.14C268.836 116.25 268.506 114.03 266.616 112.26C264.726 110.52 262.356 110.28 260.556 110.28C259.326 110.28 258.246 110.4 257.136 110.88C256.266 111.24 255.606 111.72 255.006 112.5V105H249.726V126H254.766V124.2ZM281.086 113.61C282.046 113.61 283.366 113.79 284.326 114.75C285.106 115.56 285.586 116.88 285.586 118.38C285.586 119.88 285.106 121.2 284.326 122.01C283.366 122.97 282.046 123.15 281.086 123.15C280.126 123.15 278.806 122.97 277.846 122.01C277.066 121.2 276.586 119.88 276.586 118.38C276.586 116.88 277.066 115.56 277.846 114.75C278.806 113.79 280.126 113.61 281.086 113.61ZM291.046 118.38C291.046 116.37 290.596 113.97 288.406 112.2C286.186 110.4 283.066 110.19 281.086 110.19C279.106 110.19 275.986 110.4 273.766 112.2C271.576 113.97 271.126 116.37 271.126 118.38C271.126 120.39 271.576 122.79 273.766 124.56C275.986 126.36 279.106 126.57 281.086 126.57C283.066 126.57 286.186 126.36 288.406 124.56C290.596 122.79 291.046 120.39 291.046 118.38ZM292.613 114H295.853V121.98C295.853 122.91 295.883 124.26 296.963 125.28C298.133 126.39 300.053 126.45 301.133 126.45C302.423 126.45 303.443 126.36 304.733 125.97V122.67C304.163 122.85 303.653 122.91 303.173 122.91C302.063 122.91 301.643 122.49 301.553 122.4C301.133 121.95 301.133 121.23 301.133 120.66V114H304.673V110.76H301.133V106.23H295.853V110.76H292.613V114ZM305.767 114H309.007V121.98C309.007 122.91 309.037 124.26 310.117 125.28C311.287 126.39 313.207 126.45 314.287 126.45C315.577 126.45 316.597 126.36 317.887 125.97V122.67C317.317 122.85 316.807 122.91 316.327 122.91C315.217 122.91 314.797 122.49 314.707 122.4C314.287 121.95 314.287 121.23 314.287 120.66V114H317.827V110.76H314.287V106.23H309.007V110.76H305.767V114ZM320.361 105V126H325.641V105H320.361ZM334.184 116.67C334.274 115.53 334.844 114.75 335.444 114.27C336.344 113.55 337.334 113.43 338.414 113.43C339.404 113.43 340.634 113.52 341.534 114.33C341.954 114.69 342.554 115.44 342.614 116.67H334.184ZM342.524 121.02C342.314 122.01 341.744 122.52 341.174 122.79C340.424 123.15 339.224 123.21 338.444 123.21C337.424 123.21 335.984 123.09 335.084 122.19C334.574 121.68 334.094 120.78 334.094 119.46V119.37H348.044V118.83C348.044 117 347.864 114.54 345.974 112.65C343.904 110.58 340.754 110.19 338.384 110.19C335.984 110.19 333.074 110.52 330.974 112.56C328.964 114.51 328.694 117.06 328.694 118.62C328.694 120.51 329.054 122.58 330.794 124.32C332.744 126.27 335.354 126.57 338.804 126.57C341.264 126.57 343.094 126.39 344.534 125.76C346.604 124.83 347.654 122.97 347.834 121.02H342.524Z" fill="black"/>
</g>
<defs>
<filter id="filter0_d_2_3" x="0.409912" y="0.609863" width="538.664" height="145.96" filterUnits="userSpaceOnUse" color-interpolation-filters="sRGB">
<feFlood flood-opacity="0" result="BackgroundImageFix"/>
<feColorMatrix in="SourceAlpha" type="matrix" values="0 0 0 0 0 0 0 0 0 0 0 0 0 0 0 0 0 0 127 0" result="hardAlpha"/>
<feOffset/>
<feGaussianBlur stdDeviation="10"/>
<feComposite in2="hardAlpha" operator="out"/>
<feColorMatrix type="matrix" values="0 0 0 0 1 0 0 0 0 1 0 0 0 0 1 0 0 0 0.7 0"/>
<feBlend mode="normal" in2="BackgroundImageFix" result="effect1_dropShadow_2_3"/>
<feBlend mode="normal" in="SourceGraphic" in2="effect1_dropShadow_2_3" result="shape"/>
</filter>
</defs>
</svg>
