<svg width="217" height="72" viewBox="0 0 217 72" fill="none" xmlns="http://www.w3.org/2000/svg">
<g filter="url(#filter0_d_2376_3449)">
<path d="M27.1212 34.64H33.8762C34.4712 34.64 36.1162 34.675 36.9212 35.165C37.4812 35.48 38.1462 36.215 38.1462 37.545C38.1462 38.805 37.5162 39.575 36.9212 39.925C36.8162 39.995 36.0462 40.45 33.9812 40.45H27.1212V34.64ZM27.1212 25.05H33.2462C34.3662 25.05 35.4512 25.085 36.1862 25.575C36.6762 25.925 37.1662 26.52 37.1662 27.535C37.1662 28.55 36.7462 29.18 36.3612 29.495C35.5912 30.16 34.4012 30.23 32.8962 30.23H27.1212V25.05ZM20.6812 20.5V45H35.0662C37.7262 45 41.3312 44.86 43.2562 43.075C44.2712 42.13 45.0762 40.485 45.0762 38.28C45.0762 37.055 44.8662 35.41 43.5712 34.115C42.4512 32.995 40.5262 32.33 38.9512 32.19V32.05C39.1262 32.015 41.0512 31.77 42.3112 30.545C43.0112 29.88 43.7812 28.62 43.7812 26.695C43.7812 23.58 41.9612 22.145 41.4012 21.76C39.6862 20.605 37.2712 20.5 34.8212 20.5H20.6812ZM62.9494 45H68.6894V27.22H62.5294V35.795C62.5294 37.265 62.4244 39.015 61.3044 40.24C60.3594 41.255 59.0994 41.43 58.1894 41.43C56.7544 41.43 55.9144 40.975 55.4594 40.52C54.4794 39.575 54.4444 38.07 54.4444 37.055V27.22H48.2844V38.175C48.2844 39.645 48.3894 42.2 50.1394 43.845C51.7494 45.35 54.4094 45.56 55.9844 45.56C57.9794 45.56 59.2744 45.315 60.1494 44.93C61.6544 44.3 62.5644 43.11 62.8094 42.795H62.9494V45ZM73.6465 51.195C74.9415 51.615 75.8515 51.685 77.1815 51.685C78.9315 51.685 80.7165 51.545 82.2915 50.04C83.4815 48.92 84.2165 47.135 84.9865 45.315L92.5465 27.22H86.7715L82.6415 39.085L77.9165 27.22H71.7215L79.2815 43.915L78.9315 44.965C78.6865 45.665 78.1615 46.645 77.6015 47.1C77.0765 47.52 76.2715 47.695 75.5015 47.695C75.2565 47.695 74.5215 47.66 73.6465 47.38V51.195ZM109.698 25.4V45H116.138V25.4H124.678V20.5H101.158V25.4H109.698ZM132.351 35.83L136.061 26.66L139.841 35.83H132.351ZM130.776 40.03H141.381L143.516 45H150.236L139.246 20.5H132.911L121.921 45H128.641L130.776 40.03ZM158.952 25.4H165.147C167.177 25.4 168.052 25.925 168.297 26.1C168.997 26.59 169.487 27.395 169.487 28.62C169.487 29.74 169.102 30.65 168.577 31.14C167.702 31.98 165.987 32.155 164.762 32.155H158.952V25.4ZM152.512 20.5V45H158.952V36.915H165.217C168.752 36.915 171.902 36.775 174.142 34.36C175.787 32.575 176.137 30.51 176.137 28.55C176.137 26.66 175.752 24.455 173.862 22.705C171.727 20.71 168.962 20.5 165.637 20.5H152.512ZM177.119 39.4V39.47C177.119 40.415 177.259 42.13 178.764 43.6C180.689 45.455 183.839 45.7 187.549 45.7C190.524 45.7 193.464 45.56 195.389 43.495C196.264 42.55 196.824 41.325 196.824 39.715C196.824 37.86 196.019 36.705 195.109 35.97C193.814 34.92 191.574 34.5 190.384 34.325L188.004 33.975C186.219 33.695 185.204 33.625 184.399 33.275C184.014 33.1 183.349 32.75 183.349 31.98C183.349 31.49 183.664 30.895 184.364 30.545C184.924 30.265 185.904 30.16 186.674 30.16C187.409 30.16 188.424 30.265 189.089 30.58C189.824 30.93 190.104 31.455 190.104 32.05V32.12H195.984C195.949 30.02 195.144 28.48 192.904 27.465C192.169 27.15 190.524 26.52 186.639 26.52C183.244 26.52 181.284 27.045 179.989 27.815C178.239 28.83 177.294 30.265 177.294 32.4C177.294 33.765 177.679 35.235 179.219 36.18C179.989 36.67 181.214 37.055 184.084 37.475L186.184 37.79C187.444 37.965 188.354 38.07 189.194 38.385C189.754 38.595 190.524 38.98 190.524 39.96C190.524 40.31 190.384 40.94 189.544 41.36C189.159 41.57 188.459 41.78 187.059 41.78C185.204 41.78 184.504 41.43 184.294 41.325C183.769 41.045 183.139 40.485 183.139 39.505V39.4H177.119Z" fill="white"/>
</g>
<defs>
<filter id="filter0_d_2376_3449" x="0.681641" y="0.5" width="216.143" height="71.1851" filterUnits="userSpaceOnUse" color-interpolation-filters="sRGB">
<feFlood flood-opacity="0" result="BackgroundImageFix"/>
<feColorMatrix in="SourceAlpha" type="matrix" values="0 0 0 0 0 0 0 0 0 0 0 0 0 0 0 0 0 0 127 0" result="hardAlpha"/>
<feOffset/>
<feGaussianBlur stdDeviation="10"/>
<feComposite in2="hardAlpha" operator="out"/>
<feColorMatrix type="matrix" values="0 0 0 0 1 0 0 0 0 1 0 0 0 0 1 0 0 0 0.7 0"/>
<feBlend mode="normal" in2="BackgroundImageFix" result="effect1_dropShadow_2376_3449"/>
<feBlend mode="normal" in="SourceGraphic" in2="effect1_dropShadow_2376_3449" result="shape"/>
</filter>
</defs>
</svg>
