<svg width="602" height="72" viewBox="0 0 602 72" fill="none" xmlns="http://www.w3.org/2000/svg">
<g filter="url(#filter0_d_2363_1963)">
<path d="M27.2452 30.23V25.4H43.1352V20.5H20.8052V45H43.5202V40.1H27.2452V34.85H40.6852V30.23H27.2452ZM56.1568 33.03L51.9218 27.22H44.6418L52.1318 35.865L44.3618 45H51.1868L55.5268 39.155L59.9718 45H67.2868L59.5518 35.795L67.0068 27.22H60.2168L56.1568 33.03ZM80.3514 30.58C82.0664 30.58 83.2214 31.175 83.9914 32.05C84.7964 32.96 85.2864 34.36 85.2864 36.075C85.2864 36.705 85.2164 38.77 83.9914 40.205C83.0114 41.36 81.8564 41.64 80.4564 41.64C78.6014 41.64 77.4814 40.94 76.8164 40.275C75.8364 39.26 75.4164 37.615 75.4164 36.18C75.4164 34.605 75.9414 32.995 76.9214 31.945C77.9714 30.825 79.2314 30.58 80.3514 30.58ZM69.4314 27.22V51.475H75.5914V43.11C76.1514 43.845 77.0264 44.58 77.9714 44.965C78.5314 45.21 79.6514 45.56 82.0664 45.56C84.2714 45.56 86.8964 45.385 89.0664 43.285C91.2714 41.115 91.6564 38.175 91.6564 35.97C91.6564 33.835 91.3064 31 89.0664 28.9C86.9664 26.905 84.3764 26.66 82.1364 26.66C80.8764 26.66 79.1964 26.765 77.7264 27.5C76.9214 27.92 76.0814 28.585 75.4164 29.46H75.3114V27.22H69.4314ZM95.1687 20.5V45H101.329V20.5H95.1687ZM116.51 30.545C117.63 30.545 119.17 30.755 120.29 31.875C121.2 32.82 121.76 34.36 121.76 36.11C121.76 37.86 121.2 39.4 120.29 40.345C119.17 41.465 117.63 41.675 116.51 41.675C115.39 41.675 113.85 41.465 112.73 40.345C111.82 39.4 111.26 37.86 111.26 36.11C111.26 34.36 111.82 32.82 112.73 31.875C113.85 30.755 115.39 30.545 116.51 30.545ZM128.13 36.11C128.13 33.765 127.605 30.965 125.05 28.9C122.46 26.8 118.82 26.555 116.51 26.555C114.2 26.555 110.56 26.8 107.97 28.9C105.415 30.965 104.89 33.765 104.89 36.11C104.89 38.455 105.415 41.255 107.97 43.32C110.56 45.42 114.2 45.665 116.51 45.665C118.82 45.665 122.46 45.42 125.05 43.32C127.605 41.255 128.13 38.455 128.13 36.11ZM145.533 26.94C144.973 26.835 144.483 26.8 143.923 26.8C142.628 26.8 141.403 27.01 140.248 27.605C138.848 28.34 138.008 29.355 137.553 30.125V27.22H131.638V45H137.798V38.315C137.798 36.985 138.008 33.66 140.318 32.085C141.228 31.455 142.523 31.105 144.238 31.105C144.693 31.105 145.218 31.14 145.533 31.175V26.94ZM153.097 34.115C153.202 32.785 153.867 31.875 154.567 31.315C155.617 30.475 156.772 30.335 158.032 30.335C159.187 30.335 160.622 30.44 161.672 31.385C162.162 31.805 162.862 32.68 162.932 34.115H153.097ZM162.827 39.19C162.582 40.345 161.917 40.94 161.252 41.255C160.377 41.675 158.977 41.745 158.067 41.745C156.877 41.745 155.197 41.605 154.147 40.555C153.552 39.96 152.992 38.91 152.992 37.37V37.265H169.267V36.635C169.267 34.5 169.057 31.63 166.852 29.425C164.437 27.01 160.762 26.555 157.997 26.555C155.197 26.555 151.802 26.94 149.352 29.32C147.007 31.595 146.692 34.57 146.692 36.39C146.692 38.595 147.112 41.01 149.142 43.04C151.417 45.315 154.462 45.665 158.487 45.665C161.357 45.665 163.492 45.455 165.172 44.72C167.587 43.635 168.812 41.465 169.022 39.19H162.827ZM179.246 31H183.026V40.31C183.026 41.395 183.061 42.97 184.321 44.16C185.686 45.455 187.926 45.525 189.186 45.525C190.691 45.525 191.881 45.42 193.386 44.965V41.115C192.721 41.325 192.126 41.395 191.566 41.395C190.271 41.395 189.781 40.905 189.676 40.8C189.186 40.275 189.186 39.435 189.186 38.77V31H193.316V27.22H189.186V21.935H183.026V27.22H179.246V31ZM196.272 20.5V45H202.432V36.95C202.432 35.41 202.537 33.38 203.762 32.015C204.637 31.035 205.722 30.755 206.912 30.755C208.312 30.755 209.187 31.21 209.677 31.735C210.622 32.75 210.622 34.465 210.622 35.375V45H216.782V34.29C216.782 32.33 216.747 29.46 214.122 27.815C212.827 27.01 210.902 26.625 208.907 26.625C207.997 26.625 206.212 26.695 204.777 27.325C203.727 27.78 202.992 28.41 202.432 29.145V20.5H196.272ZM226.652 34.115C226.757 32.785 227.422 31.875 228.122 31.315C229.172 30.475 230.327 30.335 231.587 30.335C232.742 30.335 234.177 30.44 235.227 31.385C235.717 31.805 236.417 32.68 236.487 34.115H226.652ZM236.382 39.19C236.137 40.345 235.472 40.94 234.807 41.255C233.932 41.675 232.532 41.745 231.622 41.745C230.432 41.745 228.752 41.605 227.702 40.555C227.107 39.96 226.547 38.91 226.547 37.37V37.265H242.822V36.635C242.822 34.5 242.612 31.63 240.407 29.425C237.992 27.01 234.317 26.555 231.552 26.555C228.752 26.555 225.357 26.94 222.907 29.32C220.562 31.595 220.247 34.57 220.247 36.39C220.247 38.595 220.667 41.01 222.697 43.04C224.972 45.315 228.017 45.665 232.042 45.665C234.912 45.665 237.047 45.455 238.727 44.72C241.142 43.635 242.367 41.465 242.577 39.19H236.382ZM253.395 39.4V39.47C253.395 40.415 253.535 42.13 255.04 43.6C256.965 45.455 260.115 45.7 263.825 45.7C266.8 45.7 269.74 45.56 271.665 43.495C272.54 42.55 273.1 41.325 273.1 39.715C273.1 37.86 272.295 36.705 271.385 35.97C270.09 34.92 267.85 34.5 266.66 34.325L264.28 33.975C262.495 33.695 261.48 33.625 260.675 33.275C260.29 33.1 259.625 32.75 259.625 31.98C259.625 31.49 259.94 30.895 260.64 30.545C261.2 30.265 262.18 30.16 262.95 30.16C263.685 30.16 264.7 30.265 265.365 30.58C266.1 30.93 266.38 31.455 266.38 32.05V32.12H272.26C272.225 30.02 271.42 28.48 269.18 27.465C268.445 27.15 266.8 26.52 262.915 26.52C259.52 26.52 257.56 27.045 256.265 27.815C254.515 28.83 253.57 30.265 253.57 32.4C253.57 33.765 253.955 35.235 255.495 36.18C256.265 36.67 257.49 37.055 260.36 37.475L262.46 37.79C263.72 37.965 264.63 38.07 265.47 38.385C266.03 38.595 266.8 38.98 266.8 39.96C266.8 40.31 266.66 40.94 265.82 41.36C265.435 41.57 264.735 41.78 263.335 41.78C261.48 41.78 260.78 41.43 260.57 41.325C260.045 41.045 259.415 40.485 259.415 39.505V39.4H253.395ZM274.675 31H278.455V40.31C278.455 41.395 278.49 42.97 279.75 44.16C281.115 45.455 283.355 45.525 284.615 45.525C286.12 45.525 287.31 45.42 288.815 44.965V41.115C288.15 41.325 287.555 41.395 286.995 41.395C285.7 41.395 285.21 40.905 285.105 40.8C284.615 40.275 284.615 39.435 284.615 38.77V31H288.745V27.22H284.615V21.935H278.455V27.22H274.675V31ZM305.767 37.09C305.767 38.98 305.242 40.065 304.507 40.8C303.422 41.885 302.162 42.025 301.042 42.025C300.307 42.025 299.362 41.99 298.697 41.465C298.277 41.15 297.962 40.59 297.962 39.96C297.962 39.12 298.487 38.665 298.802 38.455C299.397 38.07 300.272 37.93 301.287 37.825L302.582 37.685C304.332 37.51 305.067 37.405 305.767 36.81V37.09ZM298.487 32.96C298.522 31.875 299.187 31.28 299.502 31.035C300.342 30.44 301.742 30.405 302.162 30.405C302.967 30.405 303.947 30.545 304.612 30.895C305.522 31.385 305.732 32.085 305.732 32.645C305.732 33.065 305.592 33.52 305.312 33.8C304.787 34.36 303.702 34.43 302.057 34.57L299.257 34.815C297.402 34.99 294.427 35.2 292.747 36.81C291.767 37.755 291.417 38.98 291.417 40.31C291.417 42.62 292.537 43.88 293.482 44.545C294.987 45.56 297.262 45.665 299.012 45.665C300.342 45.665 301.847 45.595 303.247 45.14C304.402 44.755 305.277 44.195 306.012 43.25H306.152L306.537 45H313.257V44.51C312.662 44.405 312.382 43.985 312.277 43.81C312.242 43.705 311.997 43.25 311.997 41.675V33.765C311.997 32.295 311.962 30.44 310.492 28.9C308.497 26.8 304.542 26.555 302.057 26.555C298.872 26.555 295.967 26.835 293.972 28.795C292.922 29.845 292.257 31.21 292.257 32.96H298.487ZM330.582 26.94C330.022 26.835 329.532 26.8 328.972 26.8C327.677 26.8 326.452 27.01 325.297 27.605C323.897 28.34 323.057 29.355 322.602 30.125V27.22H316.687V45H322.847V38.315C322.847 36.985 323.057 33.66 325.367 32.085C326.277 31.455 327.572 31.105 329.287 31.105C329.742 31.105 330.267 31.14 330.582 31.175V26.94ZM342.551 39.89L338.071 27.22H331.806L339.401 45H345.701L353.401 27.22H347.241L342.551 39.89ZM355.174 24.385H361.334V20.255H355.174V24.385ZM355.174 27.22V45H361.334V27.22H355.174ZM365.735 27.22V45H371.895V36.845C371.895 34.745 372.42 32.995 373.33 32.015C373.89 31.42 374.905 30.755 376.55 30.755C377.775 30.755 378.58 31.14 379.035 31.595C379.945 32.47 380.085 33.94 380.085 35.375V45H386.245V34.01C386.245 31.875 385.965 29.425 383.655 27.92C383.2 27.605 381.45 26.625 378.09 26.625C377.04 26.625 375.535 26.73 374.135 27.43C373.155 27.92 372.28 28.655 371.65 29.39V27.22H365.735ZM396.185 35.935C396.185 33.905 396.92 32.54 397.725 31.735C398.6 30.86 399.615 30.51 400.805 30.51C402.31 30.51 403.5 31.07 404.235 31.84C405.145 32.82 405.565 34.5 405.565 35.83C405.565 37.055 405.215 38.735 404.235 39.75C403.29 40.73 402.065 40.94 400.98 40.94C399.965 40.94 398.53 40.765 397.48 39.645C396.64 38.77 396.185 37.44 396.185 35.935ZM391.075 46.085C391.11 47.625 391.6 49.48 393.77 50.67C394.365 50.985 396.15 51.86 400.455 51.86C404.34 51.86 407.455 51.44 409.31 49.585C411.41 47.485 411.48 44.055 411.48 42.83V27.22H405.67V29.285H405.495C405.005 28.585 404.305 27.85 403.22 27.36C402.38 26.975 401.155 26.66 399.265 26.66C397.06 26.66 394.4 27.08 392.335 29.145C391.04 30.475 389.815 32.645 389.815 36.215C389.815 38.42 390.27 40.59 392.195 42.41C394.225 44.3 396.5 44.65 399.02 44.65C401.085 44.65 402.31 44.405 403.115 44.055C403.64 43.81 404.48 43.355 405.18 42.41H405.32V43.74C405.32 44.615 405.25 46.155 404.235 47.1C403.22 48.045 401.47 48.08 400.91 48.08C400.14 48.08 399.055 47.975 398.39 47.66C397.48 47.205 397.27 46.54 397.235 46.085H391.075ZM444.731 33.52C444.696 31.98 444.276 29.67 441.511 28.06C440.496 27.465 438.361 26.555 434.196 26.555C431.501 26.555 427.966 26.975 425.586 29.495C424.431 30.72 423.206 32.855 423.206 36.39C423.206 40.275 424.746 42.27 425.621 43.145C427.966 45.49 431.501 45.665 434.371 45.665C437.591 45.665 440.776 45.49 442.911 43.285C443.786 42.375 444.801 40.765 444.801 38.42V38.315H438.851C438.816 39.505 438.256 40.45 437.521 40.975C436.646 41.605 435.421 41.675 434.616 41.675C433.461 41.675 432.061 41.535 431.011 40.485C430.206 39.68 429.576 38.28 429.576 36.285C429.576 35.655 429.611 33.45 430.906 31.98C431.886 30.86 433.216 30.545 434.581 30.545C435.561 30.545 436.681 30.72 437.486 31.21C438.641 31.945 438.781 32.995 438.816 33.52H444.731ZM448.211 20.5V45H454.371V36.95C454.371 35.41 454.476 33.38 455.701 32.015C456.576 31.035 457.661 30.755 458.851 30.755C460.251 30.755 461.126 31.21 461.616 31.735C462.561 32.75 462.561 34.465 462.561 35.375V45H468.721V34.29C468.721 32.33 468.686 29.46 466.061 27.815C464.766 27.01 462.841 26.625 460.846 26.625C459.936 26.625 458.151 26.695 456.716 27.325C455.666 27.78 454.931 28.41 454.371 29.145V20.5H448.211ZM473.025 24.385H479.185V20.255H473.025V24.385ZM473.025 27.22V45H479.185V27.22H473.025ZM483.587 20.5V45H489.747V20.5H483.587ZM504.613 30.58C505.628 30.58 507.273 30.79 508.428 32.225C509.233 33.24 509.618 34.78 509.618 36.075C509.618 37.615 509.128 39.33 508.043 40.415C507.028 41.43 505.873 41.64 504.683 41.64C503.423 41.64 502.198 41.395 501.183 40.31C500.203 39.26 499.748 37.615 499.748 36.11C499.748 34.57 500.098 33.1 500.973 32.085C502.023 30.86 503.423 30.58 504.613 30.58ZM509.723 42.9V45H515.603V20.5H509.443V29.25C508.883 28.41 508.253 27.885 507.203 27.43C505.803 26.8 504.683 26.66 503.073 26.66C501.078 26.66 498.348 26.835 496.073 28.97C494.708 30.265 493.308 32.505 493.308 36.18C493.308 39.26 494.253 41.64 495.688 43.145C497.823 45.385 500.483 45.56 502.863 45.56C504.473 45.56 505.943 45.49 507.238 44.93C508.463 44.405 509.128 43.67 509.583 42.9H509.723ZM533.917 26.94C533.357 26.835 532.867 26.8 532.307 26.8C531.012 26.8 529.787 27.01 528.632 27.605C527.232 28.34 526.392 29.355 525.937 30.125V27.22H520.022V45H526.182V38.315C526.182 36.985 526.392 33.66 528.702 32.085C529.612 31.455 530.907 31.105 532.622 31.105C533.077 31.105 533.602 31.14 533.917 31.175V26.94ZM541.481 34.115C541.586 32.785 542.251 31.875 542.951 31.315C544.001 30.475 545.156 30.335 546.416 30.335C547.571 30.335 549.006 30.44 550.056 31.385C550.546 31.805 551.246 32.68 551.316 34.115H541.481ZM551.211 39.19C550.966 40.345 550.301 40.94 549.636 41.255C548.761 41.675 547.361 41.745 546.451 41.745C545.261 41.745 543.581 41.605 542.531 40.555C541.936 39.96 541.376 38.91 541.376 37.37V37.265H557.651V36.635C557.651 34.5 557.441 31.63 555.236 29.425C552.821 27.01 549.146 26.555 546.381 26.555C543.581 26.555 540.186 26.94 537.736 29.32C535.391 31.595 535.076 34.57 535.076 36.39C535.076 38.595 535.496 41.01 537.526 43.04C539.801 45.315 542.846 45.665 546.871 45.665C549.741 45.665 551.876 45.455 553.556 44.72C555.971 43.635 557.196 41.465 557.406 39.19H551.211ZM561.14 27.22V45H567.3V36.845C567.3 34.745 567.825 32.995 568.735 32.015C569.295 31.42 570.31 30.755 571.955 30.755C573.18 30.755 573.985 31.14 574.44 31.595C575.35 32.47 575.49 33.94 575.49 35.375V45H581.65V34.01C581.65 31.875 581.37 29.425 579.06 27.92C578.605 27.605 576.855 26.625 573.495 26.625C572.445 26.625 570.94 26.73 569.54 27.43C568.56 27.92 567.685 28.655 567.055 29.39V27.22H561.14Z" fill="white"/>
</g>
<defs>
<filter id="filter0_d_2363_1963" x="0.804688" y="0.255005" width="600.846" height="71.605" filterUnits="userSpaceOnUse" color-interpolation-filters="sRGB">
<feFlood flood-opacity="0" result="BackgroundImageFix"/>
<feColorMatrix in="SourceAlpha" type="matrix" values="0 0 0 0 0 0 0 0 0 0 0 0 0 0 0 0 0 0 127 0" result="hardAlpha"/>
<feOffset/>
<feGaussianBlur stdDeviation="10"/>
<feComposite in2="hardAlpha" operator="out"/>
<feColorMatrix type="matrix" values="0 0 0 0 1 0 0 0 0 1 0 0 0 0 1 0 0 0 0.7 0"/>
<feBlend mode="normal" in2="BackgroundImageFix" result="effect1_dropShadow_2363_1963"/>
<feBlend mode="normal" in="SourceGraphic" in2="effect1_dropShadow_2363_1963" result="shape"/>
</filter>
</defs>
</svg>
