<svg width="184" height="50" viewBox="0 0 184 50" fill="none" xmlns="http://www.w3.org/2000/svg">
<g filter="url(#filter0_d_2_3)">
<path d="M65.3975 23.3468V19.0054H77.5648V15.0068H60.1421V35H65.3975V27.117H75.3941V23.3468H65.3975ZM89.8243 28.545C89.8243 30.0874 89.3958 30.9728 88.796 31.5726C87.9106 32.458 86.8824 32.5723 85.9684 32.5723C85.3686 32.5723 84.5975 32.5437 84.0548 32.1153C83.712 31.8582 83.455 31.4012 83.455 30.8871C83.455 30.2016 83.8834 29.8303 84.1405 29.659C84.626 29.3448 85.3401 29.2305 86.1683 29.1448L87.2251 29.0306C88.6532 28.8878 89.253 28.8021 89.8243 28.3166V28.545ZM83.8834 25.1748C83.912 24.2893 84.4546 23.8038 84.7117 23.6039C85.3972 23.1183 86.5397 23.0898 86.8824 23.0898C87.5393 23.0898 88.339 23.204 88.8817 23.4896C89.6243 23.8895 89.7957 24.4607 89.7957 24.9177C89.7957 25.2604 89.6814 25.6317 89.453 25.8602C89.0245 26.3172 88.1391 26.3744 86.7967 26.4886L84.5118 26.6885C82.998 26.8313 80.5702 27.0027 79.1993 28.3166C78.3996 29.0877 78.1139 30.0874 78.1139 31.1727C78.1139 33.0578 79.0279 34.086 79.7991 34.6287C81.0272 35.457 82.8837 35.5427 84.3118 35.5427C85.3972 35.5427 86.6253 35.4855 87.7678 35.1142C88.7103 34.8001 89.4244 34.3431 90.0242 33.5719H90.1384L90.4526 35H95.9365V34.6001C95.4509 34.5145 95.2224 34.1717 95.1367 34.0289C95.1082 33.9432 94.9082 33.5719 94.9082 32.2866V25.8317C94.9082 24.6321 94.8797 23.1183 93.6801 21.8616C92.0521 20.1479 88.8246 19.948 86.7967 19.948C84.1976 19.948 81.827 20.1765 80.1989 21.7759C79.3421 22.6328 78.7994 23.7467 78.7994 25.1748H83.8834ZM110.617 35H115.302V20.4906H110.275V27.4883C110.275 28.6879 110.189 30.1159 109.275 31.1156C108.504 31.9439 107.476 32.0867 106.733 32.0867C105.562 32.0867 104.877 31.7154 104.505 31.3441C103.705 30.5729 103.677 29.3448 103.677 28.5165V20.4906H98.6501V29.4305C98.6501 30.6301 98.7357 32.7151 100.164 34.0575C101.478 35.2856 103.648 35.457 104.934 35.457C106.562 35.457 107.618 35.2571 108.332 34.9429C109.561 34.4288 110.303 33.4577 110.503 33.2006H110.617V35ZM135.782 25.6317C135.753 24.375 135.411 22.49 133.154 21.1761C132.326 20.6906 130.584 19.948 127.185 19.948C124.986 19.948 122.101 20.2907 120.159 22.3471C119.216 23.3468 118.216 25.0891 118.216 27.9738C118.216 31.1442 119.473 32.7722 120.187 33.4862C122.101 35.3999 124.986 35.5427 127.328 35.5427C129.955 35.5427 132.554 35.3999 134.297 33.6005C135.011 32.8579 135.839 31.544 135.839 29.6304V29.5447H130.984C130.955 30.5158 130.498 31.287 129.898 31.7154C129.184 32.2295 128.184 32.2866 127.528 32.2866C126.585 32.2866 125.443 32.1724 124.586 31.3155C123.929 30.6586 123.415 29.5161 123.415 27.8881C123.415 27.374 123.443 25.5746 124.5 24.375C125.3 23.4611 126.385 23.204 127.499 23.204C128.299 23.204 129.213 23.3468 129.87 23.7467C130.812 24.3465 130.926 25.2033 130.955 25.6317H135.782ZM143.163 26.1173C143.249 25.032 143.791 24.2893 144.363 23.8324C145.22 23.1469 146.162 23.0326 147.19 23.0326C148.133 23.0326 149.304 23.1183 150.161 23.8895C150.561 24.2322 151.132 24.9463 151.189 26.1173H143.163ZM151.103 30.2588C150.903 31.2013 150.361 31.6868 149.818 31.9439C149.104 32.2866 147.961 32.3438 147.219 32.3438C146.248 32.3438 144.877 32.2295 144.02 31.3727C143.534 30.8871 143.077 30.0303 143.077 28.7735V28.6879H156.359V28.1737C156.359 26.4315 156.187 24.0894 154.388 22.29C152.417 20.3193 149.418 19.948 147.162 19.948C144.877 19.948 142.106 20.2621 140.107 22.2043C138.193 24.0609 137.936 26.4886 137.936 27.9738C137.936 29.7732 138.279 31.744 139.936 33.4005C141.792 35.2571 144.277 35.5427 147.562 35.5427C149.904 35.5427 151.646 35.3713 153.017 34.7715C154.988 33.8861 155.987 32.1153 156.159 30.2588H151.103ZM157.835 23.5753H160.92V31.1727C160.92 32.0581 160.949 33.3434 161.977 34.3145C163.091 35.3713 164.919 35.4284 165.947 35.4284C167.175 35.4284 168.146 35.3427 169.374 34.9714V31.8296C168.832 32.001 168.346 32.0581 167.889 32.0581C166.832 32.0581 166.432 31.6583 166.347 31.5726C165.947 31.1442 165.947 30.4587 165.947 29.916V23.5753H169.317V20.4906H165.947V16.1778H160.92V20.4906H157.835V23.5753Z" fill="white"/>
</g>
<path d="M28.3937 21.4875H25.2793C24.0121 20.4034 22.419 19.6266 20.65 19.2289V15.3925L18.0688 15.1199L15.4875 15.3925V19.2289C13.7185 19.6322 12.1254 20.4066 10.8582 21.4875H1.29062C0.94833 21.4875 0.620054 21.6235 0.378015 21.8655C0.135976 22.1076 0 22.4358 0 22.7781L0 30.5219C0 30.8642 0.135976 31.1924 0.378015 31.4345C0.620054 31.6765 0.94833 31.8125 1.29062 31.8125H8.77544C10.4363 34.856 13.9549 36.975 18.0688 36.975C22.1826 36.975 25.7012 34.856 27.3621 31.8125H28.3937C29.0783 31.8125 29.7349 32.0845 30.219 32.5685C30.703 33.0526 30.975 33.7092 30.975 34.3937C30.975 35.0783 31.247 35.7349 31.731 36.219C32.2151 36.703 32.8717 36.975 33.5562 36.975H38.7188C39.4033 36.975 40.0599 36.703 40.544 36.219C41.028 35.7349 41.3 35.0783 41.3 34.3937C41.3 30.9708 39.9402 27.688 37.5198 25.2677C35.0995 22.8473 31.8167 21.4875 28.3937 21.4875ZM6.58138 13.7365L18.0688 12.5265L29.5561 13.7365C30.316 13.8172 30.975 13.1872 30.975 12.3813V9.94367C30.975 9.13703 30.316 8.50785 29.5561 8.5877L20.65 9.52825V7.29062C20.65 6.94833 20.514 6.62005 20.272 6.37802C20.0299 6.13598 19.7017 6 19.3594 6H16.7781C16.4358 6 16.1076 6.13598 15.8655 6.37802C15.6235 6.62005 15.4875 6.94833 15.4875 7.29062V9.52825L6.58138 8.5877C5.82153 8.50785 5.1625 9.13783 5.1625 9.94367V12.3813C5.1625 13.1872 5.82153 13.8172 6.58138 13.7365Z" fill="#FFC701"/>
<defs>
<filter id="filter0_d_2_3" x="45.9792" y="0.843989" width="137.558" height="48.8618" filterUnits="userSpaceOnUse" color-interpolation-filters="sRGB">
<feFlood flood-opacity="0" result="BackgroundImageFix"/>
<feColorMatrix in="SourceAlpha" type="matrix" values="0 0 0 0 0 0 0 0 0 0 0 0 0 0 0 0 0 0 127 0" result="hardAlpha"/>
<feOffset/>
<feGaussianBlur stdDeviation="7.08142"/>
<feComposite in2="hardAlpha" operator="out"/>
<feColorMatrix type="matrix" values="0 0 0 0 1 0 0 0 0 1 0 0 0 0 1 0 0 0 0.7 0"/>
<feBlend mode="normal" in2="BackgroundImageFix" result="effect1_dropShadow_2_3"/>
<feBlend mode="normal" in="SourceGraphic" in2="effect1_dropShadow_2_3" result="shape"/>
</filter>
</defs>
</svg>
