<svg width="393" height="116" viewBox="0 0 393 116" fill="none" xmlns="http://www.w3.org/2000/svg">
<g filter="url(#filter0_d_2376_2685)">
<path d="M35.5987 32.875V36.865H41.2687C41.0587 38.58 40.1837 39.84 39.3787 40.505C38.0137 41.625 36.2287 41.8 34.6887 41.8C32.8687 41.8 30.9787 41.625 29.2987 39.98C28.2487 38.93 27.1287 37.075 27.1287 33.89C27.1287 31.44 27.7937 28.99 29.2287 27.52C30.8037 25.91 32.8687 25.665 34.6887 25.665C35.8787 25.665 37.3837 25.77 38.7137 26.54C40.0437 27.31 40.5687 28.29 40.6737 29.515H47.3937C47.2887 27.66 46.6587 24.79 43.4387 22.76C42.3537 22.095 39.7287 20.765 34.2337 20.765C31.1887 20.765 27.0587 21.15 23.8737 24.195C22.2287 25.77 20.1287 28.78 20.1287 33.995C20.1287 38.335 21.5637 41.45 23.3487 43.305C26.2887 46.42 30.0687 46.7 33.3237 46.7C35.1437 46.7 37.5587 46.63 39.4837 45.72C40.7437 45.125 42.0037 44.04 42.9137 42.465L43.1237 46H47.6737V32.875H35.5987ZM52.0681 25.385H58.2281V21.255H52.0681V25.385ZM52.0681 28.22V46H58.2281V28.22H52.0681ZM70.9246 40.89L66.4446 28.22H60.1796L67.7746 46H74.0746L81.7746 28.22H75.6146L70.9246 40.89ZM83.5476 25.385H89.7076V21.255H83.5476V25.385ZM83.5476 28.22V46H89.7076V28.22H83.5476ZM94.1091 28.22V46H100.269V37.845C100.269 35.745 100.794 33.995 101.704 33.015C102.264 32.42 103.279 31.755 104.924 31.755C106.149 31.755 106.954 32.14 107.409 32.595C108.319 33.47 108.459 34.94 108.459 36.375V46H114.619V35.01C114.619 32.875 114.339 30.425 112.029 28.92C111.574 28.605 109.824 27.625 106.464 27.625C105.414 27.625 103.909 27.73 102.509 28.43C101.529 28.92 100.654 29.655 100.024 30.39V28.22H94.1091ZM124.559 36.935C124.559 34.905 125.294 33.54 126.099 32.735C126.974 31.86 127.989 31.51 129.179 31.51C130.684 31.51 131.874 32.07 132.609 32.84C133.519 33.82 133.939 35.5 133.939 36.83C133.939 38.055 133.589 39.735 132.609 40.75C131.664 41.73 130.439 41.94 129.354 41.94C128.339 41.94 126.904 41.765 125.854 40.645C125.014 39.77 124.559 38.44 124.559 36.935ZM119.449 47.085C119.484 48.625 119.974 50.48 122.144 51.67C122.739 51.985 124.524 52.86 128.829 52.86C132.714 52.86 135.829 52.44 137.684 50.585C139.784 48.485 139.854 45.055 139.854 43.83V28.22H134.044V30.285H133.869C133.379 29.585 132.679 28.85 131.594 28.36C130.754 27.975 129.529 27.66 127.639 27.66C125.434 27.66 122.774 28.08 120.709 30.145C119.414 31.475 118.189 33.645 118.189 37.215C118.189 39.42 118.644 41.59 120.569 43.41C122.599 45.3 124.874 45.65 127.394 45.65C129.459 45.65 130.684 45.405 131.489 45.055C132.014 44.81 132.854 44.355 133.554 43.41H133.694V44.74C133.694 45.615 133.624 47.155 132.609 48.1C131.594 49.045 129.844 49.08 129.284 49.08C128.514 49.08 127.429 48.975 126.764 48.66C125.854 48.205 125.644 47.54 125.609 47.085H119.449ZM150.74 32H154.52V41.31C154.52 42.395 154.555 43.97 155.815 45.16C157.18 46.455 159.42 46.525 160.68 46.525C162.185 46.525 163.375 46.42 164.88 45.965V42.115C164.215 42.325 163.62 42.395 163.06 42.395C161.765 42.395 161.275 41.905 161.17 41.8C160.68 41.275 160.68 40.435 160.68 39.77V32H164.81V28.22H160.68V22.935H154.52V28.22H150.74V32ZM178.546 31.545C179.666 31.545 181.206 31.755 182.326 32.875C183.236 33.82 183.796 35.36 183.796 37.11C183.796 38.86 183.236 40.4 182.326 41.345C181.206 42.465 179.666 42.675 178.546 42.675C177.426 42.675 175.886 42.465 174.766 41.345C173.856 40.4 173.296 38.86 173.296 37.11C173.296 35.36 173.856 33.82 174.766 32.875C175.886 31.755 177.426 31.545 178.546 31.545ZM190.166 37.11C190.166 34.765 189.641 31.965 187.086 29.9C184.496 27.8 180.856 27.555 178.546 27.555C176.236 27.555 172.596 27.8 170.006 29.9C167.451 31.965 166.926 34.765 166.926 37.11C166.926 39.455 167.451 42.255 170.006 44.32C172.596 46.42 176.236 46.665 178.546 46.665C180.856 46.665 184.496 46.42 187.086 44.32C189.641 42.255 190.166 39.455 190.166 37.11ZM222.528 34.52C222.493 32.98 222.073 30.67 219.308 29.06C218.293 28.465 216.158 27.555 211.993 27.555C209.298 27.555 205.763 27.975 203.383 30.495C202.228 31.72 201.003 33.855 201.003 37.39C201.003 41.275 202.543 43.27 203.418 44.145C205.763 46.49 209.298 46.665 212.168 46.665C215.388 46.665 218.573 46.49 220.708 44.285C221.583 43.375 222.598 41.765 222.598 39.42V39.315H216.648C216.613 40.505 216.053 41.45 215.318 41.975C214.443 42.605 213.218 42.675 212.413 42.675C211.258 42.675 209.858 42.535 208.808 41.485C208.003 40.68 207.373 39.28 207.373 37.285C207.373 36.655 207.408 34.45 208.703 32.98C209.683 31.86 211.013 31.545 212.378 31.545C213.358 31.545 214.478 31.72 215.283 32.21C216.438 32.945 216.578 33.995 216.613 34.52H222.528ZM226.009 21.5V46H232.169V37.95C232.169 36.41 232.274 34.38 233.499 33.015C234.374 32.035 235.459 31.755 236.649 31.755C238.049 31.755 238.924 32.21 239.414 32.735C240.359 33.75 240.359 35.465 240.359 36.375V46H246.519V35.29C246.519 33.33 246.484 30.46 243.859 28.815C242.564 28.01 240.639 27.625 238.644 27.625C237.734 27.625 235.949 27.695 234.514 28.325C233.464 28.78 232.729 29.41 232.169 30.145V21.5H226.009ZM264.683 38.09C264.683 39.98 264.158 41.065 263.423 41.8C262.338 42.885 261.078 43.025 259.958 43.025C259.223 43.025 258.278 42.99 257.613 42.465C257.193 42.15 256.878 41.59 256.878 40.96C256.878 40.12 257.403 39.665 257.718 39.455C258.313 39.07 259.188 38.93 260.203 38.825L261.498 38.685C263.248 38.51 263.983 38.405 264.683 37.81V38.09ZM257.403 33.96C257.438 32.875 258.103 32.28 258.418 32.035C259.258 31.44 260.658 31.405 261.078 31.405C261.883 31.405 262.863 31.545 263.528 31.895C264.438 32.385 264.648 33.085 264.648 33.645C264.648 34.065 264.508 34.52 264.228 34.8C263.703 35.36 262.618 35.43 260.973 35.57L258.173 35.815C256.318 35.99 253.343 36.2 251.663 37.81C250.683 38.755 250.333 39.98 250.333 41.31C250.333 43.62 251.453 44.88 252.398 45.545C253.903 46.56 256.178 46.665 257.928 46.665C259.258 46.665 260.763 46.595 262.163 46.14C263.318 45.755 264.193 45.195 264.928 44.25H265.068L265.453 46H272.173V45.51C271.578 45.405 271.298 44.985 271.193 44.81C271.158 44.705 270.913 44.25 270.913 42.675V34.765C270.913 33.295 270.878 31.44 269.408 29.9C267.413 27.8 263.458 27.555 260.973 27.555C257.788 27.555 254.883 27.835 252.888 29.795C251.838 30.845 251.173 32.21 251.173 33.96H257.403ZM289.498 27.94C288.938 27.835 288.448 27.8 287.888 27.8C286.593 27.8 285.368 28.01 284.213 28.605C282.813 29.34 281.973 30.355 281.518 31.125V28.22H275.603V46H281.763V39.315C281.763 37.985 281.973 34.66 284.283 33.085C285.193 32.455 286.488 32.105 288.203 32.105C288.658 32.105 289.183 32.14 289.498 32.175V27.94ZM292.112 25.385H298.272V21.255H292.112V25.385ZM292.112 28.22V46H298.272V28.22H292.112ZM300.994 32H304.774V41.31C304.774 42.395 304.809 43.97 306.069 45.16C307.434 46.455 309.674 46.525 310.934 46.525C312.439 46.525 313.629 46.42 315.134 45.965V42.115C314.469 42.325 313.874 42.395 313.314 42.395C312.019 42.395 311.529 41.905 311.424 41.8C310.934 41.275 310.934 40.435 310.934 39.77V32H315.064V28.22H310.934V22.935H304.774V28.22H300.994V32ZM318.02 25.385H324.18V21.255H318.02V25.385ZM318.02 28.22V46H324.18V28.22H318.02ZM334.147 35.115C334.252 33.785 334.917 32.875 335.617 32.315C336.667 31.475 337.822 31.335 339.082 31.335C340.237 31.335 341.672 31.44 342.722 32.385C343.212 32.805 343.912 33.68 343.982 35.115H334.147ZM343.877 40.19C343.632 41.345 342.967 41.94 342.302 42.255C341.427 42.675 340.027 42.745 339.117 42.745C337.927 42.745 336.247 42.605 335.197 41.555C334.602 40.96 334.042 39.91 334.042 38.37V38.265H350.317V37.635C350.317 35.5 350.107 32.63 347.902 30.425C345.487 28.01 341.812 27.555 339.047 27.555C336.247 27.555 332.852 27.94 330.402 30.32C328.057 32.595 327.742 35.57 327.742 37.39C327.742 39.595 328.162 42.01 330.192 44.04C332.467 46.315 335.512 46.665 339.537 46.665C342.407 46.665 344.542 46.455 346.222 45.72C348.637 44.635 349.862 42.465 350.072 40.19H343.877ZM352.516 40.4V40.47C352.516 41.415 352.656 43.13 354.161 44.6C356.086 46.455 359.236 46.7 362.946 46.7C365.921 46.7 368.861 46.56 370.786 44.495C371.661 43.55 372.221 42.325 372.221 40.715C372.221 38.86 371.416 37.705 370.506 36.97C369.211 35.92 366.971 35.5 365.781 35.325L363.401 34.975C361.616 34.695 360.601 34.625 359.796 34.275C359.411 34.1 358.746 33.75 358.746 32.98C358.746 32.49 359.061 31.895 359.761 31.545C360.321 31.265 361.301 31.16 362.071 31.16C362.806 31.16 363.821 31.265 364.486 31.58C365.221 31.93 365.501 32.455 365.501 33.05V33.12H371.381C371.346 31.02 370.541 29.48 368.301 28.465C367.566 28.15 365.921 27.52 362.036 27.52C358.641 27.52 356.681 28.045 355.386 28.815C353.636 29.83 352.691 31.265 352.691 33.4C352.691 34.765 353.076 36.235 354.616 37.18C355.386 37.67 356.611 38.055 359.481 38.475L361.581 38.79C362.841 38.965 363.751 39.07 364.591 39.385C365.151 39.595 365.921 39.98 365.921 40.96C365.921 41.31 365.781 41.94 364.941 42.36C364.556 42.57 363.856 42.78 362.456 42.78C360.601 42.78 359.901 42.43 359.691 42.325C359.166 42.045 358.536 41.485 358.536 40.505V40.4H352.516ZM94.7533 81H98.5333V90.31C98.5333 91.395 98.5683 92.97 99.8283 94.16C101.193 95.455 103.433 95.525 104.693 95.525C106.198 95.525 107.388 95.42 108.893 94.965V91.115C108.228 91.325 107.633 91.395 107.073 91.395C105.778 91.395 105.288 90.905 105.183 90.8C104.693 90.275 104.693 89.435 104.693 88.77V81H108.823V77.22H104.693V71.935H98.5333V77.22H94.7533V81ZM111.78 70.5V95H117.94V86.95C117.94 85.41 118.045 83.38 119.27 82.015C120.145 81.035 121.23 80.755 122.42 80.755C123.82 80.755 124.695 81.21 125.185 81.735C126.13 82.75 126.13 84.465 126.13 85.375V95H132.29V84.29C132.29 82.33 132.255 79.46 129.63 77.815C128.335 77.01 126.41 76.625 124.415 76.625C123.505 76.625 121.72 76.695 120.285 77.325C119.235 77.78 118.5 78.41 117.94 79.145V70.5H111.78ZM150.454 87.09C150.454 88.98 149.929 90.065 149.194 90.8C148.109 91.885 146.849 92.025 145.729 92.025C144.994 92.025 144.049 91.99 143.384 91.465C142.964 91.15 142.649 90.59 142.649 89.96C142.649 89.12 143.174 88.665 143.489 88.455C144.084 88.07 144.959 87.93 145.974 87.825L147.269 87.685C149.019 87.51 149.754 87.405 150.454 86.81V87.09ZM143.174 82.96C143.209 81.875 143.874 81.28 144.189 81.035C145.029 80.44 146.429 80.405 146.849 80.405C147.654 80.405 148.634 80.545 149.299 80.895C150.209 81.385 150.419 82.085 150.419 82.645C150.419 83.065 150.279 83.52 149.999 83.8C149.474 84.36 148.389 84.43 146.744 84.57L143.944 84.815C142.089 84.99 139.114 85.2 137.434 86.81C136.454 87.755 136.104 88.98 136.104 90.31C136.104 92.62 137.224 93.88 138.169 94.545C139.674 95.56 141.949 95.665 143.699 95.665C145.029 95.665 146.534 95.595 147.934 95.14C149.089 94.755 149.964 94.195 150.699 93.25H150.839L151.224 95H157.944V94.51C157.349 94.405 157.069 93.985 156.964 93.81C156.929 93.705 156.684 93.25 156.684 91.675V83.765C156.684 82.295 156.649 80.44 155.179 78.9C153.184 76.8 149.229 76.555 146.744 76.555C143.559 76.555 140.654 76.835 138.659 78.795C137.609 79.845 136.944 81.21 136.944 82.96H143.174ZM159.695 81H163.475V90.31C163.475 91.395 163.51 92.97 164.77 94.16C166.135 95.455 168.375 95.525 169.635 95.525C171.14 95.525 172.33 95.42 173.835 94.965V91.115C173.17 91.325 172.575 91.395 172.015 91.395C170.72 91.395 170.23 90.905 170.125 90.8C169.635 90.275 169.635 89.435 169.635 88.77V81H173.765V77.22H169.635V71.935H163.475V77.22H159.695V81ZM205.575 83.52C205.54 81.98 205.12 79.67 202.355 78.06C201.34 77.465 199.205 76.555 195.04 76.555C192.345 76.555 188.81 76.975 186.43 79.495C185.275 80.72 184.05 82.855 184.05 86.39C184.05 90.275 185.59 92.27 186.465 93.145C188.81 95.49 192.345 95.665 195.215 95.665C198.435 95.665 201.62 95.49 203.755 93.285C204.63 92.375 205.645 90.765 205.645 88.42V88.315H199.695C199.66 89.505 199.1 90.45 198.365 90.975C197.49 91.605 196.265 91.675 195.46 91.675C194.305 91.675 192.905 91.535 191.855 90.485C191.05 89.68 190.42 88.28 190.42 86.285C190.42 85.655 190.455 83.45 191.75 81.98C192.73 80.86 194.06 80.545 195.425 80.545C196.405 80.545 197.525 80.72 198.33 81.21C199.485 81.945 199.625 82.995 199.66 83.52H205.575ZM219.835 80.545C220.955 80.545 222.495 80.755 223.615 81.875C224.525 82.82 225.085 84.36 225.085 86.11C225.085 87.86 224.525 89.4 223.615 90.345C222.495 91.465 220.955 91.675 219.835 91.675C218.715 91.675 217.175 91.465 216.055 90.345C215.145 89.4 214.585 87.86 214.585 86.11C214.585 84.36 215.145 82.82 216.055 81.875C217.175 80.755 218.715 80.545 219.835 80.545ZM231.455 86.11C231.455 83.765 230.93 80.965 228.375 78.9C225.785 76.8 222.145 76.555 219.835 76.555C217.525 76.555 213.885 76.8 211.295 78.9C208.74 80.965 208.215 83.765 208.215 86.11C208.215 88.455 208.74 91.255 211.295 93.32C213.885 95.42 217.525 95.665 219.835 95.665C222.145 95.665 225.785 95.42 228.375 93.32C230.93 91.255 231.455 88.455 231.455 86.11ZM249.524 95H255.264V77.22H249.104V85.795C249.104 87.265 248.999 89.015 247.879 90.24C246.934 91.255 245.674 91.43 244.764 91.43C243.329 91.43 242.489 90.975 242.034 90.52C241.054 89.575 241.019 88.07 241.019 87.055V77.22H234.859V88.175C234.859 89.645 234.964 92.2 236.714 93.845C238.324 95.35 240.984 95.56 242.559 95.56C244.554 95.56 245.849 95.315 246.724 94.93C248.229 94.3 249.139 93.11 249.384 92.795H249.524V95ZM259.676 77.22V95H265.836V86.845C265.836 84.745 266.361 82.995 267.271 82.015C267.831 81.42 268.846 80.755 270.491 80.755C271.716 80.755 272.521 81.14 272.976 81.595C273.886 82.47 274.026 83.94 274.026 85.375V95H280.186V84.01C280.186 81.875 279.906 79.425 277.596 77.92C277.141 77.605 275.391 76.625 272.031 76.625C270.981 76.625 269.476 76.73 268.076 77.43C267.096 77.92 266.221 78.655 265.591 79.39V77.22H259.676ZM282.81 81H286.59V90.31C286.59 91.395 286.625 92.97 287.885 94.16C289.25 95.455 291.49 95.525 292.75 95.525C294.255 95.525 295.445 95.42 296.95 94.965V91.115C296.285 91.325 295.69 91.395 295.13 91.395C293.835 91.395 293.345 90.905 293.24 90.8C292.75 90.275 292.75 89.435 292.75 88.77V81H296.88V77.22H292.75V71.935H286.59V77.22H282.81V81Z" fill="white"/>
</g>
<defs>
<filter id="filter0_d_2376_2685" x="0.128906" y="0.765015" width="392.092" height="114.9" filterUnits="userSpaceOnUse" color-interpolation-filters="sRGB">
<feFlood flood-opacity="0" result="BackgroundImageFix"/>
<feColorMatrix in="SourceAlpha" type="matrix" values="0 0 0 0 0 0 0 0 0 0 0 0 0 0 0 0 0 0 127 0" result="hardAlpha"/>
<feOffset/>
<feGaussianBlur stdDeviation="10"/>
<feComposite in2="hardAlpha" operator="out"/>
<feColorMatrix type="matrix" values="0 0 0 0 1 0 0 0 0 1 0 0 0 0 1 0 0 0 0.7 0"/>
<feBlend mode="normal" in2="BackgroundImageFix" result="effect1_dropShadow_2376_2685"/>
<feBlend mode="normal" in="SourceGraphic" in2="effect1_dropShadow_2376_2685" result="shape"/>
</filter>
</defs>
</svg>
