<svg width="710" height="121" viewBox="0 0 710 121" fill="none" xmlns="http://www.w3.org/2000/svg">
<rect x="208" y="59" width="394" height="49" fill="#FDC500"/>
<g filter="url(#filter0_d_2_3)">
<path d="M26.6856 25.4H30.7806C32.5656 25.4 35.0856 25.47 36.9406 27.08C37.9556 27.955 39.1106 29.74 39.1106 32.715C39.1106 35.55 38.0256 37.405 36.8006 38.42C34.8756 40.03 32.0756 40.1 30.3956 40.1H26.6856V25.4ZM20.2456 20.5V45H31.0256C34.3856 45 39.3556 44.86 42.6456 41.64C44.1506 40.17 45.9006 37.405 45.9006 32.645C45.9006 30.3 45.4806 26.66 42.6456 23.93C39.8106 21.2 35.5406 20.5 31.6206 20.5H20.2456ZM60.1694 30.545C61.2894 30.545 62.8294 30.755 63.9494 31.875C64.8594 32.82 65.4194 34.36 65.4194 36.11C65.4194 37.86 64.8594 39.4 63.9494 40.345C62.8294 41.465 61.2894 41.675 60.1694 41.675C59.0494 41.675 57.5094 41.465 56.3894 40.345C55.4794 39.4 54.9194 37.86 54.9194 36.11C54.9194 34.36 55.4794 32.82 56.3894 31.875C57.5094 30.755 59.0494 30.545 60.1694 30.545ZM71.7894 36.11C71.7894 33.765 71.2644 30.965 68.7094 28.9C66.1194 26.8 62.4794 26.555 60.1694 26.555C57.8594 26.555 54.2194 26.8 51.6294 28.9C49.0744 30.965 48.5494 33.765 48.5494 36.11C48.5494 38.455 49.0744 41.255 51.6294 43.32C54.2194 45.42 57.8594 45.665 60.1694 45.665C62.4794 45.665 66.1194 45.42 68.7094 43.32C71.2644 41.255 71.7894 38.455 71.7894 36.11ZM75.2976 27.22V45H81.4576V36.845C81.4576 34.745 81.9826 32.995 82.8926 32.015C83.4526 31.42 84.4676 30.755 86.1126 30.755C87.3376 30.755 88.1426 31.14 88.5976 31.595C89.5076 32.47 89.6476 33.94 89.6476 35.375V45H95.8076V34.01C95.8076 31.875 95.5276 29.425 93.2176 27.92C92.7626 27.605 91.0126 26.625 87.6526 26.625C86.6026 26.625 85.0976 26.73 83.6976 27.43C82.7176 27.92 81.8426 28.655 81.2126 29.39V27.22H75.2976ZM104.432 20.5H97.6421L99.5671 27.535H102.507L104.432 20.5ZM106.635 31H110.415V40.31C110.415 41.395 110.45 42.97 111.71 44.16C113.075 45.455 115.315 45.525 116.575 45.525C118.08 45.525 119.27 45.42 120.775 44.965V41.115C120.11 41.325 119.515 41.395 118.955 41.395C117.66 41.395 117.17 40.905 117.065 40.8C116.575 40.275 116.575 39.435 116.575 38.77V31H120.705V27.22H116.575V21.935H110.415V27.22H106.635V31ZM131.831 20.5V45H137.991V20.5H131.831ZM147.957 34.115C148.062 32.785 148.727 31.875 149.427 31.315C150.477 30.475 151.632 30.335 152.892 30.335C154.047 30.335 155.482 30.44 156.532 31.385C157.022 31.805 157.722 32.68 157.792 34.115H147.957ZM157.687 39.19C157.442 40.345 156.777 40.94 156.112 41.255C155.237 41.675 153.837 41.745 152.927 41.745C151.737 41.745 150.057 41.605 149.007 40.555C148.412 39.96 147.852 38.91 147.852 37.37V37.265H164.127V36.635C164.127 34.5 163.917 31.63 161.712 29.425C159.297 27.01 155.622 26.555 152.857 26.555C150.057 26.555 146.662 26.94 144.212 29.32C141.867 31.595 141.552 34.57 141.552 36.39C141.552 38.595 141.972 41.01 144.002 43.04C146.277 45.315 149.322 45.665 153.347 45.665C156.217 45.665 158.352 45.455 160.032 44.72C162.447 43.635 163.672 41.465 163.882 39.19H157.687ZM165.937 31H169.717V40.31C169.717 41.395 169.752 42.97 171.012 44.16C172.377 45.455 174.617 45.525 175.877 45.525C177.382 45.525 178.572 45.42 180.077 44.965V41.115C179.412 41.325 178.817 41.395 178.257 41.395C176.962 41.395 176.472 40.905 176.367 40.8C175.877 40.275 175.877 39.435 175.877 38.77V31H180.007V27.22H175.877V21.935H169.717V27.22H165.937V31ZM189.453 31H193.233V40.31C193.233 41.395 193.268 42.97 194.528 44.16C195.893 45.455 198.133 45.525 199.393 45.525C200.898 45.525 202.088 45.42 203.593 44.965V41.115C202.928 41.325 202.333 41.395 201.773 41.395C200.478 41.395 199.988 40.905 199.883 40.8C199.393 40.275 199.393 39.435 199.393 38.77V31H203.523V27.22H199.393V21.935H193.233V27.22H189.453V31ZM206.479 20.5V45H212.639V36.95C212.639 35.41 212.744 33.38 213.969 32.015C214.844 31.035 215.929 30.755 217.119 30.755C218.519 30.755 219.394 31.21 219.884 31.735C220.829 32.75 220.829 34.465 220.829 35.375V45H226.989V34.29C226.989 32.33 226.954 29.46 224.329 27.815C223.034 27.01 221.109 26.625 219.114 26.625C218.204 26.625 216.419 26.695 214.984 27.325C213.934 27.78 213.199 28.41 212.639 29.145V20.5H206.479ZM236.859 34.115C236.964 32.785 237.629 31.875 238.329 31.315C239.379 30.475 240.534 30.335 241.794 30.335C242.949 30.335 244.384 30.44 245.434 31.385C245.924 31.805 246.624 32.68 246.694 34.115H236.859ZM246.589 39.19C246.344 40.345 245.679 40.94 245.014 41.255C244.139 41.675 242.739 41.745 241.829 41.745C240.639 41.745 238.959 41.605 237.909 40.555C237.314 39.96 236.754 38.91 236.754 37.37V37.265H253.029V36.635C253.029 34.5 252.819 31.63 250.614 29.425C248.199 27.01 244.524 26.555 241.759 26.555C238.959 26.555 235.564 26.94 233.114 29.32C230.769 31.595 230.454 34.57 230.454 36.39C230.454 38.595 230.874 41.01 232.904 43.04C235.179 45.315 238.224 45.665 242.249 45.665C245.119 45.665 247.254 45.455 248.934 44.72C251.349 43.635 252.574 41.465 252.784 39.19H246.589ZM255.228 39.4V39.47C255.228 40.415 255.368 42.13 256.873 43.6C258.798 45.455 261.948 45.7 265.658 45.7C268.633 45.7 271.573 45.56 273.498 43.495C274.373 42.55 274.933 41.325 274.933 39.715C274.933 37.86 274.128 36.705 273.218 35.97C271.923 34.92 269.683 34.5 268.493 34.325L266.113 33.975C264.328 33.695 263.313 33.625 262.508 33.275C262.123 33.1 261.458 32.75 261.458 31.98C261.458 31.49 261.773 30.895 262.473 30.545C263.033 30.265 264.013 30.16 264.783 30.16C265.518 30.16 266.533 30.265 267.198 30.58C267.933 30.93 268.213 31.455 268.213 32.05V32.12H274.093C274.058 30.02 273.253 28.48 271.013 27.465C270.278 27.15 268.633 26.52 264.748 26.52C261.353 26.52 259.393 27.045 258.098 27.815C256.348 28.83 255.403 30.265 255.403 32.4C255.403 33.765 255.788 35.235 257.328 36.18C258.098 36.67 259.323 37.055 262.193 37.475L264.293 37.79C265.553 37.965 266.463 38.07 267.303 38.385C267.863 38.595 268.633 38.98 268.633 39.96C268.633 40.31 268.493 40.94 267.653 41.36C267.268 41.57 266.568 41.78 265.168 41.78C263.313 41.78 262.613 41.43 262.403 41.325C261.878 41.045 261.248 40.485 261.248 39.505V39.4H255.228ZM283.753 34.115C283.858 32.785 284.523 31.875 285.223 31.315C286.273 30.475 287.428 30.335 288.688 30.335C289.843 30.335 291.278 30.44 292.328 31.385C292.818 31.805 293.518 32.68 293.588 34.115H283.753ZM293.483 39.19C293.238 40.345 292.573 40.94 291.908 41.255C291.033 41.675 289.633 41.745 288.723 41.745C287.533 41.745 285.853 41.605 284.803 40.555C284.208 39.96 283.648 38.91 283.648 37.37V37.265H299.923V36.635C299.923 34.5 299.713 31.63 297.508 29.425C295.093 27.01 291.418 26.555 288.653 26.555C285.853 26.555 282.458 26.94 280.008 29.32C277.663 31.595 277.348 34.57 277.348 36.39C277.348 38.595 277.768 41.01 279.798 43.04C282.073 45.315 285.118 45.665 289.143 45.665C292.013 45.665 294.148 45.455 295.828 44.72C298.243 43.635 299.468 41.465 299.678 39.19H293.483ZM325.127 32.96L329.432 45H334.892L341.052 27.22H335.102L331.602 39.225L327.647 27.22H322.572L318.617 39.225L315.117 27.22H309.132L315.292 45H320.787L325.127 32.96ZM348.182 34.115C348.287 32.785 348.952 31.875 349.652 31.315C350.702 30.475 351.857 30.335 353.117 30.335C354.272 30.335 355.707 30.44 356.757 31.385C357.247 31.805 357.947 32.68 358.017 34.115H348.182ZM357.912 39.19C357.667 40.345 357.002 40.94 356.337 41.255C355.462 41.675 354.062 41.745 353.152 41.745C351.962 41.745 350.282 41.605 349.232 40.555C348.637 39.96 348.077 38.91 348.077 37.37V37.265H364.352V36.635C364.352 34.5 364.142 31.63 361.937 29.425C359.522 27.01 355.847 26.555 353.082 26.555C350.282 26.555 346.887 26.94 344.437 29.32C342.092 31.595 341.777 34.57 341.777 36.39C341.777 38.595 342.197 41.01 344.227 43.04C346.502 45.315 349.547 45.665 353.572 45.665C356.442 45.665 358.577 45.455 360.257 44.72C362.672 43.635 363.897 41.465 364.107 39.19H357.912ZM381.702 37.09C381.702 38.98 381.177 40.065 380.442 40.8C379.357 41.885 378.097 42.025 376.977 42.025C376.242 42.025 375.297 41.99 374.632 41.465C374.212 41.15 373.897 40.59 373.897 39.96C373.897 39.12 374.422 38.665 374.737 38.455C375.332 38.07 376.207 37.93 377.222 37.825L378.517 37.685C380.267 37.51 381.002 37.405 381.702 36.81V37.09ZM374.422 32.96C374.457 31.875 375.122 31.28 375.437 31.035C376.277 30.44 377.677 30.405 378.097 30.405C378.902 30.405 379.882 30.545 380.547 30.895C381.457 31.385 381.667 32.085 381.667 32.645C381.667 33.065 381.527 33.52 381.247 33.8C380.722 34.36 379.637 34.43 377.992 34.57L375.192 34.815C373.337 34.99 370.362 35.2 368.682 36.81C367.702 37.755 367.352 38.98 367.352 40.31C367.352 42.62 368.472 43.88 369.417 44.545C370.922 45.56 373.197 45.665 374.947 45.665C376.277 45.665 377.782 45.595 379.182 45.14C380.337 44.755 381.212 44.195 381.947 43.25H382.087L382.472 45H389.192V44.51C388.597 44.405 388.317 43.985 388.212 43.81C388.177 43.705 387.932 43.25 387.932 41.675V33.765C387.932 32.295 387.897 30.44 386.427 28.9C384.432 26.8 380.477 26.555 377.992 26.555C374.807 26.555 371.902 26.835 369.907 28.795C368.857 29.845 368.192 31.21 368.192 32.96H374.422ZM406.517 26.94C405.957 26.835 405.467 26.8 404.907 26.8C403.612 26.8 402.387 27.01 401.232 27.605C399.832 28.34 398.992 29.355 398.537 30.125V27.22H392.622V45H398.782V38.315C398.782 36.985 398.992 33.66 401.302 32.085C402.212 31.455 403.507 31.105 405.222 31.105C405.677 31.105 406.202 31.14 406.517 31.175V26.94ZM409.676 51.195C410.971 51.615 411.881 51.685 413.211 51.685C414.961 51.685 416.746 51.545 418.321 50.04C419.511 48.92 420.246 47.135 421.016 45.315L428.576 27.22H422.801L418.671 39.085L413.946 27.22H407.751L415.311 43.915L414.961 44.965C414.716 45.665 414.191 46.645 413.631 47.1C413.106 47.52 412.301 47.695 411.531 47.695C411.286 47.695 410.551 47.66 409.676 47.38V51.195ZM459.552 33.52C459.517 31.98 459.097 29.67 456.332 28.06C455.317 27.465 453.182 26.555 449.017 26.555C446.322 26.555 442.787 26.975 440.407 29.495C439.252 30.72 438.027 32.855 438.027 36.39C438.027 40.275 439.567 42.27 440.442 43.145C442.787 45.49 446.322 45.665 449.192 45.665C452.412 45.665 455.597 45.49 457.732 43.285C458.607 42.375 459.622 40.765 459.622 38.42V38.315H453.672C453.637 39.505 453.077 40.45 452.342 40.975C451.467 41.605 450.242 41.675 449.437 41.675C448.282 41.675 446.882 41.535 445.832 40.485C445.027 39.68 444.397 38.28 444.397 36.285C444.397 35.655 444.432 33.45 445.727 31.98C446.707 30.86 448.037 30.545 449.402 30.545C450.382 30.545 451.502 30.72 452.307 31.21C453.462 31.945 453.602 32.995 453.637 33.52H459.552ZM463.032 20.5V45H469.192V36.95C469.192 35.41 469.297 33.38 470.522 32.015C471.397 31.035 472.482 30.755 473.672 30.755C475.072 30.755 475.947 31.21 476.437 31.735C477.382 32.75 477.382 34.465 477.382 35.375V45H483.542V34.29C483.542 32.33 483.507 29.46 480.882 27.815C479.587 27.01 477.662 26.625 475.667 26.625C474.757 26.625 472.972 26.695 471.537 27.325C470.487 27.78 469.752 28.41 469.192 29.145V20.5H463.032ZM487.846 24.385H494.006V20.255H487.846V24.385ZM487.846 27.22V45H494.006V27.22H487.846ZM498.408 20.5V45H504.568V20.5H498.408ZM519.434 30.58C520.449 30.58 522.094 30.79 523.249 32.225C524.054 33.24 524.439 34.78 524.439 36.075C524.439 37.615 523.949 39.33 522.864 40.415C521.849 41.43 520.694 41.64 519.504 41.64C518.244 41.64 517.019 41.395 516.004 40.31C515.024 39.26 514.569 37.615 514.569 36.11C514.569 34.57 514.919 33.1 515.794 32.085C516.844 30.86 518.244 30.58 519.434 30.58ZM524.544 42.9V45H530.424V20.5H524.264V29.25C523.704 28.41 523.074 27.885 522.024 27.43C520.624 26.8 519.504 26.66 517.894 26.66C515.899 26.66 513.169 26.835 510.894 28.97C509.529 30.265 508.129 32.505 508.129 36.18C508.129 39.26 509.074 41.64 510.509 43.145C512.644 45.385 515.304 45.56 517.684 45.56C519.294 45.56 520.764 45.49 522.059 44.93C523.284 44.405 523.949 43.67 524.404 42.9H524.544ZM548.738 26.94C548.178 26.835 547.688 26.8 547.128 26.8C545.833 26.8 544.608 27.01 543.453 27.605C542.053 28.34 541.213 29.355 540.758 30.125V27.22H534.843V45H541.003V38.315C541.003 36.985 541.213 33.66 543.523 32.085C544.433 31.455 545.728 31.105 547.443 31.105C547.898 31.105 548.423 31.14 548.738 31.175V26.94ZM556.302 34.115C556.407 32.785 557.072 31.875 557.772 31.315C558.822 30.475 559.977 30.335 561.237 30.335C562.392 30.335 563.827 30.44 564.877 31.385C565.367 31.805 566.067 32.68 566.137 34.115H556.302ZM566.032 39.19C565.787 40.345 565.122 40.94 564.457 41.255C563.582 41.675 562.182 41.745 561.272 41.745C560.082 41.745 558.402 41.605 557.352 40.555C556.757 39.96 556.197 38.91 556.197 37.37V37.265H572.472V36.635C572.472 34.5 572.262 31.63 570.057 29.425C567.642 27.01 563.967 26.555 561.202 26.555C558.402 26.555 555.007 26.94 552.557 29.32C550.212 31.595 549.897 34.57 549.897 36.39C549.897 38.595 550.317 41.01 552.347 43.04C554.622 45.315 557.667 45.665 561.692 45.665C564.562 45.665 566.697 45.455 568.377 44.72C570.792 43.635 572.017 41.465 572.227 39.19H566.032ZM575.962 27.22V45H582.122V36.845C582.122 34.745 582.647 32.995 583.557 32.015C584.117 31.42 585.132 30.755 586.777 30.755C588.002 30.755 588.807 31.14 589.262 31.595C590.172 32.47 590.312 33.94 590.312 35.375V45H596.472V34.01C596.472 31.875 596.192 29.425 593.882 27.92C593.427 27.605 591.677 26.625 588.317 26.625C587.267 26.625 585.762 26.73 584.362 27.43C583.382 27.92 582.507 28.655 581.877 29.39V27.22H575.962ZM608.945 20.5V45H615.105V20.5H608.945ZM630.287 30.545C631.407 30.545 632.947 30.755 634.067 31.875C634.977 32.82 635.537 34.36 635.537 36.11C635.537 37.86 634.977 39.4 634.067 40.345C632.947 41.465 631.407 41.675 630.287 41.675C629.167 41.675 627.627 41.465 626.507 40.345C625.597 39.4 625.037 37.86 625.037 36.11C625.037 34.36 625.597 32.82 626.507 31.875C627.627 30.755 629.167 30.545 630.287 30.545ZM641.907 36.11C641.907 33.765 641.382 30.965 638.827 28.9C636.237 26.8 632.597 26.555 630.287 26.555C627.977 26.555 624.337 26.8 621.747 28.9C619.192 30.965 618.667 33.765 618.667 36.11C618.667 38.455 619.192 41.255 621.747 43.32C624.337 45.42 627.977 45.665 630.287 45.665C632.597 45.665 636.237 45.42 638.827 43.32C641.382 41.255 641.907 38.455 641.907 36.11ZM644.33 39.4V39.47C644.33 40.415 644.47 42.13 645.975 43.6C647.9 45.455 651.05 45.7 654.76 45.7C657.735 45.7 660.675 45.56 662.6 43.495C663.475 42.55 664.035 41.325 664.035 39.715C664.035 37.86 663.23 36.705 662.32 35.97C661.025 34.92 658.785 34.5 657.595 34.325L655.215 33.975C653.43 33.695 652.415 33.625 651.61 33.275C651.225 33.1 650.56 32.75 650.56 31.98C650.56 31.49 650.875 30.895 651.575 30.545C652.135 30.265 653.115 30.16 653.885 30.16C654.62 30.16 655.635 30.265 656.3 30.58C657.035 30.93 657.315 31.455 657.315 32.05V32.12H663.195C663.16 30.02 662.355 28.48 660.115 27.465C659.38 27.15 657.735 26.52 653.85 26.52C650.455 26.52 648.495 27.045 647.2 27.815C645.45 28.83 644.505 30.265 644.505 32.4C644.505 33.765 644.89 35.235 646.43 36.18C647.2 36.67 648.425 37.055 651.295 37.475L653.395 37.79C654.655 37.965 655.565 38.07 656.405 38.385C656.965 38.595 657.735 38.98 657.735 39.96C657.735 40.31 657.595 40.94 656.755 41.36C656.37 41.57 655.67 41.78 654.27 41.78C652.415 41.78 651.715 41.43 651.505 41.325C650.98 41.045 650.35 40.485 650.35 39.505V39.4H644.33ZM672.855 34.115C672.96 32.785 673.625 31.875 674.325 31.315C675.375 30.475 676.53 30.335 677.79 30.335C678.945 30.335 680.38 30.44 681.43 31.385C681.92 31.805 682.62 32.68 682.69 34.115H672.855ZM682.585 39.19C682.34 40.345 681.675 40.94 681.01 41.255C680.135 41.675 678.735 41.745 677.825 41.745C676.635 41.745 674.955 41.605 673.905 40.555C673.31 39.96 672.75 38.91 672.75 37.37V37.265H689.025V36.635C689.025 34.5 688.815 31.63 686.61 29.425C684.195 27.01 680.52 26.555 677.755 26.555C674.955 26.555 671.56 26.94 669.11 29.32C666.765 31.595 666.45 34.57 666.45 36.39C666.45 38.595 666.87 41.01 668.9 43.04C671.175 45.315 674.22 45.665 678.245 45.665C681.115 45.665 683.25 45.455 684.93 44.72C687.345 43.635 688.57 41.465 688.78 39.19H682.585ZM116.376 80H120.156V89.31C120.156 90.395 120.191 91.97 121.451 93.16C122.816 94.455 125.056 94.525 126.316 94.525C127.821 94.525 129.011 94.42 130.516 93.965V90.115C129.851 90.325 129.256 90.395 128.696 90.395C127.401 90.395 126.911 89.905 126.806 89.8C126.316 89.275 126.316 88.435 126.316 87.77V80H130.446V76.22H126.316V70.935H120.156V76.22H116.376V80ZM133.403 69.5V94H139.563V85.95C139.563 84.41 139.668 82.38 140.893 81.015C141.768 80.035 142.853 79.755 144.043 79.755C145.443 79.755 146.318 80.21 146.808 80.735C147.753 81.75 147.753 83.465 147.753 84.375V94H153.913V83.29C153.913 81.33 153.878 78.46 151.253 76.815C149.958 76.01 148.033 75.625 146.038 75.625C145.128 75.625 143.343 75.695 141.908 76.325C140.858 76.78 140.123 77.41 139.563 78.145V69.5H133.403ZM163.783 83.115C163.888 81.785 164.553 80.875 165.253 80.315C166.303 79.475 167.458 79.335 168.718 79.335C169.873 79.335 171.308 79.44 172.358 80.385C172.848 80.805 173.548 81.68 173.618 83.115H163.783ZM173.513 88.19C173.268 89.345 172.603 89.94 171.938 90.255C171.063 90.675 169.663 90.745 168.753 90.745C167.563 90.745 165.883 90.605 164.833 89.555C164.238 88.96 163.678 87.91 163.678 86.37V86.265H179.953V85.635C179.953 83.5 179.743 80.63 177.538 78.425C175.123 76.01 171.448 75.555 168.683 75.555C165.883 75.555 162.488 75.94 160.038 78.32C157.693 80.595 157.378 83.57 157.378 85.39C157.378 87.595 157.798 90.01 159.828 92.04C162.103 94.315 165.148 94.665 169.173 94.665C172.043 94.665 174.178 94.455 175.858 93.72C178.273 92.635 179.498 90.465 179.708 88.19H173.513ZM183.442 73.385H189.602V69.255H183.442V73.385ZM183.442 76.22V94H189.602V76.22H183.442ZM207.899 75.94C207.339 75.835 206.849 75.8 206.289 75.8C204.994 75.8 203.769 76.01 202.614 76.605C201.214 77.34 200.374 78.355 199.919 79.125V76.22H194.004V94H200.164V87.315C200.164 85.985 200.374 82.66 202.684 81.085C203.594 80.455 204.889 80.105 206.604 80.105C207.059 80.105 207.584 80.14 207.899 80.175V75.94Z" fill="white"/>
<path d="M218.681 69.5V94H224.841V69.5H218.681ZM243.103 86.09C243.103 87.98 242.578 89.065 241.843 89.8C240.758 90.885 239.498 91.025 238.378 91.025C237.643 91.025 236.698 90.99 236.033 90.465C235.613 90.15 235.298 89.59 235.298 88.96C235.298 88.12 235.823 87.665 236.138 87.455C236.733 87.07 237.608 86.93 238.623 86.825L239.918 86.685C241.668 86.51 242.403 86.405 243.103 85.81V86.09ZM235.823 81.96C235.858 80.875 236.523 80.28 236.838 80.035C237.678 79.44 239.078 79.405 239.498 79.405C240.303 79.405 241.283 79.545 241.948 79.895C242.858 80.385 243.068 81.085 243.068 81.645C243.068 82.065 242.928 82.52 242.648 82.8C242.123 83.36 241.038 83.43 239.393 83.57L236.593 83.815C234.738 83.99 231.763 84.2 230.083 85.81C229.103 86.755 228.753 87.98 228.753 89.31C228.753 91.62 229.873 92.88 230.818 93.545C232.323 94.56 234.598 94.665 236.348 94.665C237.678 94.665 239.183 94.595 240.583 94.14C241.738 93.755 242.613 93.195 243.348 92.25H243.488L243.873 94H250.593V93.51C249.998 93.405 249.718 92.985 249.613 92.81C249.578 92.705 249.333 92.25 249.333 90.675V82.765C249.333 81.295 249.298 79.44 247.828 77.9C245.833 75.8 241.878 75.555 239.393 75.555C236.208 75.555 233.303 75.835 231.308 77.795C230.258 78.845 229.593 80.21 229.593 81.96H235.823ZM252.733 88.4V88.47C252.733 89.415 252.873 91.13 254.378 92.6C256.303 94.455 259.453 94.7 263.163 94.7C266.138 94.7 269.078 94.56 271.003 92.495C271.878 91.55 272.438 90.325 272.438 88.715C272.438 86.86 271.633 85.705 270.723 84.97C269.428 83.92 267.188 83.5 265.998 83.325L263.618 82.975C261.833 82.695 260.818 82.625 260.013 82.275C259.628 82.1 258.963 81.75 258.963 80.98C258.963 80.49 259.278 79.895 259.978 79.545C260.538 79.265 261.518 79.16 262.288 79.16C263.023 79.16 264.038 79.265 264.703 79.58C265.438 79.93 265.718 80.455 265.718 81.05V81.12H271.598C271.563 79.02 270.758 77.48 268.518 76.465C267.783 76.15 266.138 75.52 262.253 75.52C258.858 75.52 256.898 76.045 255.603 76.815C253.853 77.83 252.908 79.265 252.908 81.4C252.908 82.765 253.293 84.235 254.833 85.18C255.603 85.67 256.828 86.055 259.698 86.475L261.798 86.79C263.058 86.965 263.968 87.07 264.808 87.385C265.368 87.595 266.138 87.98 266.138 88.96C266.138 89.31 265.998 89.94 265.158 90.36C264.773 90.57 264.073 90.78 262.673 90.78C260.818 90.78 260.118 90.43 259.908 90.325C259.383 90.045 258.753 89.485 258.753 88.505V88.4H252.733ZM274.013 80H277.793V89.31C277.793 90.395 277.828 91.97 279.088 93.16C280.453 94.455 282.693 94.525 283.953 94.525C285.458 94.525 286.648 94.42 288.153 93.965V90.115C287.488 90.325 286.893 90.395 286.333 90.395C285.038 90.395 284.548 89.905 284.443 89.8C283.953 89.275 283.953 88.435 283.953 87.77V80H288.083V76.22H283.953V70.935H277.793V76.22H274.013V80ZM298.124 88.4V88.47C298.124 89.415 298.264 91.13 299.769 92.6C301.694 94.455 304.844 94.7 308.554 94.7C311.529 94.7 314.469 94.56 316.394 92.495C317.269 91.55 317.829 90.325 317.829 88.715C317.829 86.86 317.024 85.705 316.114 84.97C314.819 83.92 312.579 83.5 311.389 83.325L309.009 82.975C307.224 82.695 306.209 82.625 305.404 82.275C305.019 82.1 304.354 81.75 304.354 80.98C304.354 80.49 304.669 79.895 305.369 79.545C305.929 79.265 306.909 79.16 307.679 79.16C308.414 79.16 309.429 79.265 310.094 79.58C310.829 79.93 311.109 80.455 311.109 81.05V81.12H316.989C316.954 79.02 316.149 77.48 313.909 76.465C313.174 76.15 311.529 75.52 307.644 75.52C304.249 75.52 302.289 76.045 300.994 76.815C299.244 77.83 298.299 79.265 298.299 81.4C298.299 82.765 298.684 84.235 300.224 85.18C300.994 85.67 302.219 86.055 305.089 86.475L307.189 86.79C308.449 86.965 309.359 87.07 310.199 87.385C310.759 87.595 311.529 87.98 311.529 88.96C311.529 89.31 311.389 89.94 310.549 90.36C310.164 90.57 309.464 90.78 308.064 90.78C306.209 90.78 305.509 90.43 305.299 90.325C304.774 90.045 304.144 89.485 304.144 88.505V88.4H298.124ZM321.084 69.5V94H327.244V85.95C327.244 84.41 327.349 82.38 328.574 81.015C329.449 80.035 330.534 79.755 331.724 79.755C333.124 79.755 333.999 80.21 334.489 80.735C335.434 81.75 335.434 83.465 335.434 84.375V94H341.594V83.29C341.594 81.33 341.559 78.46 338.934 76.815C337.639 76.01 335.714 75.625 333.719 75.625C332.809 75.625 331.024 75.695 329.589 76.325C328.539 76.78 327.804 77.41 327.244 78.145V69.5H321.084ZM359.793 75.94C359.233 75.835 358.743 75.8 358.183 75.8C356.888 75.8 355.663 76.01 354.508 76.605C353.108 77.34 352.268 78.355 351.813 79.125V76.22H345.898V94H352.058V87.315C352.058 85.985 352.268 82.66 354.578 81.085C355.488 80.455 356.783 80.105 358.498 80.105C358.953 80.105 359.478 80.14 359.793 80.175V75.94ZM367.357 83.115C367.462 81.785 368.127 80.875 368.827 80.315C369.877 79.475 371.032 79.335 372.292 79.335C373.447 79.335 374.882 79.44 375.932 80.385C376.422 80.805 377.122 81.68 377.192 83.115H367.357ZM377.087 88.19C376.842 89.345 376.177 89.94 375.512 90.255C374.637 90.675 373.237 90.745 372.327 90.745C371.137 90.745 369.457 90.605 368.407 89.555C367.812 88.96 367.252 87.91 367.252 86.37V86.265H383.527V85.635C383.527 83.5 383.317 80.63 381.112 78.425C378.697 76.01 375.022 75.555 372.257 75.555C369.457 75.555 366.062 75.94 363.612 78.32C361.267 80.595 360.952 83.57 360.952 85.39C360.952 87.595 361.372 90.01 363.402 92.04C365.677 94.315 368.722 94.665 372.747 94.665C375.617 94.665 377.752 94.455 379.432 93.72C381.847 92.635 383.072 90.465 383.282 88.19H377.087ZM397.481 79.58C398.496 79.58 400.141 79.79 401.296 81.225C402.101 82.24 402.486 83.78 402.486 85.075C402.486 86.615 401.996 88.33 400.911 89.415C399.896 90.43 398.741 90.64 397.551 90.64C396.291 90.64 395.066 90.395 394.051 89.31C393.071 88.26 392.616 86.615 392.616 85.11C392.616 83.57 392.966 82.1 393.841 81.085C394.891 79.86 396.291 79.58 397.481 79.58ZM402.591 91.9V94H408.471V69.5H402.311V78.25C401.751 77.41 401.121 76.885 400.071 76.43C398.671 75.8 397.551 75.66 395.941 75.66C393.946 75.66 391.216 75.835 388.941 77.97C387.576 79.265 386.176 81.505 386.176 85.18C386.176 88.26 387.121 90.64 388.556 92.145C390.691 94.385 393.351 94.56 395.731 94.56C397.341 94.56 398.811 94.49 400.106 93.93C401.331 93.405 401.996 92.67 402.451 91.9H402.591ZM411.805 88.4V88.47C411.805 89.415 411.945 91.13 413.45 92.6C415.375 94.455 418.525 94.7 422.235 94.7C425.21 94.7 428.15 94.56 430.075 92.495C430.95 91.55 431.51 90.325 431.51 88.715C431.51 86.86 430.705 85.705 429.795 84.97C428.5 83.92 426.26 83.5 425.07 83.325L422.69 82.975C420.905 82.695 419.89 82.625 419.085 82.275C418.7 82.1 418.035 81.75 418.035 80.98C418.035 80.49 418.35 79.895 419.05 79.545C419.61 79.265 420.59 79.16 421.36 79.16C422.095 79.16 423.11 79.265 423.775 79.58C424.51 79.93 424.79 80.455 424.79 81.05V81.12H430.67C430.635 79.02 429.83 77.48 427.59 76.465C426.855 76.15 425.21 75.52 421.325 75.52C417.93 75.52 415.97 76.045 414.675 76.815C412.925 77.83 411.98 79.265 411.98 81.4C411.98 82.765 412.365 84.235 413.905 85.18C414.675 85.67 415.9 86.055 418.77 86.475L420.87 86.79C422.13 86.965 423.04 87.07 423.88 87.385C424.44 87.595 425.21 87.98 425.21 88.96C425.21 89.31 425.07 89.94 424.23 90.36C423.845 90.57 423.145 90.78 421.745 90.78C419.89 90.78 419.19 90.43 418.98 90.325C418.455 90.045 417.825 89.485 417.825 88.505V88.4H411.805ZM453.714 79.545C454.834 79.545 456.374 79.755 457.494 80.875C458.404 81.82 458.964 83.36 458.964 85.11C458.964 86.86 458.404 88.4 457.494 89.345C456.374 90.465 454.834 90.675 453.714 90.675C452.594 90.675 451.054 90.465 449.934 89.345C449.024 88.4 448.464 86.86 448.464 85.11C448.464 83.36 449.024 81.82 449.934 80.875C451.054 79.755 452.594 79.545 453.714 79.545ZM465.334 85.11C465.334 82.765 464.809 79.965 462.254 77.9C459.664 75.8 456.024 75.555 453.714 75.555C451.404 75.555 447.764 75.8 445.174 77.9C442.619 79.965 442.094 82.765 442.094 85.11C442.094 87.455 442.619 90.255 445.174 92.32C447.764 94.42 451.404 94.665 453.714 94.665C456.024 94.665 459.664 94.42 462.254 92.32C464.809 90.255 465.334 87.455 465.334 85.11ZM481.723 76.22H477.068V75.38C477.068 74.925 477.138 73.98 477.803 73.42C478.293 73 479.098 72.825 479.903 72.825C480.428 72.825 481.128 72.895 481.688 73.035V69.43C480.323 69.15 479.203 69.045 477.803 69.045C476.333 69.045 473.953 69.15 472.448 70.62C471.678 71.355 470.908 72.65 470.908 74.82V76.22H467.163V80H470.908V94H477.068V80H481.723V76.22ZM492.529 69.5V94H498.689V85.95C498.689 84.41 498.794 82.38 500.019 81.015C500.894 80.035 501.979 79.755 503.169 79.755C504.569 79.755 505.444 80.21 505.934 80.735C506.879 81.75 506.879 83.465 506.879 84.375V94H513.039V83.29C513.039 81.33 513.004 78.46 510.379 76.815C509.084 76.01 507.159 75.625 505.164 75.625C504.254 75.625 502.469 75.695 501.034 76.325C499.984 76.78 499.249 77.41 498.689 78.145V69.5H492.529ZM528.123 79.545C529.243 79.545 530.783 79.755 531.903 80.875C532.813 81.82 533.373 83.36 533.373 85.11C533.373 86.86 532.813 88.4 531.903 89.345C530.783 90.465 529.243 90.675 528.123 90.675C527.003 90.675 525.463 90.465 524.343 89.345C523.433 88.4 522.873 86.86 522.873 85.11C522.873 83.36 523.433 81.82 524.343 80.875C525.463 79.755 527.003 79.545 528.123 79.545ZM539.743 85.11C539.743 82.765 539.218 79.965 536.663 77.9C534.073 75.8 530.433 75.555 528.123 75.555C525.813 75.555 522.173 75.8 519.583 77.9C517.028 79.965 516.503 82.765 516.503 85.11C516.503 87.455 517.028 90.255 519.583 92.32C522.173 94.42 525.813 94.665 528.123 94.665C530.433 94.665 534.073 94.42 536.663 92.32C539.218 90.255 539.743 87.455 539.743 85.11ZM554.172 79.58C555.887 79.58 557.042 80.175 557.812 81.05C558.617 81.96 559.107 83.36 559.107 85.075C559.107 85.705 559.037 87.77 557.812 89.205C556.832 90.36 555.677 90.64 554.277 90.64C552.422 90.64 551.302 89.94 550.637 89.275C549.657 88.26 549.237 86.615 549.237 85.18C549.237 83.605 549.762 81.995 550.742 80.945C551.792 79.825 553.052 79.58 554.172 79.58ZM543.252 76.22V100.475H549.412V92.11C549.972 92.845 550.847 93.58 551.792 93.965C552.352 94.21 553.472 94.56 555.887 94.56C558.092 94.56 560.717 94.385 562.887 92.285C565.092 90.115 565.477 87.175 565.477 84.97C565.477 82.835 565.127 80 562.887 77.9C560.787 75.905 558.197 75.66 555.957 75.66C554.697 75.66 553.017 75.765 551.547 76.5C550.742 76.92 549.902 77.585 549.237 78.46H549.132V76.22H543.252ZM574.554 83.115C574.659 81.785 575.324 80.875 576.024 80.315C577.074 79.475 578.229 79.335 579.489 79.335C580.644 79.335 582.079 79.44 583.129 80.385C583.619 80.805 584.319 81.68 584.389 83.115H574.554ZM584.284 88.19C584.039 89.345 583.374 89.94 582.709 90.255C581.834 90.675 580.434 90.745 579.524 90.745C578.334 90.745 576.654 90.605 575.604 89.555C575.009 88.96 574.449 87.91 574.449 86.37V86.265H590.724V85.635C590.724 83.5 590.514 80.63 588.309 78.425C585.894 76.01 582.219 75.555 579.454 75.555C576.654 75.555 573.259 75.94 570.809 78.32C568.464 80.595 568.149 83.57 568.149 85.39C568.149 87.595 568.569 90.01 570.599 92.04C572.874 94.315 575.919 94.665 579.944 94.665C582.814 94.665 584.949 94.455 586.629 93.72C589.044 92.635 590.269 90.465 590.479 88.19H584.284Z" fill="black"/>
</g>
<defs>
<filter id="filter0_d_2_3" x="0.245605" y="0.254883" width="708.779" height="120.22" filterUnits="userSpaceOnUse" color-interpolation-filters="sRGB">
<feFlood flood-opacity="0" result="BackgroundImageFix"/>
<feColorMatrix in="SourceAlpha" type="matrix" values="0 0 0 0 0 0 0 0 0 0 0 0 0 0 0 0 0 0 127 0" result="hardAlpha"/>
<feOffset/>
<feGaussianBlur stdDeviation="10"/>
<feComposite in2="hardAlpha" operator="out"/>
<feColorMatrix type="matrix" values="0 0 0 0 1 0 0 0 0 1 0 0 0 0 1 0 0 0 0.7 0"/>
<feBlend mode="normal" in2="BackgroundImageFix" result="effect1_dropShadow_2_3"/>
<feBlend mode="normal" in="SourceGraphic" in2="effect1_dropShadow_2_3" result="shape"/>
</filter>
</defs>
</svg>
