<svg width="536" height="170" viewBox="0 0 536 170" fill="none" xmlns="http://www.w3.org/2000/svg">
<rect x="114" y="105" width="410" height="54" fill="#FDC500"/>
<g filter="url(#filter0_d_2_3)">
<path d="M34.51 30.965L28.315 20.5H20.685L31.01 35.655V45H37.45V35.655L47.775 20.5H40.635L34.51 30.965ZM56.1318 30.545C57.2518 30.545 58.7918 30.755 59.9118 31.875C60.8218 32.82 61.3818 34.36 61.3818 36.11C61.3818 37.86 60.8218 39.4 59.9118 40.345C58.7918 41.465 57.2518 41.675 56.1318 41.675C55.0118 41.675 53.4718 41.465 52.3518 40.345C51.4418 39.4 50.8818 37.86 50.8818 36.11C50.8818 34.36 51.4418 32.82 52.3518 31.875C53.4718 30.755 55.0118 30.545 56.1318 30.545ZM67.7518 36.11C67.7518 33.765 67.2268 30.965 64.6718 28.9C62.0818 26.8 58.4418 26.555 56.1318 26.555C53.8218 26.555 50.1818 26.8 47.5918 28.9C45.0368 30.965 44.5118 33.765 44.5118 36.11C44.5118 38.455 45.0368 41.255 47.5918 43.32C50.1818 45.42 53.8218 45.665 56.1318 45.665C58.4418 45.665 62.0818 45.42 64.6718 43.32C67.2268 41.255 67.7518 38.455 67.7518 36.11ZM85.82 45H91.56V27.22H85.4V35.795C85.4 37.265 85.295 39.015 84.175 40.24C83.23 41.255 81.97 41.43 81.06 41.43C79.625 41.43 78.785 40.975 78.33 40.52C77.35 39.575 77.315 38.07 77.315 37.055V27.22H71.155V38.175C71.155 39.645 71.26 42.2 73.01 43.845C74.62 45.35 77.28 45.56 78.855 45.56C80.85 45.56 82.145 45.315 83.02 44.93C84.525 44.3 85.435 43.11 85.68 42.795H85.82V45ZM109.867 26.94C109.307 26.835 108.817 26.8 108.257 26.8C106.962 26.8 105.737 27.01 104.582 27.605C103.182 28.34 102.342 29.355 101.887 30.125V27.22H95.9719V45H102.132V38.315C102.132 36.985 102.342 33.66 104.652 32.085C105.562 31.455 106.857 31.105 108.572 31.105C109.027 31.105 109.552 31.14 109.867 31.175V26.94ZM126.81 34.08V20.5H120.65V45H126.81V39.505L129.19 37.44L134.825 45H141.685L133.04 34.29L141.3 27.22H134.335L126.81 34.08ZM143.482 24.385H149.642V20.255H143.482V24.385ZM143.482 27.22V45H149.642V27.22H143.482ZM154.043 27.22V45H160.203V36.845C160.203 34.745 160.728 32.995 161.638 32.015C162.198 31.42 163.213 30.755 164.858 30.755C166.083 30.755 166.888 31.14 167.343 31.595C168.253 32.47 168.393 33.94 168.393 35.375V45H174.553V34.01C174.553 31.875 174.273 29.425 171.963 27.92C171.508 27.605 169.758 26.625 166.398 26.625C165.348 26.625 163.843 26.73 162.443 27.43C161.463 27.92 160.588 28.655 159.958 29.39V27.22H154.043ZM189.323 30.58C190.338 30.58 191.983 30.79 193.138 32.225C193.943 33.24 194.328 34.78 194.328 36.075C194.328 37.615 193.838 39.33 192.753 40.415C191.738 41.43 190.583 41.64 189.393 41.64C188.133 41.64 186.908 41.395 185.893 40.31C184.913 39.26 184.458 37.615 184.458 36.11C184.458 34.57 184.808 33.1 185.683 32.085C186.733 30.86 188.133 30.58 189.323 30.58ZM194.433 42.9V45H200.313V20.5H194.153V29.25C193.593 28.41 192.963 27.885 191.913 27.43C190.513 26.8 189.393 26.66 187.783 26.66C185.788 26.66 183.058 26.835 180.783 28.97C179.418 30.265 178.018 32.505 178.018 36.18C178.018 39.26 178.963 41.64 180.398 43.145C182.533 45.385 185.193 45.56 187.573 45.56C189.183 45.56 190.653 45.49 191.948 44.93C193.173 44.405 193.838 43.67 194.293 42.9H194.433ZM204.732 27.22V45H210.892V36.845C210.892 34.745 211.417 32.995 212.327 32.015C212.887 31.42 213.902 30.755 215.547 30.755C216.772 30.755 217.577 31.14 218.032 31.595C218.942 32.47 219.082 33.94 219.082 35.375V45H225.242V34.01C225.242 31.875 224.962 29.425 222.652 27.92C222.197 27.605 220.447 26.625 217.087 26.625C216.037 26.625 214.532 26.73 213.132 27.43C212.152 27.92 211.277 28.655 210.647 29.39V27.22H204.732ZM235.111 34.115C235.216 32.785 235.881 31.875 236.581 31.315C237.631 30.475 238.786 30.335 240.046 30.335C241.201 30.335 242.636 30.44 243.686 31.385C244.176 31.805 244.876 32.68 244.946 34.115H235.111ZM244.841 39.19C244.596 40.345 243.931 40.94 243.266 41.255C242.391 41.675 240.991 41.745 240.081 41.745C238.891 41.745 237.211 41.605 236.161 40.555C235.566 39.96 235.006 38.91 235.006 37.37V37.265H251.281V36.635C251.281 34.5 251.071 31.63 248.866 29.425C246.451 27.01 242.776 26.555 240.011 26.555C237.211 26.555 233.816 26.94 231.366 29.32C229.021 31.595 228.706 34.57 228.706 36.39C228.706 38.595 229.126 41.01 231.156 43.04C233.431 45.315 236.476 45.665 240.501 45.665C243.371 45.665 245.506 45.455 247.186 44.72C249.601 43.635 250.826 41.465 251.036 39.19H244.841ZM253.481 39.4V39.47C253.481 40.415 253.621 42.13 255.126 43.6C257.051 45.455 260.201 45.7 263.911 45.7C266.886 45.7 269.826 45.56 271.751 43.495C272.626 42.55 273.186 41.325 273.186 39.715C273.186 37.86 272.381 36.705 271.471 35.97C270.176 34.92 267.936 34.5 266.746 34.325L264.366 33.975C262.581 33.695 261.566 33.625 260.761 33.275C260.376 33.1 259.711 32.75 259.711 31.98C259.711 31.49 260.026 30.895 260.726 30.545C261.286 30.265 262.266 30.16 263.036 30.16C263.771 30.16 264.786 30.265 265.451 30.58C266.186 30.93 266.466 31.455 266.466 32.05V32.12H272.346C272.311 30.02 271.506 28.48 269.266 27.465C268.531 27.15 266.886 26.52 263.001 26.52C259.606 26.52 257.646 27.045 256.351 27.815C254.601 28.83 253.656 30.265 253.656 32.4C253.656 33.765 254.041 35.235 255.581 36.18C256.351 36.67 257.576 37.055 260.446 37.475L262.546 37.79C263.806 37.965 264.716 38.07 265.556 38.385C266.116 38.595 266.886 38.98 266.886 39.96C266.886 40.31 266.746 40.94 265.906 41.36C265.521 41.57 264.821 41.78 263.421 41.78C261.566 41.78 260.866 41.43 260.656 41.325C260.131 41.045 259.501 40.485 259.501 39.505V39.4H253.481ZM275.356 39.4V39.47C275.356 40.415 275.496 42.13 277.001 43.6C278.926 45.455 282.076 45.7 285.786 45.7C288.761 45.7 291.701 45.56 293.626 43.495C294.501 42.55 295.061 41.325 295.061 39.715C295.061 37.86 294.256 36.705 293.346 35.97C292.051 34.92 289.811 34.5 288.621 34.325L286.241 33.975C284.456 33.695 283.441 33.625 282.636 33.275C282.251 33.1 281.586 32.75 281.586 31.98C281.586 31.49 281.901 30.895 282.601 30.545C283.161 30.265 284.141 30.16 284.911 30.16C285.646 30.16 286.661 30.265 287.326 30.58C288.061 30.93 288.341 31.455 288.341 32.05V32.12H294.221C294.186 30.02 293.381 28.48 291.141 27.465C290.406 27.15 288.761 26.52 284.876 26.52C281.481 26.52 279.521 27.045 278.226 27.815C276.476 28.83 275.531 30.265 275.531 32.4C275.531 33.765 275.916 35.235 277.456 36.18C278.226 36.67 279.451 37.055 282.321 37.475L284.421 37.79C285.681 37.965 286.591 38.07 287.431 38.385C287.991 38.595 288.761 38.98 288.761 39.96C288.761 40.31 288.621 40.94 287.781 41.36C287.396 41.57 286.696 41.78 285.296 41.78C283.441 41.78 282.741 41.43 282.531 41.325C282.006 41.045 281.376 40.485 281.376 39.505V39.4H275.356ZM327.17 33.52C327.135 31.98 326.715 29.67 323.95 28.06C322.935 27.465 320.8 26.555 316.635 26.555C313.94 26.555 310.405 26.975 308.025 29.495C306.87 30.72 305.645 32.855 305.645 36.39C305.645 40.275 307.185 42.27 308.06 43.145C310.405 45.49 313.94 45.665 316.81 45.665C320.03 45.665 323.215 45.49 325.35 43.285C326.225 42.375 327.24 40.765 327.24 38.42V38.315H321.29C321.255 39.505 320.695 40.45 319.96 40.975C319.085 41.605 317.86 41.675 317.055 41.675C315.9 41.675 314.5 41.535 313.45 40.485C312.645 39.68 312.015 38.28 312.015 36.285C312.015 35.655 312.05 33.45 313.345 31.98C314.325 30.86 315.655 30.545 317.02 30.545C318 30.545 319.12 30.72 319.925 31.21C321.08 31.945 321.22 32.995 321.255 33.52H327.17ZM344.305 37.09C344.305 38.98 343.78 40.065 343.045 40.8C341.96 41.885 340.7 42.025 339.58 42.025C338.845 42.025 337.9 41.99 337.235 41.465C336.815 41.15 336.5 40.59 336.5 39.96C336.5 39.12 337.025 38.665 337.34 38.455C337.935 38.07 338.81 37.93 339.825 37.825L341.12 37.685C342.87 37.51 343.605 37.405 344.305 36.81V37.09ZM337.025 32.96C337.06 31.875 337.725 31.28 338.04 31.035C338.88 30.44 340.28 30.405 340.7 30.405C341.505 30.405 342.485 30.545 343.15 30.895C344.06 31.385 344.27 32.085 344.27 32.645C344.27 33.065 344.13 33.52 343.85 33.8C343.325 34.36 342.24 34.43 340.595 34.57L337.795 34.815C335.94 34.99 332.965 35.2 331.285 36.81C330.305 37.755 329.955 38.98 329.955 40.31C329.955 42.62 331.075 43.88 332.02 44.545C333.525 45.56 335.8 45.665 337.55 45.665C338.88 45.665 340.385 45.595 341.785 45.14C342.94 44.755 343.815 44.195 344.55 43.25H344.69L345.075 45H351.795V44.51C351.2 44.405 350.92 43.985 350.815 43.81C350.78 43.705 350.535 43.25 350.535 41.675V33.765C350.535 32.295 350.5 30.44 349.03 28.9C347.035 26.8 343.08 26.555 340.595 26.555C337.41 26.555 334.505 26.835 332.51 28.795C331.46 29.845 330.795 31.21 330.795 32.96H337.025ZM355.225 27.22V45H361.385V36.845C361.385 34.745 361.91 32.995 362.82 32.015C363.38 31.42 364.395 30.755 366.04 30.755C367.265 30.755 368.07 31.14 368.525 31.595C369.435 32.47 369.575 33.94 369.575 35.375V45H375.735V34.01C375.735 31.875 375.455 29.425 373.145 27.92C372.69 27.605 370.94 26.625 367.58 26.625C366.53 26.625 365.025 26.73 363.625 27.43C362.645 27.92 361.77 28.655 361.14 29.39V27.22H355.225ZM388.208 27.22V45H394.368V36.285C394.368 34.955 394.473 32.925 395.838 31.665C396.608 30.965 397.483 30.72 398.428 30.72C399.128 30.72 400.003 30.86 400.668 31.49C401.648 32.4 401.718 33.73 401.718 34.605V45H407.878V35.795C407.878 34.675 408.088 32.855 409.173 31.77C409.698 31.245 410.538 30.72 411.868 30.72C413.093 30.72 413.828 31.21 414.213 31.56C414.948 32.26 415.228 33.38 415.228 34.745V45H421.388V34.815C421.388 32.96 421.283 30.195 419.463 28.41C417.783 26.765 415.193 26.59 413.758 26.59C412.148 26.59 410.608 26.8 409.138 27.605C408.298 28.06 407.318 28.795 406.513 30.02C406.198 29.215 405.638 28.165 404.343 27.43C403.223 26.765 401.998 26.59 400.668 26.59C399.093 26.59 397.763 26.765 396.398 27.5C395.278 28.095 394.508 28.9 393.948 29.705V27.22H388.208ZM439.563 37.09C439.563 38.98 439.038 40.065 438.303 40.8C437.218 41.885 435.958 42.025 434.838 42.025C434.103 42.025 433.158 41.99 432.493 41.465C432.073 41.15 431.758 40.59 431.758 39.96C431.758 39.12 432.283 38.665 432.598 38.455C433.193 38.07 434.068 37.93 435.083 37.825L436.378 37.685C438.128 37.51 438.863 37.405 439.563 36.81V37.09ZM432.283 32.96C432.318 31.875 432.983 31.28 433.298 31.035C434.138 30.44 435.538 30.405 435.958 30.405C436.763 30.405 437.743 30.545 438.408 30.895C439.318 31.385 439.528 32.085 439.528 32.645C439.528 33.065 439.388 33.52 439.108 33.8C438.583 34.36 437.498 34.43 435.853 34.57L433.053 34.815C431.198 34.99 428.223 35.2 426.543 36.81C425.563 37.755 425.213 38.98 425.213 40.31C425.213 42.62 426.333 43.88 427.278 44.545C428.783 45.56 431.058 45.665 432.808 45.665C434.138 45.665 435.643 45.595 437.043 45.14C438.198 44.755 439.073 44.195 439.808 43.25H439.948L440.333 45H447.053V44.51C446.458 44.405 446.178 43.985 446.073 43.81C446.038 43.705 445.793 43.25 445.793 41.675V33.765C445.793 32.295 445.758 30.44 444.288 28.9C442.293 26.8 438.338 26.555 435.853 26.555C432.668 26.555 429.763 26.835 427.768 28.795C426.718 29.845 426.053 31.21 426.053 32.96H432.283ZM456.644 34.08V20.5H450.484V45H456.644V39.505L459.024 37.44L464.659 45H471.519L462.874 34.29L471.134 27.22H464.169L456.644 34.08ZM478.026 34.115C478.131 32.785 478.796 31.875 479.496 31.315C480.546 30.475 481.701 30.335 482.961 30.335C484.116 30.335 485.551 30.44 486.601 31.385C487.091 31.805 487.791 32.68 487.861 34.115H478.026ZM487.756 39.19C487.511 40.345 486.846 40.94 486.181 41.255C485.306 41.675 483.906 41.745 482.996 41.745C481.806 41.745 480.126 41.605 479.076 40.555C478.481 39.96 477.921 38.91 477.921 37.37V37.265H494.196V36.635C494.196 34.5 493.986 31.63 491.781 29.425C489.366 27.01 485.691 26.555 482.926 26.555C480.126 26.555 476.731 26.94 474.281 29.32C471.936 31.595 471.621 34.57 471.621 36.39C471.621 38.595 472.041 41.01 474.071 43.04C476.346 45.315 479.391 45.665 483.416 45.665C486.286 45.665 488.421 45.455 490.101 44.72C492.516 43.635 493.741 41.465 493.951 39.19H487.756ZM21.455 80H25.235V89.31C25.235 90.395 25.27 91.97 26.53 93.16C27.895 94.455 30.135 94.525 31.395 94.525C32.9 94.525 34.09 94.42 35.595 93.965V90.115C34.93 90.325 34.335 90.395 33.775 90.395C32.48 90.395 31.99 89.905 31.885 89.8C31.395 89.275 31.395 88.435 31.395 87.77V80H35.525V76.22H31.395V70.935H25.235V76.22H21.455V80ZM38.4817 69.5V94H44.6417V85.95C44.6417 84.41 44.7467 82.38 45.9717 81.015C46.8467 80.035 47.9317 79.755 49.1217 79.755C50.5217 79.755 51.3967 80.21 51.8867 80.735C52.8317 81.75 52.8317 83.465 52.8317 84.375V94H58.9917V83.29C58.9917 81.33 58.9567 78.46 56.3317 76.815C55.0367 76.01 53.1117 75.625 51.1167 75.625C50.2067 75.625 48.4217 75.695 46.9867 76.325C45.9367 76.78 45.2017 77.41 44.6417 78.145V69.5H38.4817ZM68.8611 83.115C68.9661 81.785 69.6311 80.875 70.3311 80.315C71.3811 79.475 72.5361 79.335 73.7961 79.335C74.9511 79.335 76.3861 79.44 77.4361 80.385C77.9261 80.805 78.6261 81.68 78.6961 83.115H68.8611ZM78.5911 88.19C78.3461 89.345 77.6811 89.94 77.0161 90.255C76.1411 90.675 74.7411 90.745 73.8311 90.745C72.6411 90.745 70.9611 90.605 69.9111 89.555C69.3161 88.96 68.7561 87.91 68.7561 86.37V86.265H85.0311V85.635C85.0311 83.5 84.8211 80.63 82.6161 78.425C80.2011 76.01 76.5261 75.555 73.7611 75.555C70.9611 75.555 67.5661 75.94 65.1161 78.32C62.7711 80.595 62.4561 83.57 62.4561 85.39C62.4561 87.595 62.8761 90.01 64.9061 92.04C67.1811 94.315 70.2261 94.665 74.2511 94.665C77.1211 94.665 79.2561 94.455 80.9361 93.72C83.3511 92.635 84.5761 90.465 84.7861 88.19H78.5911ZM110.235 81.96L114.54 94H120L126.16 76.22H120.21L116.71 88.225L112.755 76.22H107.68L103.725 88.225L100.225 76.22H94.2397L100.4 94H105.895L110.235 81.96ZM138.505 79.545C139.625 79.545 141.165 79.755 142.285 80.875C143.195 81.82 143.755 83.36 143.755 85.11C143.755 86.86 143.195 88.4 142.285 89.345C141.165 90.465 139.625 90.675 138.505 90.675C137.385 90.675 135.845 90.465 134.725 89.345C133.815 88.4 133.255 86.86 133.255 85.11C133.255 83.36 133.815 81.82 134.725 80.875C135.845 79.755 137.385 79.545 138.505 79.545ZM150.125 85.11C150.125 82.765 149.6 79.965 147.045 77.9C144.455 75.8 140.815 75.555 138.505 75.555C136.195 75.555 132.555 75.8 129.965 77.9C127.41 79.965 126.885 82.765 126.885 85.11C126.885 87.455 127.41 90.255 129.965 92.32C132.555 94.42 136.195 94.665 138.505 94.665C140.815 94.665 144.455 94.42 147.045 92.32C149.6 90.255 150.125 87.455 150.125 85.11ZM167.528 75.94C166.968 75.835 166.478 75.8 165.918 75.8C164.623 75.8 163.398 76.01 162.243 76.605C160.843 77.34 160.003 78.355 159.548 79.125V76.22H153.633V94H159.793V87.315C159.793 85.985 160.003 82.66 162.313 81.085C163.223 80.455 164.518 80.105 166.233 80.105C166.688 80.105 167.213 80.14 167.528 80.175V75.94ZM170.142 69.5V94H176.302V69.5H170.142ZM191.168 79.58C192.183 79.58 193.828 79.79 194.983 81.225C195.788 82.24 196.173 83.78 196.173 85.075C196.173 86.615 195.683 88.33 194.598 89.415C193.583 90.43 192.428 90.64 191.238 90.64C189.978 90.64 188.753 90.395 187.738 89.31C186.758 88.26 186.303 86.615 186.303 85.11C186.303 83.57 186.653 82.1 187.528 81.085C188.578 79.86 189.978 79.58 191.168 79.58ZM196.278 91.9V94H202.158V69.5H195.998V78.25C195.438 77.41 194.808 76.885 193.758 76.43C192.358 75.8 191.238 75.66 189.628 75.66C187.633 75.66 184.903 75.835 182.628 77.97C181.263 79.265 179.863 81.505 179.863 85.18C179.863 88.26 180.808 90.64 182.243 92.145C184.378 94.385 187.038 94.56 189.418 94.56C191.028 94.56 192.498 94.49 193.793 93.93C195.018 93.405 195.683 92.67 196.138 91.9H196.278ZM225.526 79.545C226.646 79.545 228.186 79.755 229.306 80.875C230.216 81.82 230.776 83.36 230.776 85.11C230.776 86.86 230.216 88.4 229.306 89.345C228.186 90.465 226.646 90.675 225.526 90.675C224.406 90.675 222.866 90.465 221.746 89.345C220.836 88.4 220.276 86.86 220.276 85.11C220.276 83.36 220.836 81.82 221.746 80.875C222.866 79.755 224.406 79.545 225.526 79.545ZM237.146 85.11C237.146 82.765 236.621 79.965 234.066 77.9C231.476 75.8 227.836 75.555 225.526 75.555C223.216 75.555 219.576 75.8 216.986 77.9C214.431 79.965 213.906 82.765 213.906 85.11C213.906 87.455 214.431 90.255 216.986 92.32C219.576 94.42 223.216 94.665 225.526 94.665C227.836 94.665 231.476 94.42 234.066 92.32C236.621 90.255 237.146 87.455 237.146 85.11ZM253.535 76.22H248.88V75.38C248.88 74.925 248.95 73.98 249.615 73.42C250.105 73 250.91 72.825 251.715 72.825C252.24 72.825 252.94 72.895 253.5 73.035V69.43C252.135 69.15 251.015 69.045 249.615 69.045C248.145 69.045 245.765 69.15 244.26 70.62C243.49 71.355 242.72 72.65 242.72 74.82V76.22H238.975V80H242.72V94H248.88V80H253.535V76.22ZM278.201 86.09C278.201 87.98 277.676 89.065 276.941 89.8C275.856 90.885 274.596 91.025 273.476 91.025C272.741 91.025 271.796 90.99 271.131 90.465C270.711 90.15 270.396 89.59 270.396 88.96C270.396 88.12 270.921 87.665 271.236 87.455C271.831 87.07 272.706 86.93 273.721 86.825L275.016 86.685C276.766 86.51 277.501 86.405 278.201 85.81V86.09ZM270.921 81.96C270.956 80.875 271.621 80.28 271.936 80.035C272.776 79.44 274.176 79.405 274.596 79.405C275.401 79.405 276.381 79.545 277.046 79.895C277.956 80.385 278.166 81.085 278.166 81.645C278.166 82.065 278.026 82.52 277.746 82.8C277.221 83.36 276.136 83.43 274.491 83.57L271.691 83.815C269.836 83.99 266.861 84.2 265.181 85.81C264.201 86.755 263.851 87.98 263.851 89.31C263.851 91.62 264.971 92.88 265.916 93.545C267.421 94.56 269.696 94.665 271.446 94.665C272.776 94.665 274.281 94.595 275.681 94.14C276.836 93.755 277.711 93.195 278.446 92.25H278.586L278.971 94H285.691V93.51C285.096 93.405 284.816 92.985 284.711 92.81C284.676 92.705 284.431 92.25 284.431 90.675V82.765C284.431 81.295 284.396 79.44 282.926 77.9C280.931 75.8 276.976 75.555 274.491 75.555C271.306 75.555 268.401 75.835 266.406 77.795C265.356 78.845 264.691 80.21 264.691 81.96H270.921ZM307.755 79.58C308.77 79.58 310.415 79.79 311.57 81.225C312.375 82.24 312.76 83.78 312.76 85.075C312.76 86.615 312.27 88.33 311.185 89.415C310.17 90.43 309.015 90.64 307.825 90.64C306.565 90.64 305.34 90.395 304.325 89.31C303.345 88.26 302.89 86.615 302.89 85.11C302.89 83.57 303.24 82.1 304.115 81.085C305.165 79.86 306.565 79.58 307.755 79.58ZM312.865 91.9V94H318.745V69.5H312.585V78.25C312.025 77.41 311.395 76.885 310.345 76.43C308.945 75.8 307.825 75.66 306.215 75.66C304.22 75.66 301.49 75.835 299.215 77.97C297.85 79.265 296.45 81.505 296.45 85.18C296.45 88.26 297.395 90.64 298.83 92.145C300.965 94.385 303.625 94.56 306.005 94.56C307.615 94.56 309.085 94.49 310.38 93.93C311.605 93.405 312.27 92.67 312.725 91.9H312.865ZM323.164 73.385H329.324V69.255H323.164V73.385ZM323.164 76.22V94H329.324V76.22H323.164ZM346.606 76.22H341.951V75.38C341.951 74.925 342.021 73.98 342.686 73.42C343.176 73 343.981 72.825 344.786 72.825C345.311 72.825 346.011 72.895 346.571 73.035V69.43C345.206 69.15 344.086 69.045 342.686 69.045C341.216 69.045 338.836 69.15 337.331 70.62C336.561 71.355 335.791 72.65 335.791 74.82V76.22H332.046V80H335.791V94H341.951V80H346.606V76.22ZM362.328 76.22H357.673V75.38C357.673 74.925 357.743 73.98 358.408 73.42C358.898 73 359.703 72.825 360.508 72.825C361.033 72.825 361.733 72.895 362.293 73.035V69.43C360.928 69.15 359.808 69.045 358.408 69.045C356.938 69.045 354.558 69.15 353.053 70.62C352.283 71.355 351.513 72.65 351.513 74.82V76.22H347.768V80H351.513V94H357.673V80H362.328V76.22ZM370.531 83.115C370.636 81.785 371.301 80.875 372.001 80.315C373.051 79.475 374.206 79.335 375.466 79.335C376.621 79.335 378.056 79.44 379.106 80.385C379.596 80.805 380.296 81.68 380.366 83.115H370.531ZM380.261 88.19C380.016 89.345 379.351 89.94 378.686 90.255C377.811 90.675 376.411 90.745 375.501 90.745C374.311 90.745 372.631 90.605 371.581 89.555C370.986 88.96 370.426 87.91 370.426 86.37V86.265H386.701V85.635C386.701 83.5 386.491 80.63 384.286 78.425C381.871 76.01 378.196 75.555 375.431 75.555C372.631 75.555 369.236 75.94 366.786 78.32C364.441 80.595 364.126 83.57 364.126 85.39C364.126 87.595 364.546 90.01 366.576 92.04C368.851 94.315 371.896 94.665 375.921 94.665C378.791 94.665 380.926 94.455 382.606 93.72C385.021 92.635 386.246 90.465 386.456 88.19H380.261ZM404.086 75.94C403.526 75.835 403.036 75.8 402.476 75.8C401.181 75.8 399.956 76.01 398.801 76.605C397.401 77.34 396.561 78.355 396.106 79.125V76.22H390.191V94H396.351V87.315C396.351 85.985 396.561 82.66 398.871 81.085C399.781 80.455 401.076 80.105 402.791 80.105C403.246 80.105 403.771 80.14 404.086 80.175V75.94ZM411.649 83.115C411.754 81.785 412.419 80.875 413.119 80.315C414.169 79.475 415.324 79.335 416.584 79.335C417.739 79.335 419.174 79.44 420.224 80.385C420.714 80.805 421.414 81.68 421.484 83.115H411.649ZM421.379 88.19C421.134 89.345 420.469 89.94 419.804 90.255C418.929 90.675 417.529 90.745 416.619 90.745C415.429 90.745 413.749 90.605 412.699 89.555C412.104 88.96 411.544 87.91 411.544 86.37V86.265H427.819V85.635C427.819 83.5 427.609 80.63 425.404 78.425C422.989 76.01 419.314 75.555 416.549 75.555C413.749 75.555 410.354 75.94 407.904 78.32C405.559 80.595 405.244 83.57 405.244 85.39C405.244 87.595 405.664 90.01 407.694 92.04C409.969 94.315 413.014 94.665 417.039 94.665C419.909 94.665 422.044 94.455 423.724 93.72C426.139 92.635 427.364 90.465 427.574 88.19H421.379ZM431.309 76.22V94H437.469V85.845C437.469 83.745 437.994 81.995 438.904 81.015C439.464 80.42 440.479 79.755 442.124 79.755C443.349 79.755 444.154 80.14 444.609 80.595C445.519 81.47 445.659 82.94 445.659 84.375V94H451.819V83.01C451.819 80.875 451.539 78.425 449.229 76.92C448.774 76.605 447.024 75.625 443.664 75.625C442.614 75.625 441.109 75.73 439.709 76.43C438.729 76.92 437.854 77.655 437.224 78.39V76.22H431.309ZM476.808 82.52C476.773 80.98 476.353 78.67 473.588 77.06C472.573 76.465 470.438 75.555 466.273 75.555C463.578 75.555 460.043 75.975 457.663 78.495C456.508 79.72 455.283 81.855 455.283 85.39C455.283 89.275 456.823 91.27 457.698 92.145C460.043 94.49 463.578 94.665 466.448 94.665C469.668 94.665 472.853 94.49 474.988 92.285C475.863 91.375 476.878 89.765 476.878 87.42V87.315H470.928C470.893 88.505 470.333 89.45 469.598 89.975C468.723 90.605 467.498 90.675 466.693 90.675C465.538 90.675 464.138 90.535 463.088 89.485C462.283 88.68 461.653 87.28 461.653 85.285C461.653 84.655 461.688 82.45 462.983 80.98C463.963 79.86 465.293 79.545 466.658 79.545C467.638 79.545 468.758 79.72 469.563 80.21C470.718 80.945 470.858 81.995 470.893 82.52H476.808ZM485.853 83.115C485.958 81.785 486.623 80.875 487.323 80.315C488.373 79.475 489.528 79.335 490.788 79.335C491.943 79.335 493.378 79.44 494.428 80.385C494.918 80.805 495.618 81.68 495.688 83.115H485.853ZM495.583 88.19C495.338 89.345 494.673 89.94 494.008 90.255C493.133 90.675 491.733 90.745 490.823 90.745C489.633 90.745 487.953 90.605 486.903 89.555C486.308 88.96 485.748 87.91 485.748 86.37V86.265H502.023V85.635C502.023 83.5 501.813 80.63 499.608 78.425C497.193 76.01 493.518 75.555 490.753 75.555C487.953 75.555 484.558 75.94 482.108 78.32C479.763 80.595 479.448 83.57 479.448 85.39C479.448 87.595 479.868 90.01 481.898 92.04C484.173 94.315 487.218 94.665 491.243 94.665C494.113 94.665 496.248 94.455 497.928 93.72C500.343 92.635 501.568 90.465 501.778 88.19H495.583ZM36.015 125.22H31.36V124.38C31.36 123.925 31.43 122.98 32.095 122.42C32.585 122 33.39 121.825 34.195 121.825C34.72 121.825 35.42 121.895 35.98 122.035V118.43C34.615 118.15 33.495 118.045 32.095 118.045C30.625 118.045 28.245 118.15 26.74 119.62C25.97 120.355 25.2 121.65 25.2 123.82V125.22H21.455V129H25.2V143H31.36V129H36.015V125.22ZM49.4326 128.545C50.5526 128.545 52.0926 128.755 53.2126 129.875C54.1226 130.82 54.6826 132.36 54.6826 134.11C54.6826 135.86 54.1226 137.4 53.2126 138.345C52.0926 139.465 50.5526 139.675 49.4326 139.675C48.3126 139.675 46.7726 139.465 45.6526 138.345C44.7426 137.4 44.1826 135.86 44.1826 134.11C44.1826 132.36 44.7426 130.82 45.6526 129.875C46.7726 128.755 48.3126 128.545 49.4326 128.545ZM61.0526 134.11C61.0526 131.765 60.5276 128.965 57.9726 126.9C55.3826 124.8 51.7426 124.555 49.4326 124.555C47.1226 124.555 43.4826 124.8 40.8926 126.9C38.3376 128.965 37.8126 131.765 37.8126 134.11C37.8126 136.455 38.3376 139.255 40.8926 141.32C43.4826 143.42 47.1226 143.665 49.4326 143.665C51.7426 143.665 55.3826 143.42 57.9726 141.32C60.5276 139.255 61.0526 136.455 61.0526 134.11ZM78.4558 124.94C77.8958 124.835 77.4058 124.8 76.8458 124.8C75.5508 124.8 74.3258 125.01 73.1708 125.605C71.7708 126.34 70.9308 127.355 70.4758 128.125V125.22H64.5608V143H70.7208V136.315C70.7208 134.985 70.9308 131.66 73.2408 130.085C74.1508 129.455 75.4458 129.105 77.1608 129.105C77.6158 129.105 78.1408 129.14 78.4558 129.175V124.94ZM103.099 135.09C103.099 136.98 102.574 138.065 101.839 138.8C100.754 139.885 99.4935 140.025 98.3735 140.025C97.6385 140.025 96.6935 139.99 96.0285 139.465C95.6085 139.15 95.2935 138.59 95.2935 137.96C95.2935 137.12 95.8185 136.665 96.1335 136.455C96.7285 136.07 97.6035 135.93 98.6185 135.825L99.9135 135.685C101.664 135.51 102.399 135.405 103.099 134.81V135.09ZM95.8185 130.96C95.8535 129.875 96.5185 129.28 96.8335 129.035C97.6735 128.44 99.0735 128.405 99.4935 128.405C100.299 128.405 101.279 128.545 101.944 128.895C102.854 129.385 103.064 130.085 103.064 130.645C103.064 131.065 102.924 131.52 102.644 131.8C102.119 132.36 101.034 132.43 99.3885 132.57L96.5885 132.815C94.7335 132.99 91.7585 133.2 90.0785 134.81C89.0985 135.755 88.7485 136.98 88.7485 138.31C88.7485 140.62 89.8685 141.88 90.8135 142.545C92.3185 143.56 94.5935 143.665 96.3435 143.665C97.6735 143.665 99.1785 143.595 100.579 143.14C101.734 142.755 102.609 142.195 103.344 141.25H103.484L103.869 143H110.589V142.51C109.994 142.405 109.714 141.985 109.609 141.81C109.574 141.705 109.329 141.25 109.329 139.675V131.765C109.329 130.295 109.294 128.44 107.824 126.9C105.829 124.8 101.874 124.555 99.3885 124.555C96.2035 124.555 93.2985 124.835 91.3035 126.795C90.2535 127.845 89.5885 129.21 89.5885 130.96H95.8185Z" fill="white"/>
<path d="M142.873 131.52C142.838 129.98 142.418 127.67 139.653 126.06C138.638 125.465 136.503 124.555 132.338 124.555C129.643 124.555 126.108 124.975 123.728 127.495C122.573 128.72 121.348 130.855 121.348 134.39C121.348 138.275 122.888 140.27 123.763 141.145C126.108 143.49 129.643 143.665 132.513 143.665C135.733 143.665 138.918 143.49 141.053 141.285C141.928 140.375 142.943 138.765 142.943 136.42V136.315H136.993C136.958 137.505 136.398 138.45 135.663 138.975C134.788 139.605 133.563 139.675 132.758 139.675C131.603 139.675 130.203 139.535 129.153 138.485C128.348 137.68 127.718 136.28 127.718 134.285C127.718 133.655 127.753 131.45 129.048 129.98C130.028 128.86 131.358 128.545 132.723 128.545C133.703 128.545 134.823 128.72 135.628 129.21C136.783 129.945 136.923 130.995 136.958 131.52H142.873ZM146.353 118.5V143H152.513V134.95C152.513 133.41 152.618 131.38 153.843 130.015C154.718 129.035 155.803 128.755 156.993 128.755C158.393 128.755 159.268 129.21 159.758 129.735C160.703 130.75 160.703 132.465 160.703 133.375V143H166.863V132.29C166.863 130.33 166.828 127.46 164.203 125.815C162.908 125.01 160.983 124.625 158.988 124.625C158.078 124.625 156.293 124.695 154.858 125.325C153.808 125.78 153.073 126.41 152.513 127.145V118.5H146.353ZM171.167 122.385H177.327V118.255H171.167V122.385ZM171.167 125.22V143H177.327V125.22H171.167ZM181.729 118.5V143H187.889V118.5H181.729ZM202.755 128.58C203.77 128.58 205.415 128.79 206.57 130.225C207.375 131.24 207.76 132.78 207.76 134.075C207.76 135.615 207.27 137.33 206.185 138.415C205.17 139.43 204.015 139.64 202.825 139.64C201.565 139.64 200.34 139.395 199.325 138.31C198.345 137.26 197.89 135.615 197.89 134.11C197.89 132.57 198.24 131.1 199.115 130.085C200.165 128.86 201.565 128.58 202.755 128.58ZM207.865 140.9V143H213.745V118.5H207.585V127.25C207.025 126.41 206.395 125.885 205.345 125.43C203.945 124.8 202.825 124.66 201.215 124.66C199.22 124.66 196.49 124.835 194.215 126.97C192.85 128.265 191.45 130.505 191.45 134.18C191.45 137.26 192.395 139.64 193.83 141.145C195.965 143.385 198.625 143.56 201.005 143.56C202.615 143.56 204.085 143.49 205.38 142.93C206.605 142.405 207.27 141.67 207.725 140.9H207.865ZM223.305 118.5H216.515L218.44 125.535H221.38L223.305 118.5ZM223.163 137.4V137.47C223.163 138.415 223.303 140.13 224.808 141.6C226.733 143.455 229.883 143.7 233.593 143.7C236.568 143.7 239.508 143.56 241.433 141.495C242.308 140.55 242.868 139.325 242.868 137.715C242.868 135.86 242.063 134.705 241.153 133.97C239.858 132.92 237.618 132.5 236.428 132.325L234.048 131.975C232.263 131.695 231.248 131.625 230.443 131.275C230.058 131.1 229.393 130.75 229.393 129.98C229.393 129.49 229.708 128.895 230.408 128.545C230.968 128.265 231.948 128.16 232.718 128.16C233.453 128.16 234.468 128.265 235.133 128.58C235.868 128.93 236.148 129.455 236.148 130.05V130.12H242.028C241.993 128.02 241.188 126.48 238.948 125.465C238.213 125.15 236.568 124.52 232.683 124.52C229.288 124.52 227.328 125.045 226.033 125.815C224.283 126.83 223.338 128.265 223.338 130.4C223.338 131.765 223.723 133.235 225.263 134.18C226.033 134.67 227.258 135.055 230.128 135.475L232.228 135.79C233.488 135.965 234.398 136.07 235.238 136.385C235.798 136.595 236.568 136.98 236.568 137.96C236.568 138.31 236.428 138.94 235.588 139.36C235.203 139.57 234.503 139.78 233.103 139.78C231.248 139.78 230.548 139.43 230.338 139.325C229.813 139.045 229.183 138.485 229.183 137.505V137.4H223.163ZM274.977 131.52C274.942 129.98 274.522 127.67 271.757 126.06C270.742 125.465 268.607 124.555 264.442 124.555C261.747 124.555 258.212 124.975 255.832 127.495C254.677 128.72 253.452 130.855 253.452 134.39C253.452 138.275 254.992 140.27 255.867 141.145C258.212 143.49 261.747 143.665 264.617 143.665C267.837 143.665 271.022 143.49 273.157 141.285C274.032 140.375 275.047 138.765 275.047 136.42V136.315H269.097C269.062 137.505 268.502 138.45 267.767 138.975C266.892 139.605 265.667 139.675 264.862 139.675C263.707 139.675 262.307 139.535 261.257 138.485C260.452 137.68 259.822 136.28 259.822 134.285C259.822 133.655 259.857 131.45 261.152 129.98C262.132 128.86 263.462 128.545 264.827 128.545C265.807 128.545 266.927 128.72 267.732 129.21C268.887 129.945 269.027 130.995 269.062 131.52H274.977ZM292.352 124.94C291.792 124.835 291.302 124.8 290.742 124.8C289.447 124.8 288.222 125.01 287.067 125.605C285.667 126.34 284.827 127.355 284.372 128.125V125.22H278.457V143H284.617V136.315C284.617 134.985 284.827 131.66 287.137 130.085C288.047 129.455 289.342 129.105 291.057 129.105C291.512 129.105 292.037 129.14 292.352 129.175V124.94ZM295.511 149.195C296.806 149.615 297.716 149.685 299.046 149.685C300.796 149.685 302.581 149.545 304.156 148.04C305.346 146.92 306.081 145.135 306.851 143.315L314.411 125.22H308.636L304.506 137.085L299.781 125.22H293.586L301.146 141.915L300.796 142.965C300.551 143.665 300.026 144.645 299.466 145.1C298.941 145.52 298.136 145.695 297.366 145.695C297.121 145.695 296.386 145.66 295.511 145.38V149.195ZM327.453 128.58C329.168 128.58 330.323 129.175 331.093 130.05C331.898 130.96 332.388 132.36 332.388 134.075C332.388 134.705 332.318 136.77 331.093 138.205C330.113 139.36 328.958 139.64 327.558 139.64C325.703 139.64 324.583 138.94 323.918 138.275C322.938 137.26 322.518 135.615 322.518 134.18C322.518 132.605 323.043 130.995 324.023 129.945C325.073 128.825 326.333 128.58 327.453 128.58ZM316.533 125.22V149.475H322.693V141.11C323.253 141.845 324.128 142.58 325.073 142.965C325.633 143.21 326.753 143.56 329.168 143.56C331.373 143.56 333.998 143.385 336.168 141.285C338.373 139.115 338.758 136.175 338.758 133.97C338.758 131.835 338.408 129 336.168 126.9C334.068 124.905 331.478 124.66 329.238 124.66C327.978 124.66 326.298 124.765 324.828 125.5C324.023 125.92 323.183 126.585 322.518 127.46H322.413V125.22H316.533ZM340.591 129H344.371V138.31C344.371 139.395 344.406 140.97 345.666 142.16C347.031 143.455 349.271 143.525 350.531 143.525C352.036 143.525 353.226 143.42 354.731 142.965V139.115C354.066 139.325 353.471 139.395 352.911 139.395C351.616 139.395 351.126 138.905 351.021 138.8C350.531 138.275 350.531 137.435 350.531 136.77V129H354.661V125.22H350.531V119.935H344.371V125.22H340.591V129ZM368.397 128.545C369.517 128.545 371.057 128.755 372.177 129.875C373.087 130.82 373.647 132.36 373.647 134.11C373.647 135.86 373.087 137.4 372.177 138.345C371.057 139.465 369.517 139.675 368.397 139.675C367.277 139.675 365.737 139.465 364.617 138.345C363.707 137.4 363.147 135.86 363.147 134.11C363.147 132.36 363.707 130.82 364.617 129.875C365.737 128.755 367.277 128.545 368.397 128.545ZM380.017 134.11C380.017 131.765 379.492 128.965 376.937 126.9C374.347 124.8 370.707 124.555 368.397 124.555C366.087 124.555 362.447 124.8 359.857 126.9C357.302 128.965 356.777 131.765 356.777 134.11C356.777 136.455 357.302 139.255 359.857 141.32C362.447 143.42 366.087 143.665 368.397 143.665C370.707 143.665 374.347 143.42 376.937 141.32C379.492 139.255 380.017 136.455 380.017 134.11ZM405.24 130.96L409.545 143H415.005L421.165 125.22H415.215L411.715 137.225L407.76 125.22H402.685L398.73 137.225L395.23 125.22H389.245L395.405 143H400.9L405.24 130.96ZM436.18 135.09C436.18 136.98 435.655 138.065 434.92 138.8C433.835 139.885 432.575 140.025 431.455 140.025C430.72 140.025 429.775 139.99 429.11 139.465C428.69 139.15 428.375 138.59 428.375 137.96C428.375 137.12 428.9 136.665 429.215 136.455C429.81 136.07 430.685 135.93 431.7 135.825L432.995 135.685C434.745 135.51 435.48 135.405 436.18 134.81V135.09ZM428.9 130.96C428.935 129.875 429.6 129.28 429.915 129.035C430.755 128.44 432.155 128.405 432.575 128.405C433.38 128.405 434.36 128.545 435.025 128.895C435.935 129.385 436.145 130.085 436.145 130.645C436.145 131.065 436.005 131.52 435.725 131.8C435.2 132.36 434.115 132.43 432.47 132.57L429.67 132.815C427.815 132.99 424.84 133.2 423.16 134.81C422.18 135.755 421.83 136.98 421.83 138.31C421.83 140.62 422.95 141.88 423.895 142.545C425.4 143.56 427.675 143.665 429.425 143.665C430.755 143.665 432.26 143.595 433.66 143.14C434.815 142.755 435.69 142.195 436.425 141.25H436.565L436.95 143H443.67V142.51C443.075 142.405 442.795 141.985 442.69 141.81C442.655 141.705 442.41 141.25 442.41 139.675V131.765C442.41 130.295 442.375 128.44 440.905 126.9C438.91 124.8 434.955 124.555 432.47 124.555C429.285 124.555 426.38 124.835 424.385 126.795C423.335 127.845 422.67 129.21 422.67 130.96H428.9ZM447.1 118.5V143H453.26V118.5H447.1ZM457.661 118.5V143H463.821V118.5H457.661ZM473.788 132.115C473.893 130.785 474.558 129.875 475.258 129.315C476.308 128.475 477.463 128.335 478.723 128.335C479.878 128.335 481.313 128.44 482.363 129.385C482.853 129.805 483.553 130.68 483.623 132.115H473.788ZM483.518 137.19C483.273 138.345 482.608 138.94 481.943 139.255C481.068 139.675 479.668 139.745 478.758 139.745C477.568 139.745 475.888 139.605 474.838 138.555C474.243 137.96 473.683 136.91 473.683 135.37V135.265H489.958V134.635C489.958 132.5 489.748 129.63 487.543 127.425C485.128 125.01 481.453 124.555 478.688 124.555C475.888 124.555 472.493 124.94 470.043 127.32C467.698 129.595 467.383 132.57 467.383 134.39C467.383 136.595 467.803 139.01 469.833 141.04C472.108 143.315 475.153 143.665 479.178 143.665C482.048 143.665 484.183 143.455 485.863 142.72C488.278 141.635 489.503 139.465 489.713 137.19H483.518ZM491.768 129H495.548V138.31C495.548 139.395 495.583 140.97 496.843 142.16C498.208 143.455 500.448 143.525 501.708 143.525C503.213 143.525 504.403 143.42 505.908 142.965V139.115C505.243 139.325 504.648 139.395 504.088 139.395C502.793 139.395 502.303 138.905 502.198 138.8C501.708 138.275 501.708 137.435 501.708 136.77V129H505.838V125.22H501.708V119.935H495.548V125.22H491.768V129ZM509.31 143H515.75V137.26H509.31V143Z" fill="black"/>
</g>
<defs>
<filter id="filter0_d_2_3" x="0.685059" y="0.255005" width="535.064" height="169.43" filterUnits="userSpaceOnUse" color-interpolation-filters="sRGB">
<feFlood flood-opacity="0" result="BackgroundImageFix"/>
<feColorMatrix in="SourceAlpha" type="matrix" values="0 0 0 0 0 0 0 0 0 0 0 0 0 0 0 0 0 0 127 0" result="hardAlpha"/>
<feOffset/>
<feGaussianBlur stdDeviation="10"/>
<feComposite in2="hardAlpha" operator="out"/>
<feColorMatrix type="matrix" values="0 0 0 0 1 0 0 0 0 1 0 0 0 0 1 0 0 0 0.7 0"/>
<feBlend mode="normal" in2="BackgroundImageFix" result="effect1_dropShadow_2_3"/>
<feBlend mode="normal" in="SourceGraphic" in2="effect1_dropShadow_2_3" result="shape"/>
</filter>
</defs>
</svg>
