<svg width="143" height="55" viewBox="0 0 143 55" fill="none" xmlns="http://www.w3.org/2000/svg">
<path d="M41.284 0.599999H39.076V6.24L34.852 0.599999H32.692V9H34.9V3.36L39.136 9H41.284V0.599999ZM46.9014 4.104V2.28H52.0134V0.599999H44.6934V9H46.9014V5.688H51.1014V4.104H46.9014ZM56.9686 2.28V9H59.1766V2.28H62.1046V0.599999H54.0406V2.28H56.9686ZM64.1146 6.276V6.324C64.1146 6.816 64.1866 7.62 64.7986 8.256C65.6506 9.156 67.1746 9.24 68.5066 9.24C70.2346 9.24 71.0386 8.904 71.4706 8.592C71.9986 8.208 72.4546 7.572 72.4546 6.552C72.4546 5.964 72.3106 5.244 71.6026 4.716C71.0386 4.296 70.2106 4.14 69.4666 4.02L68.5066 3.864C67.6186 3.72 67.3066 3.648 67.0666 3.564C66.7906 3.468 66.4666 3.312 66.4666 2.928C66.4666 2.64 66.6106 2.364 66.8866 2.196C67.1746 2.028 67.6306 1.968 68.0386 1.968C68.3266 1.968 69.0106 1.992 69.3826 2.196C69.7426 2.388 69.8626 2.664 69.8866 2.964H72.1186C72.1426 2.328 71.9866 1.512 70.9906 0.924C70.4266 0.588 69.5866 0.36 68.0626 0.36C67.1986 0.36 66.1546 0.431999 65.3146 0.96C64.5586 1.44 64.1626 2.136 64.1626 3.108C64.1626 3.828 64.4386 4.236 64.6306 4.452C65.1706 5.052 66.2386 5.22 67.1506 5.364L68.3626 5.556C68.6626 5.604 69.2866 5.736 69.5266 5.832C70.0306 6.036 70.1146 6.36 70.1146 6.552C70.1146 6.84 69.9346 7.2 69.5626 7.392C69.3346 7.512 68.9986 7.584 68.3626 7.584C67.9306 7.584 67.1746 7.548 66.7426 7.128C66.5746 6.972 66.4186 6.72 66.4186 6.324V6.276H64.1146ZM81.9226 4.104V2.28H87.0346V0.599999H79.7146V9H81.9226V5.688H86.1226V4.104H81.9226ZM94.2612 2.04C94.8252 2.04 95.5092 2.124 96.0852 2.688C96.7812 3.372 96.8532 4.32 96.8532 4.8C96.8532 5.28 96.7812 6.228 96.0852 6.912C95.5092 7.476 94.8252 7.56 94.2612 7.56C93.6972 7.56 93.0132 7.476 92.4372 6.912C91.7412 6.228 91.6692 5.28 91.6692 4.8C91.6692 4.32 91.7412 3.372 92.4372 2.688C93.0132 2.124 93.6972 2.04 94.2612 2.04ZM99.2532 4.8C99.2532 3.816 99.0612 2.592 97.9332 1.584C97.2972 1.02 96.1812 0.36 94.2612 0.36C92.3412 0.36 91.2252 1.02 90.5892 1.584C89.4612 2.592 89.2692 3.816 89.2692 4.8C89.2692 5.784 89.4612 7.008 90.5892 8.016C91.2252 8.58 92.3412 9.24 94.2612 9.24C96.1812 9.24 97.2972 8.58 97.9332 8.016C99.0612 7.008 99.2532 5.784 99.2532 4.8ZM104.461 2.28H106.777C107.017 2.28 107.569 2.292 107.833 2.46C108.025 2.58 108.241 2.844 108.241 3.276C108.241 3.624 108.097 3.864 107.965 3.996C107.653 4.308 107.173 4.332 106.801 4.332H104.461V2.28ZM102.253 9H104.461V5.916H106.525C106.909 5.916 107.365 6.012 107.605 6.216C107.809 6.384 107.977 6.72 108.001 7.236L108.037 7.932C108.061 8.34 108.097 8.628 108.361 9H110.701C110.437 8.556 110.377 8.208 110.353 7.8L110.293 6.852C110.269 6.42 110.269 5.988 109.873 5.58C109.621 5.304 109.237 5.136 108.889 5.076V5.028C109.273 4.932 109.681 4.728 109.969 4.44C110.389 4.032 110.521 3.516 110.521 2.952C110.521 2.496 110.437 1.848 109.945 1.356C109.249 0.659999 108.049 0.599999 107.221 0.599999H102.253V9Z" fill="white"/>
<path d="M2.50662 27.182C2.46262 28.568 2.92462 30.526 4.79462 31.516C6.18062 32.264 7.87462 32.352 9.54662 32.352C11.1306 32.352 12.6046 32.242 13.8586 31.626C14.9806 31.076 16.2786 29.998 16.2786 27.908C16.2786 26.72 15.9046 25.73 14.8706 24.982C13.7926 24.19 12.2746 23.948 11.1746 23.772L8.75462 23.376C7.30262 23.134 5.74062 22.936 4.90462 22.232C4.44262 21.858 4.09062 21.264 4.09062 20.384C4.09062 19.108 4.72862 18.338 5.67462 17.832C6.46662 17.414 7.56662 17.15 9.15062 17.15C11.3066 17.15 12.3626 17.59 12.8246 17.854C14.1666 18.58 14.4086 19.614 14.4306 20.472H15.7506C15.7286 19.262 15.3766 17.964 13.7266 17.018C12.6266 16.38 11.1526 16.094 9.15062 16.094C6.68662 16.094 5.43262 16.578 4.72862 16.996C3.05662 17.986 2.77062 19.548 2.77062 20.516C2.77062 21.506 3.07862 22.298 3.91462 22.936C5.08062 23.816 7.12662 24.102 8.44662 24.322L10.7566 24.718C12.4286 25.004 13.3086 25.268 13.8806 25.686C14.3646 26.038 14.9586 26.698 14.9586 27.842C14.9586 28.722 14.6286 29.954 13.1986 30.68C12.5606 31.01 11.5266 31.296 9.56862 31.296C7.91862 31.296 6.84062 31.098 6.02662 30.79C5.05862 30.416 3.82662 29.602 3.82662 27.314V27.182H2.50662ZM26.4648 17.7V32H27.7408V17.7H33.8568V16.6H20.3488V17.7H26.4648ZM39.2559 25.994L43.0179 17.568L46.7799 25.994H39.2559ZM38.7719 27.094H47.2199L49.5079 32H50.9159L43.8099 16.6H42.2259L35.1199 32H36.5279L38.7719 27.094ZM57.5738 17.7H63.7998C65.2958 17.7 67.0118 17.81 67.8698 18.712C68.3098 19.174 68.5518 19.922 68.5518 20.56C68.5518 21.352 68.2438 22.232 67.6278 22.826C66.6158 23.816 65.0098 23.882 64.2618 23.882H57.5738V17.7ZM56.2978 32H57.5738V24.982H64.2618C65.1198 24.982 66.4398 25.092 67.1878 25.862C67.7598 26.456 67.8478 27.248 67.8698 27.974L67.9578 29.932C68.0018 31.032 68.1998 31.582 68.5078 32H69.9598C69.5638 31.538 69.3438 30.944 69.2998 29.932L69.2118 27.864C69.1678 27.006 69.0578 25.994 68.2878 25.268C68.2438 25.224 67.6278 24.652 66.5718 24.454V24.41C67.4738 24.256 68.3098 23.838 68.8818 23.244C69.4318 22.672 69.8718 21.836 69.8718 20.56C69.8718 19.438 69.4758 18.492 68.9478 17.92C67.8038 16.666 65.6478 16.6 63.7998 16.6H56.2978V32ZM82.0884 30.944L76.2364 16.6H74.8064L81.2304 32H82.9464L89.3704 16.6H87.9404L82.0884 30.944ZM94.7806 16.6V32H96.0566V16.6H94.7806ZM104.685 18.118L115.883 32H117.445V16.6H116.169V30.482L104.993 16.6H103.409V32H104.685V18.118ZM132.543 24.278V25.378H138.945V25.444C138.945 26.918 138.263 28.546 137.449 29.514C135.997 31.23 133.995 31.384 132.323 31.384C130.651 31.384 128.825 31.23 127.197 29.58C126.053 28.436 125.261 26.764 125.261 24.366C125.261 21.638 126.295 19.922 127.285 18.954C128.869 17.414 130.893 17.106 132.499 17.106C133.181 17.106 135.293 17.15 136.789 18.118C138.109 18.976 138.417 20.032 138.505 20.868H139.847C139.781 19.966 139.495 18.954 138.571 18.008C137.053 16.468 134.721 16.05 132.543 16.05C130.629 16.05 128.187 16.336 126.229 18.272C125.173 19.306 123.941 21.198 123.941 24.366C123.941 27.424 125.063 29.25 126.031 30.262C127.923 32.22 130.233 32.44 132.213 32.44C133.687 32.44 135.183 32.33 136.393 31.67C137.361 31.142 138.285 30.218 138.879 28.986H138.923V32H140.199V24.278H132.543ZM14.6987 49.116C14.5667 50.788 13.6867 51.866 12.8947 52.438C11.6847 53.296 10.0127 53.406 8.71466 53.406C6.64666 53.406 4.66666 53.098 3.19266 51.25C2.37866 50.216 1.65266 48.588 1.65266 46.256C1.65266 43.88 2.37866 42.252 3.41266 41.152C4.99666 39.458 7.28466 39.194 8.69266 39.194C9.79266 39.194 12.1687 39.392 13.5987 40.778C14.3687 41.526 14.5887 42.296 14.6107 43.044H15.9307C15.8647 41.658 15.2487 40.69 14.6987 40.096C13.1807 38.49 10.4087 38.138 8.49466 38.138C6.11866 38.138 3.94066 38.71 2.35666 40.426C0.772661 42.142 0.332661 44.254 0.332661 46.234C0.332661 47.906 0.574661 50.084 2.09266 51.976C3.72066 54.022 5.87666 54.462 8.58266 54.462C10.9147 54.462 13.0047 54.154 14.4127 52.724C15.2267 51.888 15.8647 50.59 16.0187 49.116H14.6987ZM23.7209 46.388H34.5889V54H35.8649V38.6H34.5889V45.288H23.7209V38.6H22.4449V54H23.7209V46.388ZM43.2117 38.6V54H44.4877V38.6H43.2117ZM62.9058 52.944H53.1158V38.6H51.8398V54H62.9058V52.944ZM69.4998 39.7H74.2078C76.5178 39.7 78.3878 40.206 79.7078 41.482C81.1818 42.934 81.5118 44.782 81.5118 46.322C81.5118 48.984 80.4778 50.414 79.7958 51.074C78.1458 52.702 75.5278 52.9 73.2618 52.9H69.4998V39.7ZM68.2238 38.6V54H72.8218C75.8138 54 78.8278 53.802 80.8078 51.866C81.7978 50.898 82.8318 49.116 82.8318 46.19C82.8318 44.562 82.4798 42.406 80.8518 40.734C79.1358 38.974 76.7378 38.6 74.1418 38.6H68.2238ZM90.5889 39.7H96.8149C98.3109 39.7 100.027 39.81 100.885 40.712C101.325 41.174 101.567 41.922 101.567 42.56C101.567 43.352 101.259 44.232 100.643 44.826C99.6309 45.816 98.0249 45.882 97.2769 45.882H90.5889V39.7ZM89.3129 54H90.5889V46.982H97.2769C98.1349 46.982 99.4549 47.092 100.203 47.862C100.775 48.456 100.863 49.248 100.885 49.974L100.973 51.932C101.017 53.032 101.215 53.582 101.523 54H102.975C102.579 53.538 102.359 52.944 102.315 51.932L102.227 49.864C102.183 49.006 102.073 47.994 101.303 47.268C101.259 47.224 100.643 46.652 99.5869 46.454V46.41C100.489 46.256 101.325 45.838 101.897 45.244C102.447 44.672 102.887 43.836 102.887 42.56C102.887 41.438 102.491 40.492 101.963 39.92C100.819 38.666 98.6629 38.6 96.8149 38.6H89.3129V54ZM111.033 45.53V39.7H121.879V38.6H109.757V54H122.209V52.9H111.033V46.63H121.021V45.53H111.033ZM129.329 40.118L140.527 54H142.089V38.6H140.813V52.482L129.637 38.6H128.053V54H129.329V40.118Z" fill="white"/>
</svg>
