<svg width="819" height="72" viewBox="0 0 819 72" fill="none" xmlns="http://www.w3.org/2000/svg">
<rect x="116" y="11" width="246" height="49" fill="#FDC500"/>
<g filter="url(#filter0_d_2_3)">
<path d="M40.2466 27.01L45.6716 45H52.3916L59.7416 20.5H53.0216L48.8916 38.665L43.2216 20.5H37.2716L31.5666 38.665L27.4016 20.5H20.6816L28.0316 45H34.7516L40.2466 27.01ZM61.3103 24.385H67.4703V20.255H61.3103V24.385ZM61.3103 27.22V45H67.4703V27.22H61.3103ZM70.1918 31H73.9718V40.31C73.9718 41.395 74.0068 42.97 75.2668 44.16C76.6318 45.455 78.8718 45.525 80.1318 45.525C81.6368 45.525 82.8268 45.42 84.3318 44.965V41.115C83.6668 41.325 83.0718 41.395 82.5118 41.395C81.2168 41.395 80.7268 40.905 80.6218 40.8C80.1318 40.275 80.1318 39.435 80.1318 38.77V31H84.2618V27.22H80.1318V21.935H73.9718V27.22H70.1918V31ZM87.2185 20.5V45H93.3785V36.95C93.3785 35.41 93.4835 33.38 94.7085 32.015C95.5835 31.035 96.6685 30.755 97.8585 30.755C99.2585 30.755 100.133 31.21 100.623 31.735C101.568 32.75 101.568 34.465 101.568 35.375V45H107.728V34.29C107.728 32.33 107.693 29.46 105.068 27.815C103.773 27.01 101.848 26.625 99.8535 26.625C98.9435 26.625 97.1585 26.695 95.7235 27.325C94.6735 27.78 93.9385 28.41 93.3785 29.145V20.5H87.2185ZM387.801 33.52C387.766 31.98 387.346 29.67 384.581 28.06C383.566 27.465 381.431 26.555 377.266 26.555C374.571 26.555 371.036 26.975 368.656 29.495C367.501 30.72 366.276 32.855 366.276 36.39C366.276 40.275 367.816 42.27 368.691 43.145C371.036 45.49 374.571 45.665 377.441 45.665C380.661 45.665 383.846 45.49 385.981 43.285C386.856 42.375 387.871 40.765 387.871 38.42V38.315H381.921C381.886 39.505 381.326 40.45 380.591 40.975C379.716 41.605 378.491 41.675 377.686 41.675C376.531 41.675 375.131 41.535 374.081 40.485C373.276 39.68 372.646 38.28 372.646 36.285C372.646 35.655 372.681 33.45 373.976 31.98C374.956 30.86 376.286 30.545 377.651 30.545C378.631 30.545 379.751 30.72 380.556 31.21C381.711 31.945 381.851 32.995 381.886 33.52H387.801ZM402.061 30.545C403.181 30.545 404.721 30.755 405.841 31.875C406.751 32.82 407.311 34.36 407.311 36.11C407.311 37.86 406.751 39.4 405.841 40.345C404.721 41.465 403.181 41.675 402.061 41.675C400.941 41.675 399.401 41.465 398.281 40.345C397.371 39.4 396.811 37.86 396.811 36.11C396.811 34.36 397.371 32.82 398.281 31.875C399.401 30.755 400.941 30.545 402.061 30.545ZM413.681 36.11C413.681 33.765 413.156 30.965 410.601 28.9C408.011 26.8 404.371 26.555 402.061 26.555C399.751 26.555 396.111 26.8 393.521 28.9C390.966 30.965 390.441 33.765 390.441 36.11C390.441 38.455 390.966 41.255 393.521 43.32C396.111 45.42 399.751 45.665 402.061 45.665C404.371 45.665 408.011 45.42 410.601 43.32C413.156 41.255 413.681 38.455 413.681 36.11ZM417.189 27.22V45H423.349V36.285C423.349 34.955 423.454 32.925 424.819 31.665C425.589 30.965 426.464 30.72 427.409 30.72C428.109 30.72 428.984 30.86 429.649 31.49C430.629 32.4 430.699 33.73 430.699 34.605V45H436.859V35.795C436.859 34.675 437.069 32.855 438.154 31.77C438.679 31.245 439.519 30.72 440.849 30.72C442.074 30.72 442.809 31.21 443.194 31.56C443.929 32.26 444.209 33.38 444.209 34.745V45H450.369V34.815C450.369 32.96 450.264 30.195 448.444 28.41C446.764 26.765 444.174 26.59 442.739 26.59C441.129 26.59 439.589 26.8 438.119 27.605C437.279 28.06 436.299 28.795 435.494 30.02C435.179 29.215 434.619 28.165 433.324 27.43C432.204 26.765 430.979 26.59 429.649 26.59C428.074 26.59 426.744 26.765 425.379 27.5C424.259 28.095 423.489 28.9 422.929 29.705V27.22H417.189ZM460.249 34.115C460.354 32.785 461.019 31.875 461.719 31.315C462.769 30.475 463.924 30.335 465.184 30.335C466.339 30.335 467.774 30.44 468.824 31.385C469.314 31.805 470.014 32.68 470.084 34.115H460.249ZM469.979 39.19C469.734 40.345 469.069 40.94 468.404 41.255C467.529 41.675 466.129 41.745 465.219 41.745C464.029 41.745 462.349 41.605 461.299 40.555C460.704 39.96 460.144 38.91 460.144 37.37V37.265H476.419V36.635C476.419 34.5 476.209 31.63 474.004 29.425C471.589 27.01 467.914 26.555 465.149 26.555C462.349 26.555 458.954 26.94 456.504 29.32C454.159 31.595 453.844 34.57 453.844 36.39C453.844 38.595 454.264 41.01 456.294 43.04C458.569 45.315 461.614 45.665 465.639 45.665C468.509 45.665 470.644 45.455 472.324 44.72C474.739 43.635 475.964 41.465 476.174 39.19H469.979ZM478.619 39.4V39.47C478.619 40.415 478.759 42.13 480.264 43.6C482.189 45.455 485.339 45.7 489.049 45.7C492.024 45.7 494.964 45.56 496.889 43.495C497.764 42.55 498.324 41.325 498.324 39.715C498.324 37.86 497.519 36.705 496.609 35.97C495.314 34.92 493.074 34.5 491.884 34.325L489.504 33.975C487.719 33.695 486.704 33.625 485.899 33.275C485.514 33.1 484.849 32.75 484.849 31.98C484.849 31.49 485.164 30.895 485.864 30.545C486.424 30.265 487.404 30.16 488.174 30.16C488.909 30.16 489.924 30.265 490.589 30.58C491.324 30.93 491.604 31.455 491.604 32.05V32.12H497.484C497.449 30.02 496.644 28.48 494.404 27.465C493.669 27.15 492.024 26.52 488.139 26.52C484.744 26.52 482.784 27.045 481.489 27.815C479.739 28.83 478.794 30.265 478.794 32.4C478.794 33.765 479.179 35.235 480.719 36.18C481.489 36.67 482.714 37.055 485.584 37.475L487.684 37.79C488.944 37.965 489.854 38.07 490.694 38.385C491.254 38.595 492.024 38.98 492.024 39.96C492.024 40.31 491.884 40.94 491.044 41.36C490.659 41.57 489.959 41.78 488.559 41.78C486.704 41.78 486.004 41.43 485.794 41.325C485.269 41.045 484.639 40.485 484.639 39.505V39.4H478.619ZM509.748 27.22V45H515.908V36.845C515.908 34.745 516.433 32.995 517.343 32.015C517.903 31.42 518.918 30.755 520.563 30.755C521.788 30.755 522.593 31.14 523.048 31.595C523.958 32.47 524.098 33.94 524.098 35.375V45H530.258V34.01C530.258 31.875 529.978 29.425 527.668 27.92C527.213 27.605 525.463 26.625 522.103 26.625C521.053 26.625 519.548 26.73 518.148 27.43C517.168 27.92 516.293 28.655 515.663 29.39V27.22H509.748ZM545.342 30.545C546.462 30.545 548.002 30.755 549.122 31.875C550.032 32.82 550.592 34.36 550.592 36.11C550.592 37.86 550.032 39.4 549.122 40.345C548.002 41.465 546.462 41.675 545.342 41.675C544.222 41.675 542.682 41.465 541.562 40.345C540.652 39.4 540.092 37.86 540.092 36.11C540.092 34.36 540.652 32.82 541.562 31.875C542.682 30.755 544.222 30.545 545.342 30.545ZM556.962 36.11C556.962 33.765 556.437 30.965 553.882 28.9C551.292 26.8 547.652 26.555 545.342 26.555C543.032 26.555 539.392 26.8 536.802 28.9C534.247 30.965 533.722 33.765 533.722 36.11C533.722 38.455 534.247 41.255 536.802 43.32C539.392 45.42 543.032 45.665 545.342 45.665C547.652 45.665 551.292 45.42 553.882 43.32C556.437 41.255 556.962 38.455 556.962 36.11ZM560.47 27.22V45H566.63V36.845C566.63 34.745 567.155 32.995 568.065 32.015C568.625 31.42 569.64 30.755 571.285 30.755C572.51 30.755 573.315 31.14 573.77 31.595C574.68 32.47 574.82 33.94 574.82 35.375V45H580.98V34.01C580.98 31.875 580.7 29.425 578.39 27.92C577.935 27.605 576.185 26.625 572.825 26.625C571.775 26.625 570.27 26.73 568.87 27.43C567.89 27.92 567.015 28.655 566.385 29.39V27.22H560.47ZM585.95 36.915H600.265V32.54H585.95V36.915ZM618.092 27.22H613.437V26.38C613.437 25.925 613.507 24.98 614.172 24.42C614.662 24 615.467 23.825 616.272 23.825C616.797 23.825 617.497 23.895 618.057 24.035V20.43C616.692 20.15 615.572 20.045 614.172 20.045C612.702 20.045 610.322 20.15 608.817 21.62C608.047 22.355 607.277 23.65 607.277 25.82V27.22H603.532V31H607.277V45H613.437V31H618.092V27.22ZM635.289 45H641.029V27.22H634.869V35.795C634.869 37.265 634.764 39.015 633.644 40.24C632.699 41.255 631.439 41.43 630.529 41.43C629.094 41.43 628.254 40.975 627.799 40.52C626.819 39.575 626.784 38.07 626.784 37.055V27.22H620.624V38.175C620.624 39.645 620.729 42.2 622.479 43.845C624.089 45.35 626.749 45.56 628.324 45.56C630.319 45.56 631.614 45.315 632.489 44.93C633.994 44.3 634.904 43.11 635.149 42.795H635.289V45ZM645.441 27.22V45H651.601V36.845C651.601 34.745 652.126 32.995 653.036 32.015C653.596 31.42 654.611 30.755 656.256 30.755C657.481 30.755 658.286 31.14 658.741 31.595C659.651 32.47 659.791 33.94 659.791 35.375V45H665.951V34.01C665.951 31.875 665.671 29.425 663.361 27.92C662.906 27.605 661.156 26.625 657.796 26.625C656.746 26.625 655.241 26.73 653.841 27.43C652.861 27.92 651.986 28.655 651.356 29.39V27.22H645.441ZM675.891 35.935C675.891 33.905 676.626 32.54 677.431 31.735C678.306 30.86 679.321 30.51 680.511 30.51C682.016 30.51 683.206 31.07 683.941 31.84C684.851 32.82 685.271 34.5 685.271 35.83C685.271 37.055 684.921 38.735 683.941 39.75C682.996 40.73 681.771 40.94 680.686 40.94C679.671 40.94 678.236 40.765 677.186 39.645C676.346 38.77 675.891 37.44 675.891 35.935ZM670.781 46.085C670.816 47.625 671.306 49.48 673.476 50.67C674.071 50.985 675.856 51.86 680.161 51.86C684.046 51.86 687.161 51.44 689.016 49.585C691.116 47.485 691.186 44.055 691.186 42.83V27.22H685.376V29.285H685.201C684.711 28.585 684.011 27.85 682.926 27.36C682.086 26.975 680.861 26.66 678.971 26.66C676.766 26.66 674.106 27.08 672.041 29.145C670.746 30.475 669.521 32.645 669.521 36.215C669.521 38.42 669.976 40.59 671.901 42.41C673.931 44.3 676.206 44.65 678.726 44.65C680.791 44.65 682.016 44.405 682.821 44.055C683.346 43.81 684.186 43.355 684.886 42.41H685.026V43.74C685.026 44.615 684.956 46.155 683.941 47.1C682.926 48.045 681.176 48.08 680.616 48.08C679.846 48.08 678.761 47.975 678.096 47.66C677.186 47.205 676.976 46.54 676.941 46.085H670.781ZM695.583 24.385H701.743V20.255H695.583V24.385ZM695.583 27.22V45H701.743V27.22H695.583ZM717.099 30.58C719.094 30.58 720.214 31.42 720.774 32.085C721.719 33.205 721.999 34.85 721.999 36.11C721.999 37.405 721.614 39.19 720.564 40.31C719.934 40.975 718.849 41.64 717.064 41.64C715.699 41.64 714.614 41.22 713.704 40.38C712.374 39.12 712.129 37.51 712.129 36.18C712.129 34.15 712.864 32.645 713.774 31.805C714.334 31.28 715.349 30.58 717.099 30.58ZM712.024 42.9H712.164C712.619 43.6 713.284 44.3 714.054 44.72C715.384 45.455 717.099 45.56 718.744 45.56C721.124 45.56 723.889 45.42 726.024 43.18C727.529 41.605 728.439 39.05 728.439 35.83C728.439 33.625 728.054 31.035 725.849 28.97C723.644 26.94 720.879 26.66 718.779 26.66C717.344 26.66 716.084 26.8 714.789 27.36C713.774 27.78 713.004 28.34 712.304 29.25V20.5H706.144V45H712.024V42.9ZM731.95 24.385H738.11V20.255H731.95V24.385ZM731.95 27.22V45H738.11V27.22H731.95ZM742.511 20.5V45H748.671V20.5H742.511ZM753.073 24.385H759.233V20.255H753.073V24.385ZM753.073 27.22V45H759.233V27.22H753.073ZM761.955 31H765.735V40.31C765.735 41.395 765.77 42.97 767.03 44.16C768.395 45.455 770.635 45.525 771.895 45.525C773.4 45.525 774.59 45.42 776.095 44.965V41.115C775.43 41.325 774.835 41.395 774.275 41.395C772.98 41.395 772.49 40.905 772.385 40.8C771.895 40.275 771.895 39.435 771.895 38.77V31H776.025V27.22H771.895V21.935H765.735V27.22H761.955V31ZM779.116 51.195C780.411 51.615 781.321 51.685 782.651 51.685C784.401 51.685 786.186 51.545 787.761 50.04C788.951 48.92 789.686 47.135 790.456 45.315L798.016 27.22H792.241L788.111 39.085L783.386 27.22H777.191L784.751 43.915L784.401 44.965C784.156 45.665 783.631 46.645 783.071 47.1C782.546 47.52 781.741 47.695 780.971 47.695C780.726 47.695 779.991 47.66 779.116 47.38V51.195Z" fill="white"/>
<path d="M125.837 35.935C125.837 33.905 126.572 32.54 127.377 31.735C128.252 30.86 129.267 30.51 130.457 30.51C131.962 30.51 133.152 31.07 133.887 31.84C134.797 32.82 135.217 34.5 135.217 35.83C135.217 37.055 134.867 38.735 133.887 39.75C132.942 40.73 131.717 40.94 130.632 40.94C129.617 40.94 128.182 40.765 127.132 39.645C126.292 38.77 125.837 37.44 125.837 35.935ZM120.727 46.085C120.762 47.625 121.252 49.48 123.422 50.67C124.017 50.985 125.802 51.86 130.107 51.86C133.992 51.86 137.107 51.44 138.962 49.585C141.062 47.485 141.132 44.055 141.132 42.83V27.22H135.322V29.285H135.147C134.657 28.585 133.957 27.85 132.872 27.36C132.032 26.975 130.807 26.66 128.917 26.66C126.712 26.66 124.052 27.08 121.987 29.145C120.692 30.475 119.467 32.645 119.467 36.215C119.467 38.42 119.922 40.59 121.847 42.41C123.877 44.3 126.152 44.65 128.672 44.65C130.737 44.65 131.962 44.405 132.767 44.055C133.292 43.81 134.132 43.355 134.832 42.41H134.972V43.74C134.972 44.615 134.902 46.155 133.887 47.1C132.872 48.045 131.122 48.08 130.562 48.08C129.792 48.08 128.707 47.975 128.042 47.66C127.132 47.205 126.922 46.54 126.887 46.085H120.727ZM159.424 26.94C158.864 26.835 158.374 26.8 157.814 26.8C156.519 26.8 155.294 27.01 154.139 27.605C152.739 28.34 151.899 29.355 151.444 30.125V27.22H145.529V45H151.689V38.315C151.689 36.985 151.899 33.66 154.209 32.085C155.119 31.455 156.414 31.105 158.129 31.105C158.584 31.105 159.109 31.14 159.424 31.175V26.94ZM166.988 34.115C167.093 32.785 167.758 31.875 168.458 31.315C169.508 30.475 170.663 30.335 171.923 30.335C173.078 30.335 174.513 30.44 175.563 31.385C176.053 31.805 176.753 32.68 176.823 34.115H166.988ZM176.718 39.19C176.473 40.345 175.808 40.94 175.143 41.255C174.268 41.675 172.868 41.745 171.958 41.745C170.768 41.745 169.088 41.605 168.038 40.555C167.443 39.96 166.883 38.91 166.883 37.37V37.265H183.158V36.635C183.158 34.5 182.948 31.63 180.743 29.425C178.328 27.01 174.653 26.555 171.888 26.555C169.088 26.555 165.693 26.94 163.243 29.32C160.898 31.595 160.583 34.57 160.583 36.39C160.583 38.595 161.003 41.01 163.033 43.04C165.308 45.315 168.353 45.665 172.378 45.665C175.248 45.665 177.383 45.455 179.063 44.72C181.478 43.635 182.703 41.465 182.913 39.19H176.718ZM200.507 37.09C200.507 38.98 199.982 40.065 199.247 40.8C198.162 41.885 196.902 42.025 195.782 42.025C195.047 42.025 194.102 41.99 193.437 41.465C193.017 41.15 192.702 40.59 192.702 39.96C192.702 39.12 193.227 38.665 193.542 38.455C194.137 38.07 195.012 37.93 196.027 37.825L197.322 37.685C199.072 37.51 199.807 37.405 200.507 36.81V37.09ZM193.227 32.96C193.262 31.875 193.927 31.28 194.242 31.035C195.082 30.44 196.482 30.405 196.902 30.405C197.707 30.405 198.687 30.545 199.352 30.895C200.262 31.385 200.472 32.085 200.472 32.645C200.472 33.065 200.332 33.52 200.052 33.8C199.527 34.36 198.442 34.43 196.797 34.57L193.997 34.815C192.142 34.99 189.167 35.2 187.487 36.81C186.507 37.755 186.157 38.98 186.157 40.31C186.157 42.62 187.277 43.88 188.222 44.545C189.727 45.56 192.002 45.665 193.752 45.665C195.082 45.665 196.587 45.595 197.987 45.14C199.142 44.755 200.017 44.195 200.752 43.25H200.892L201.277 45H207.997V44.51C207.402 44.405 207.122 43.985 207.017 43.81C206.982 43.705 206.737 43.25 206.737 41.675V33.765C206.737 32.295 206.702 30.44 205.232 28.9C203.237 26.8 199.282 26.555 196.797 26.555C193.612 26.555 190.707 26.835 188.712 28.795C187.662 29.845 186.997 31.21 186.997 32.96H193.227ZM209.747 31H213.527V40.31C213.527 41.395 213.562 42.97 214.822 44.16C216.187 45.455 218.427 45.525 219.687 45.525C221.192 45.525 222.382 45.42 223.887 44.965V41.115C223.222 41.325 222.627 41.395 222.067 41.395C220.772 41.395 220.282 40.905 220.177 40.8C219.687 40.275 219.687 39.435 219.687 38.77V31H223.817V27.22H219.687V21.935H213.527V27.22H209.747V31ZM245.863 30.58C247.578 30.58 248.733 31.175 249.503 32.05C250.308 32.96 250.798 34.36 250.798 36.075C250.798 36.705 250.728 38.77 249.503 40.205C248.523 41.36 247.368 41.64 245.968 41.64C244.113 41.64 242.993 40.94 242.328 40.275C241.348 39.26 240.928 37.615 240.928 36.18C240.928 34.605 241.453 32.995 242.433 31.945C243.483 30.825 244.743 30.58 245.863 30.58ZM234.943 27.22V51.475H241.103V43.11C241.663 43.845 242.538 44.58 243.483 44.965C244.043 45.21 245.163 45.56 247.578 45.56C249.783 45.56 252.408 45.385 254.578 43.285C256.783 41.115 257.168 38.175 257.168 35.97C257.168 33.835 256.818 31 254.578 28.9C252.478 26.905 249.888 26.66 247.648 26.66C246.388 26.66 244.708 26.765 243.238 27.5C242.433 27.92 241.593 28.585 240.928 29.46H240.823V27.22H234.943ZM271.46 30.545C272.58 30.545 274.12 30.755 275.24 31.875C276.15 32.82 276.71 34.36 276.71 36.11C276.71 37.86 276.15 39.4 275.24 40.345C274.12 41.465 272.58 41.675 271.46 41.675C270.34 41.675 268.8 41.465 267.68 40.345C266.77 39.4 266.21 37.86 266.21 36.11C266.21 34.36 266.77 32.82 267.68 31.875C268.8 30.755 270.34 30.545 271.46 30.545ZM283.08 36.11C283.08 33.765 282.555 30.965 280 28.9C277.41 26.8 273.77 26.555 271.46 26.555C269.15 26.555 265.51 26.8 262.92 28.9C260.365 30.965 259.84 33.765 259.84 36.11C259.84 38.455 260.365 41.255 262.92 43.32C265.51 45.42 269.15 45.665 271.46 45.665C273.77 45.665 277.41 45.42 280 43.32C282.555 41.255 283.08 38.455 283.08 36.11ZM299.723 32.96L304.028 45H309.488L315.648 27.22H309.698L306.198 39.225L302.243 27.22H297.168L293.213 39.225L289.713 27.22H283.728L289.888 45H295.383L299.723 32.96ZM322.779 34.115C322.884 32.785 323.549 31.875 324.249 31.315C325.299 30.475 326.454 30.335 327.714 30.335C328.869 30.335 330.304 30.44 331.354 31.385C331.844 31.805 332.544 32.68 332.614 34.115H322.779ZM332.509 39.19C332.264 40.345 331.599 40.94 330.934 41.255C330.059 41.675 328.659 41.745 327.749 41.745C326.559 41.745 324.879 41.605 323.829 40.555C323.234 39.96 322.674 38.91 322.674 37.37V37.265H338.949V36.635C338.949 34.5 338.739 31.63 336.534 29.425C334.119 27.01 330.444 26.555 327.679 26.555C324.879 26.555 321.484 26.94 319.034 29.32C316.689 31.595 316.374 34.57 316.374 36.39C316.374 38.595 316.794 41.01 318.824 43.04C321.099 45.315 324.144 45.665 328.169 45.665C331.039 45.665 333.174 45.455 334.854 44.72C337.269 43.635 338.494 41.465 338.704 39.19H332.509ZM356.333 26.94C355.773 26.835 355.283 26.8 354.723 26.8C353.428 26.8 352.203 27.01 351.048 27.605C349.648 28.34 348.808 29.355 348.353 30.125V27.22H342.438V45H348.598V38.315C348.598 36.985 348.808 33.66 351.118 32.085C352.028 31.455 353.323 31.105 355.038 31.105C355.493 31.105 356.018 31.14 356.333 31.175V26.94Z" fill="black"/>
</g>
<defs>
<filter id="filter0_d_2_3" x="0.681641" y="0.0449219" width="817.334" height="71.8149" filterUnits="userSpaceOnUse" color-interpolation-filters="sRGB">
<feFlood flood-opacity="0" result="BackgroundImageFix"/>
<feColorMatrix in="SourceAlpha" type="matrix" values="0 0 0 0 0 0 0 0 0 0 0 0 0 0 0 0 0 0 127 0" result="hardAlpha"/>
<feOffset/>
<feGaussianBlur stdDeviation="10"/>
<feComposite in2="hardAlpha" operator="out"/>
<feColorMatrix type="matrix" values="0 0 0 0 1 0 0 0 0 1 0 0 0 0 1 0 0 0 0.7 0"/>
<feBlend mode="normal" in2="BackgroundImageFix" result="effect1_dropShadow_2_3"/>
<feBlend mode="normal" in="SourceGraphic" in2="effect1_dropShadow_2_3" result="shape"/>
</filter>
</defs>
</svg>
