<svg width="452" height="170" viewBox="0 0 452 170" fill="none" xmlns="http://www.w3.org/2000/svg">
<rect x="90" y="105" width="288" height="54" fill="#FDC500"/>
<g filter="url(#filter0_d_2_3)">
<path d="M62.0072 25.4V45H68.4472V25.4H76.9872V20.5H53.4672V25.4H62.0072ZM91.4299 26.94C90.8699 26.835 90.3799 26.8 89.8199 26.8C88.5249 26.8 87.2999 27.01 86.1449 27.605C84.7449 28.34 83.9049 29.355 83.4499 30.125V27.22H77.5349V45H83.6949V38.315C83.6949 36.985 83.9049 33.66 86.2149 32.085C87.1249 31.455 88.4199 31.105 90.1349 31.105C90.5899 31.105 91.1149 31.14 91.4299 31.175V26.94ZM98.9935 34.115C99.0985 32.785 99.7635 31.875 100.463 31.315C101.513 30.475 102.668 30.335 103.928 30.335C105.083 30.335 106.518 30.44 107.568 31.385C108.058 31.805 108.758 32.68 108.828 34.115H98.9935ZM108.723 39.19C108.478 40.345 107.813 40.94 107.148 41.255C106.273 41.675 104.873 41.745 103.963 41.745C102.773 41.745 101.093 41.605 100.043 40.555C99.4485 39.96 98.8885 38.91 98.8885 37.37V37.265H115.163V36.635C115.163 34.5 114.953 31.63 112.748 29.425C110.333 27.01 106.658 26.555 103.893 26.555C101.093 26.555 97.6985 26.94 95.2485 29.32C92.9035 31.595 92.5885 34.57 92.5885 36.39C92.5885 38.595 93.0085 41.01 95.0385 43.04C97.3135 45.315 100.358 45.665 104.383 45.665C107.253 45.665 109.388 45.455 111.068 44.72C113.483 43.635 114.708 41.465 114.918 39.19H108.723ZM132.513 37.09C132.513 38.98 131.988 40.065 131.253 40.8C130.168 41.885 128.908 42.025 127.788 42.025C127.053 42.025 126.108 41.99 125.443 41.465C125.023 41.15 124.708 40.59 124.708 39.96C124.708 39.12 125.233 38.665 125.548 38.455C126.143 38.07 127.018 37.93 128.033 37.825L129.328 37.685C131.078 37.51 131.813 37.405 132.513 36.81V37.09ZM125.233 32.96C125.268 31.875 125.933 31.28 126.248 31.035C127.088 30.44 128.488 30.405 128.908 30.405C129.713 30.405 130.693 30.545 131.358 30.895C132.268 31.385 132.478 32.085 132.478 32.645C132.478 33.065 132.338 33.52 132.058 33.8C131.533 34.36 130.448 34.43 128.803 34.57L126.003 34.815C124.148 34.99 121.173 35.2 119.493 36.81C118.513 37.755 118.163 38.98 118.163 40.31C118.163 42.62 119.283 43.88 120.228 44.545C121.733 45.56 124.008 45.665 125.758 45.665C127.088 45.665 128.593 45.595 129.993 45.14C131.148 44.755 132.023 44.195 132.758 43.25H132.898L133.283 45H140.003V44.51C139.408 44.405 139.128 43.985 139.023 43.81C138.988 43.705 138.743 43.25 138.743 41.675V33.765C138.743 32.295 138.708 30.44 137.238 28.9C135.243 26.8 131.288 26.555 128.803 26.555C125.618 26.555 122.713 26.835 120.718 28.795C119.668 29.845 119.003 31.21 119.003 32.96H125.233ZM141.753 31H145.533V40.31C145.533 41.395 145.568 42.97 146.828 44.16C148.193 45.455 150.433 45.525 151.693 45.525C153.198 45.525 154.388 45.42 155.893 44.965V41.115C155.228 41.325 154.633 41.395 154.073 41.395C152.778 41.395 152.288 40.905 152.183 40.8C151.693 40.275 151.693 39.435 151.693 38.77V31H155.823V27.22H151.693V21.935H145.533V27.22H141.753V31ZM166.879 51.195C168.174 51.615 169.084 51.685 170.414 51.685C172.164 51.685 173.949 51.545 175.524 50.04C176.714 48.92 177.449 47.135 178.219 45.315L185.779 27.22H180.004L175.874 39.085L171.149 27.22H164.954L172.514 43.915L172.164 44.965C171.919 45.665 171.394 46.645 170.834 47.1C170.309 47.52 169.504 47.695 168.734 47.695C168.489 47.695 167.754 47.66 166.879 47.38V51.195ZM198.271 30.545C199.391 30.545 200.931 30.755 202.051 31.875C202.961 32.82 203.521 34.36 203.521 36.11C203.521 37.86 202.961 39.4 202.051 40.345C200.931 41.465 199.391 41.675 198.271 41.675C197.151 41.675 195.611 41.465 194.491 40.345C193.581 39.4 193.021 37.86 193.021 36.11C193.021 34.36 193.581 32.82 194.491 31.875C195.611 30.755 197.151 30.545 198.271 30.545ZM209.891 36.11C209.891 33.765 209.366 30.965 206.811 28.9C204.221 26.8 200.581 26.555 198.271 26.555C195.961 26.555 192.321 26.8 189.731 28.9C187.176 30.965 186.651 33.765 186.651 36.11C186.651 38.455 187.176 41.255 189.731 43.32C192.321 45.42 195.961 45.665 198.271 45.665C200.581 45.665 204.221 45.42 206.811 43.32C209.366 41.255 209.891 38.455 209.891 36.11ZM227.959 45H233.699V27.22H227.539V35.795C227.539 37.265 227.434 39.015 226.314 40.24C225.369 41.255 224.109 41.43 223.199 41.43C221.764 41.43 220.924 40.975 220.469 40.52C219.489 39.575 219.454 38.07 219.454 37.055V27.22H213.294V38.175C213.294 39.645 213.399 42.2 215.149 43.845C216.759 45.35 219.419 45.56 220.994 45.56C222.989 45.56 224.284 45.315 225.159 44.93C226.664 44.3 227.574 43.11 227.819 42.795H227.959V45ZM252.006 26.94C251.446 26.835 250.956 26.8 250.396 26.8C249.101 26.8 247.876 27.01 246.721 27.605C245.321 28.34 244.481 29.355 244.026 30.125V27.22H238.111V45H244.271V38.315C244.271 36.985 244.481 33.66 246.791 32.085C247.701 31.455 248.996 31.105 250.711 31.105C251.166 31.105 251.691 31.14 252.006 31.175V26.94ZM283.474 33.52C283.439 31.98 283.019 29.67 280.254 28.06C279.239 27.465 277.104 26.555 272.939 26.555C270.244 26.555 266.709 26.975 264.329 29.495C263.174 30.72 261.949 32.855 261.949 36.39C261.949 40.275 263.489 42.27 264.364 43.145C266.709 45.49 270.244 45.665 273.114 45.665C276.334 45.665 279.519 45.49 281.654 43.285C282.529 42.375 283.544 40.765 283.544 38.42V38.315H277.594C277.559 39.505 276.999 40.45 276.264 40.975C275.389 41.605 274.164 41.675 273.359 41.675C272.204 41.675 270.804 41.535 269.754 40.485C268.949 39.68 268.319 38.28 268.319 36.285C268.319 35.655 268.354 33.45 269.649 31.98C270.629 30.86 271.959 30.545 273.324 30.545C274.304 30.545 275.424 30.72 276.229 31.21C277.384 31.945 277.524 32.995 277.559 33.52H283.474ZM286.954 20.5V45H293.114V36.95C293.114 35.41 293.219 33.38 294.444 32.015C295.319 31.035 296.404 30.755 297.594 30.755C298.994 30.755 299.869 31.21 300.359 31.735C301.304 32.75 301.304 34.465 301.304 35.375V45H307.464V34.29C307.464 32.33 307.429 29.46 304.804 27.815C303.509 27.01 301.584 26.625 299.589 26.625C298.679 26.625 296.894 26.695 295.459 27.325C294.409 27.78 293.674 28.41 293.114 29.145V20.5H286.954ZM325.628 37.09C325.628 38.98 325.103 40.065 324.368 40.8C323.283 41.885 322.023 42.025 320.903 42.025C320.168 42.025 319.223 41.99 318.558 41.465C318.138 41.15 317.823 40.59 317.823 39.96C317.823 39.12 318.348 38.665 318.663 38.455C319.258 38.07 320.133 37.93 321.148 37.825L322.443 37.685C324.193 37.51 324.928 37.405 325.628 36.81V37.09ZM318.348 32.96C318.383 31.875 319.048 31.28 319.363 31.035C320.203 30.44 321.603 30.405 322.023 30.405C322.828 30.405 323.808 30.545 324.473 30.895C325.383 31.385 325.593 32.085 325.593 32.645C325.593 33.065 325.453 33.52 325.173 33.8C324.648 34.36 323.563 34.43 321.918 34.57L319.118 34.815C317.263 34.99 314.288 35.2 312.608 36.81C311.628 37.755 311.278 38.98 311.278 40.31C311.278 42.62 312.398 43.88 313.343 44.545C314.848 45.56 317.123 45.665 318.873 45.665C320.203 45.665 321.708 45.595 323.108 45.14C324.263 44.755 325.138 44.195 325.873 43.25H326.013L326.398 45H333.118V44.51C332.523 44.405 332.243 43.985 332.138 43.81C332.103 43.705 331.858 43.25 331.858 41.675V33.765C331.858 32.295 331.823 30.44 330.353 28.9C328.358 26.8 324.403 26.555 321.918 26.555C318.733 26.555 315.828 26.835 313.833 28.795C312.783 29.845 312.118 31.21 312.118 32.96H318.348ZM350.444 26.94C349.884 26.835 349.394 26.8 348.834 26.8C347.539 26.8 346.314 27.01 345.159 27.605C343.759 28.34 342.919 29.355 342.464 30.125V27.22H336.549V45H342.709V38.315C342.709 36.985 342.919 33.66 345.229 32.085C346.139 31.455 347.434 31.105 349.149 31.105C349.604 31.105 350.129 31.14 350.444 31.175V26.94ZM353.057 24.385H359.217V20.255H353.057V24.385ZM353.057 27.22V45H359.217V27.22H353.057ZM361.939 31H365.719V40.31C365.719 41.395 365.754 42.97 367.014 44.16C368.379 45.455 370.619 45.525 371.879 45.525C373.384 45.525 374.574 45.42 376.079 44.965V41.115C375.414 41.325 374.819 41.395 374.259 41.395C372.964 41.395 372.474 40.905 372.369 40.8C371.879 40.275 371.879 39.435 371.879 38.77V31H376.009V27.22H371.879V21.935H365.719V27.22H361.939V31ZM379.101 51.195C380.396 51.615 381.306 51.685 382.636 51.685C384.386 51.685 386.171 51.545 387.746 50.04C388.936 48.92 389.671 47.135 390.441 45.315L398.001 27.22H392.226L388.096 39.085L383.371 27.22H377.176L384.736 43.915L384.386 44.965C384.141 45.665 383.616 46.645 383.056 47.1C382.531 47.52 381.726 47.695 380.956 47.695C380.711 47.695 379.976 47.66 379.101 47.38V51.195ZM20.0276 69.5V94H26.1876V69.5H20.0276ZM30.5891 73.385H36.7491V69.255H30.5891V73.385ZM30.5891 76.22V94H36.7491V76.22H30.5891ZM47.3106 83.08V69.5H41.1506V94H47.3106V88.505L49.6906 86.44L55.3256 94H62.1856L53.5406 83.29L61.8006 76.22H54.8356L47.3106 83.08ZM68.6932 83.115C68.7982 81.785 69.4632 80.875 70.1632 80.315C71.2132 79.475 72.3682 79.335 73.6282 79.335C74.7832 79.335 76.2182 79.44 77.2682 80.385C77.7582 80.805 78.4582 81.68 78.5282 83.115H68.6932ZM78.4232 88.19C78.1782 89.345 77.5132 89.94 76.8482 90.255C75.9732 90.675 74.5732 90.745 73.6632 90.745C72.4732 90.745 70.7932 90.605 69.7432 89.555C69.1482 88.96 68.5882 87.91 68.5882 86.37V86.265H84.8632V85.635C84.8632 83.5 84.6532 80.63 82.4482 78.425C80.0332 76.01 76.3582 75.555 73.5932 75.555C70.7932 75.555 67.3982 75.94 64.9482 78.32C62.6032 80.595 62.2882 83.57 62.2882 85.39C62.2882 87.595 62.7082 90.01 64.7382 92.04C67.0132 94.315 70.0582 94.665 74.0832 94.665C76.9532 94.665 79.0882 94.455 80.7682 93.72C83.1832 92.635 84.4082 90.465 84.6182 88.19H78.4232ZM96.4517 100.195C97.7467 100.615 98.6567 100.685 99.9867 100.685C101.737 100.685 103.522 100.545 105.097 99.04C106.287 97.92 107.022 96.135 107.792 94.315L115.352 76.22H109.577L105.447 88.085L100.722 76.22H94.5267L102.087 92.915L101.737 93.965C101.492 94.665 100.967 95.645 100.407 96.1C99.8817 96.52 99.0767 96.695 98.3067 96.695C98.0617 96.695 97.3267 96.66 96.4517 96.38V100.195ZM127.844 79.545C128.964 79.545 130.504 79.755 131.624 80.875C132.534 81.82 133.094 83.36 133.094 85.11C133.094 86.86 132.534 88.4 131.624 89.345C130.504 90.465 128.964 90.675 127.844 90.675C126.724 90.675 125.184 90.465 124.064 89.345C123.154 88.4 122.594 86.86 122.594 85.11C122.594 83.36 123.154 81.82 124.064 80.875C125.184 79.755 126.724 79.545 127.844 79.545ZM139.464 85.11C139.464 82.765 138.939 79.965 136.384 77.9C133.794 75.8 130.154 75.555 127.844 75.555C125.534 75.555 121.894 75.8 119.304 77.9C116.749 79.965 116.224 82.765 116.224 85.11C116.224 87.455 116.749 90.255 119.304 92.32C121.894 94.42 125.534 94.665 127.844 94.665C130.154 94.665 133.794 94.42 136.384 92.32C138.939 90.255 139.464 87.455 139.464 85.11ZM157.532 94H163.272V76.22H157.112V84.795C157.112 86.265 157.007 88.015 155.887 89.24C154.942 90.255 153.682 90.43 152.772 90.43C151.337 90.43 150.497 89.975 150.042 89.52C149.062 88.575 149.027 87.07 149.027 86.055V76.22H142.867V87.175C142.867 88.645 142.972 91.2 144.722 92.845C146.332 94.35 148.992 94.56 150.567 94.56C152.562 94.56 153.857 94.315 154.732 93.93C156.237 93.3 157.147 92.11 157.392 91.795H157.532V94ZM181.579 75.94C181.019 75.835 180.529 75.8 179.969 75.8C178.674 75.8 177.449 76.01 176.294 76.605C174.894 77.34 174.054 78.355 173.599 79.125V76.22H167.684V94H173.844V87.315C173.844 85.985 174.054 82.66 176.364 81.085C177.274 80.455 178.569 80.105 180.284 80.105C180.739 80.105 181.264 80.14 181.579 80.175V75.94ZM192.362 73.385H198.522V69.255H192.362V73.385ZM192.362 76.22V94H198.522V76.22H192.362ZM202.923 76.22V94H209.083V85.845C209.083 83.745 209.608 81.995 210.518 81.015C211.078 80.42 212.093 79.755 213.738 79.755C214.963 79.755 215.768 80.14 216.223 80.595C217.133 81.47 217.273 82.94 217.273 84.375V94H223.433V83.01C223.433 80.875 223.153 78.425 220.843 76.92C220.388 76.605 218.638 75.625 215.278 75.625C214.228 75.625 212.723 75.73 211.323 76.43C210.343 76.92 209.468 77.655 208.838 78.39V76.22H202.923ZM235.827 88.89L231.347 76.22H225.082L232.677 94H238.977L246.677 76.22H240.517L235.827 88.89ZM253.81 83.115C253.915 81.785 254.58 80.875 255.28 80.315C256.33 79.475 257.485 79.335 258.745 79.335C259.9 79.335 261.335 79.44 262.385 80.385C262.875 80.805 263.575 81.68 263.645 83.115H253.81ZM263.54 88.19C263.295 89.345 262.63 89.94 261.965 90.255C261.09 90.675 259.69 90.745 258.78 90.745C257.59 90.745 255.91 90.605 254.86 89.555C254.265 88.96 253.705 87.91 253.705 86.37V86.265H269.98V85.635C269.98 83.5 269.77 80.63 267.565 78.425C265.15 76.01 261.475 75.555 258.71 75.555C255.91 75.555 252.515 75.94 250.065 78.32C247.72 80.595 247.405 83.57 247.405 85.39C247.405 87.595 247.825 90.01 249.855 92.04C252.13 94.315 255.175 94.665 259.2 94.665C262.07 94.665 264.205 94.455 265.885 93.72C268.3 92.635 269.525 90.465 269.735 88.19H263.54ZM272.18 88.4V88.47C272.18 89.415 272.32 91.13 273.825 92.6C275.75 94.455 278.9 94.7 282.61 94.7C285.585 94.7 288.525 94.56 290.45 92.495C291.325 91.55 291.885 90.325 291.885 88.715C291.885 86.86 291.08 85.705 290.17 84.97C288.875 83.92 286.635 83.5 285.445 83.325L283.065 82.975C281.28 82.695 280.265 82.625 279.46 82.275C279.075 82.1 278.41 81.75 278.41 80.98C278.41 80.49 278.725 79.895 279.425 79.545C279.985 79.265 280.965 79.16 281.735 79.16C282.47 79.16 283.485 79.265 284.15 79.58C284.885 79.93 285.165 80.455 285.165 81.05V81.12H291.045C291.01 79.02 290.205 77.48 287.965 76.465C287.23 76.15 285.585 75.52 281.7 75.52C278.305 75.52 276.345 76.045 275.05 76.815C273.3 77.83 272.355 79.265 272.355 81.4C272.355 82.765 272.74 84.235 274.28 85.18C275.05 85.67 276.275 86.055 279.145 86.475L281.245 86.79C282.505 86.965 283.415 87.07 284.255 87.385C284.815 87.595 285.585 87.98 285.585 88.96C285.585 89.31 285.445 89.94 284.605 90.36C284.22 90.57 283.52 90.78 282.12 90.78C280.265 90.78 279.565 90.43 279.355 90.325C278.83 90.045 278.2 89.485 278.2 88.505V88.4H272.18ZM293.46 80H297.24V89.31C297.24 90.395 297.275 91.97 298.535 93.16C299.9 94.455 302.14 94.525 303.4 94.525C304.905 94.525 306.095 94.42 307.6 93.965V90.115C306.935 90.325 306.34 90.395 305.78 90.395C304.485 90.395 303.995 89.905 303.89 89.8C303.4 89.275 303.4 88.435 303.4 87.77V80H307.53V76.22H303.4V70.935H297.24V76.22H293.46V80ZM310.487 76.22V94H316.647V85.285C316.647 83.955 316.752 81.925 318.117 80.665C318.887 79.965 319.762 79.72 320.707 79.72C321.407 79.72 322.282 79.86 322.947 80.49C323.927 81.4 323.997 82.73 323.997 83.605V94H330.157V84.795C330.157 83.675 330.367 81.855 331.452 80.77C331.977 80.245 332.817 79.72 334.147 79.72C335.372 79.72 336.107 80.21 336.492 80.56C337.227 81.26 337.507 82.38 337.507 83.745V94H343.667V83.815C343.667 81.96 343.562 79.195 341.742 77.41C340.062 75.765 337.472 75.59 336.037 75.59C334.427 75.59 332.887 75.8 331.417 76.605C330.577 77.06 329.597 77.795 328.792 79.02C328.477 78.215 327.917 77.165 326.622 76.43C325.502 75.765 324.277 75.59 322.947 75.59C321.372 75.59 320.042 75.765 318.677 76.5C317.557 77.095 316.787 77.9 316.227 78.705V76.22H310.487ZM353.547 83.115C353.652 81.785 354.317 80.875 355.017 80.315C356.067 79.475 357.222 79.335 358.482 79.335C359.637 79.335 361.072 79.44 362.122 80.385C362.612 80.805 363.312 81.68 363.382 83.115H353.547ZM363.277 88.19C363.032 89.345 362.367 89.94 361.702 90.255C360.827 90.675 359.427 90.745 358.517 90.745C357.327 90.745 355.647 90.605 354.597 89.555C354.002 88.96 353.442 87.91 353.442 86.37V86.265H369.717V85.635C369.717 83.5 369.507 80.63 367.302 78.425C364.887 76.01 361.212 75.555 358.447 75.555C355.647 75.555 352.252 75.94 349.802 78.32C347.457 80.595 347.142 83.57 347.142 85.39C347.142 87.595 347.562 90.01 349.592 92.04C351.867 94.315 354.912 94.665 358.937 94.665C361.807 94.665 363.942 94.455 365.622 93.72C368.037 92.635 369.262 90.465 369.472 88.19H363.277ZM373.206 76.22V94H379.366V85.845C379.366 83.745 379.891 81.995 380.801 81.015C381.361 80.42 382.376 79.755 384.021 79.755C385.246 79.755 386.051 80.14 386.506 80.595C387.416 81.47 387.556 82.94 387.556 84.375V94H393.716V83.01C393.716 80.875 393.436 78.425 391.126 76.92C390.671 76.605 388.921 75.625 385.561 75.625C384.511 75.625 383.006 75.73 381.606 76.43C380.626 76.92 379.751 77.655 379.121 78.39V76.22H373.206ZM396.341 80H400.121V89.31C400.121 90.395 400.156 91.97 401.416 93.16C402.781 94.455 405.021 94.525 406.281 94.525C407.786 94.525 408.976 94.42 410.481 93.965V90.115C409.816 90.325 409.221 90.395 408.661 90.395C407.366 90.395 406.876 89.905 406.771 89.8C406.281 89.275 406.281 88.435 406.281 87.77V80H410.411V76.22H406.281V70.935H400.121V76.22H396.341V80ZM412.282 88.4V88.47C412.282 89.415 412.422 91.13 413.927 92.6C415.852 94.455 419.002 94.7 422.712 94.7C425.687 94.7 428.627 94.56 430.552 92.495C431.427 91.55 431.987 90.325 431.987 88.715C431.987 86.86 431.182 85.705 430.272 84.97C428.977 83.92 426.737 83.5 425.547 83.325L423.167 82.975C421.382 82.695 420.367 82.625 419.562 82.275C419.177 82.1 418.512 81.75 418.512 80.98C418.512 80.49 418.827 79.895 419.527 79.545C420.087 79.265 421.067 79.16 421.837 79.16C422.572 79.16 423.587 79.265 424.252 79.58C424.987 79.93 425.267 80.455 425.267 81.05V81.12H431.147C431.112 79.02 430.307 77.48 428.067 76.465C427.332 76.15 425.687 75.52 421.802 75.52C418.407 75.52 416.447 76.045 415.152 76.815C413.402 77.83 412.457 79.265 412.457 81.4C412.457 82.765 412.842 84.235 414.382 85.18C415.152 85.67 416.377 86.055 419.247 86.475L421.347 86.79C422.607 86.965 423.517 87.07 424.357 87.385C424.917 87.595 425.687 87.98 425.687 88.96C425.687 89.31 425.547 89.94 424.707 90.36C424.322 90.57 423.622 90.78 422.222 90.78C420.367 90.78 419.667 90.43 419.457 90.325C418.932 90.045 418.302 89.485 418.302 88.505V88.4H412.282Z" fill="white"/>
<path d="M104.108 134.915H118.423V130.54H104.108V134.915ZM138.469 128.23V123.4H154.359V118.5H132.029V143H154.744V138.1H138.469V132.85H151.909V128.23H138.469ZM167.38 131.03L163.145 125.22H155.865L163.355 133.865L155.585 143H162.41L166.75 137.155L171.195 143H178.51L170.775 133.795L178.23 125.22H171.44L167.38 131.03ZM191.575 128.58C193.29 128.58 194.445 129.175 195.215 130.05C196.02 130.96 196.51 132.36 196.51 134.075C196.51 134.705 196.44 136.77 195.215 138.205C194.235 139.36 193.08 139.64 191.68 139.64C189.825 139.64 188.705 138.94 188.04 138.275C187.06 137.26 186.64 135.615 186.64 134.18C186.64 132.605 187.165 130.995 188.145 129.945C189.195 128.825 190.455 128.58 191.575 128.58ZM180.655 125.22V149.475H186.815V141.11C187.375 141.845 188.25 142.58 189.195 142.965C189.755 143.21 190.875 143.56 193.29 143.56C195.495 143.56 198.12 143.385 200.29 141.285C202.495 139.115 202.88 136.175 202.88 133.97C202.88 131.835 202.53 129 200.29 126.9C198.19 124.905 195.6 124.66 193.36 124.66C192.1 124.66 190.42 124.765 188.95 125.5C188.145 125.92 187.305 126.585 186.64 127.46H186.535V125.22H180.655ZM211.957 132.115C212.062 130.785 212.727 129.875 213.427 129.315C214.477 128.475 215.632 128.335 216.892 128.335C218.047 128.335 219.482 128.44 220.532 129.385C221.022 129.805 221.722 130.68 221.792 132.115H211.957ZM221.687 137.19C221.442 138.345 220.777 138.94 220.112 139.255C219.237 139.675 217.837 139.745 216.927 139.745C215.737 139.745 214.057 139.605 213.007 138.555C212.412 137.96 211.852 136.91 211.852 135.37V135.265H228.127V134.635C228.127 132.5 227.917 129.63 225.712 127.425C223.297 125.01 219.622 124.555 216.857 124.555C214.057 124.555 210.662 124.94 208.212 127.32C205.867 129.595 205.552 132.57 205.552 134.39C205.552 136.595 205.972 139.01 208.002 141.04C210.277 143.315 213.322 143.665 217.347 143.665C220.217 143.665 222.352 143.455 224.032 142.72C226.447 141.635 227.672 139.465 227.882 137.19H221.687ZM252.302 131.52C252.267 129.98 251.847 127.67 249.082 126.06C248.067 125.465 245.932 124.555 241.767 124.555C239.072 124.555 235.537 124.975 233.157 127.495C232.002 128.72 230.777 130.855 230.777 134.39C230.777 138.275 232.317 140.27 233.192 141.145C235.537 143.49 239.072 143.665 241.942 143.665C245.162 143.665 248.347 143.49 250.482 141.285C251.357 140.375 252.372 138.765 252.372 136.42V136.315H246.422C246.387 137.505 245.827 138.45 245.092 138.975C244.217 139.605 242.992 139.675 242.187 139.675C241.032 139.675 239.632 139.535 238.582 138.485C237.777 137.68 237.147 136.28 237.147 134.285C237.147 133.655 237.182 131.45 238.477 129.98C239.457 128.86 240.787 128.545 242.152 128.545C243.132 128.545 244.252 128.72 245.057 129.21C246.212 129.945 246.352 130.995 246.387 131.52H252.302ZM254.102 129H257.882V138.31C257.882 139.395 257.917 140.97 259.177 142.16C260.542 143.455 262.782 143.525 264.042 143.525C265.547 143.525 266.737 143.42 268.242 142.965V139.115C267.577 139.325 266.982 139.395 266.422 139.395C265.127 139.395 264.637 138.905 264.532 138.8C264.042 138.275 264.042 137.435 264.042 136.77V129H268.172V125.22H264.042V119.935H257.882V125.22H254.102V129ZM286.228 123.4H292.983C293.683 123.4 295.293 123.435 296.063 123.925C296.623 124.275 297.253 125.045 297.253 126.305C297.253 127.32 296.833 128.02 296.448 128.405C295.538 129.315 294.138 129.385 293.053 129.385H286.228V123.4ZM279.788 143H286.228V134.005H292.248C293.368 134.005 294.698 134.285 295.398 134.88C295.993 135.37 296.483 136.35 296.553 137.855L296.658 139.885C296.728 141.075 296.833 141.915 297.603 143H304.428C303.658 141.705 303.483 140.69 303.413 139.5L303.238 136.735C303.168 135.475 303.168 134.215 302.013 133.025C301.278 132.22 300.158 131.73 299.143 131.555V131.415C300.263 131.135 301.453 130.54 302.293 129.7C303.518 128.51 303.903 127.005 303.903 125.36C303.903 124.03 303.658 122.14 302.223 120.705C300.193 118.675 296.693 118.5 294.278 118.5H279.788V143ZM321.733 122.7C323.378 122.7 325.373 122.945 327.053 124.59C329.083 126.585 329.293 129.35 329.293 130.75C329.293 132.15 329.083 134.915 327.053 136.91C325.373 138.555 323.378 138.8 321.733 138.8C320.088 138.8 318.093 138.555 316.413 136.91C314.383 134.915 314.173 132.15 314.173 130.75C314.173 129.35 314.383 126.585 316.413 124.59C318.093 122.945 320.088 122.7 321.733 122.7ZM336.293 130.75C336.293 127.88 335.733 124.31 332.443 121.37C330.588 119.725 327.333 117.8 321.733 117.8C316.133 117.8 312.878 119.725 311.023 121.37C307.733 124.31 307.173 127.88 307.173 130.75C307.173 133.62 307.733 137.19 311.023 140.13C312.878 141.775 316.133 143.7 321.733 143.7C327.333 143.7 330.588 141.775 332.443 140.13C335.733 137.19 336.293 133.62 336.293 130.75ZM340.491 118.5V143H346.931V118.5H340.491Z" fill="black"/>
</g>
<defs>
<filter id="filter0_d_2_3" x="0.0273438" y="0.255005" width="451.96" height="169.22" filterUnits="userSpaceOnUse" color-interpolation-filters="sRGB">
<feFlood flood-opacity="0" result="BackgroundImageFix"/>
<feColorMatrix in="SourceAlpha" type="matrix" values="0 0 0 0 0 0 0 0 0 0 0 0 0 0 0 0 0 0 127 0" result="hardAlpha"/>
<feOffset/>
<feGaussianBlur stdDeviation="10"/>
<feComposite in2="hardAlpha" operator="out"/>
<feColorMatrix type="matrix" values="0 0 0 0 1 0 0 0 0 1 0 0 0 0 1 0 0 0 0.7 0"/>
<feBlend mode="normal" in2="BackgroundImageFix" result="effect1_dropShadow_2_3"/>
<feBlend mode="normal" in="SourceGraphic" in2="effect1_dropShadow_2_3" result="shape"/>
</filter>
</defs>
</svg>
